<?xml version="1.0" standalone="no"?>
<!DOCTYPE svg PUBLIC "-//W3C//DTD SVG 1.1//EN" "http://www.w3.org/Graphics/SVG/1.1/DTD/svg11.dtd" >
<svg xmlns="http://www.w3.org/2000/svg" xmlns:xlink="http://www.w3.org/1999/xlink" version="1.1">
<metadata>
Created by FontForge 20161116 at Sat Nov 22 19:25:03 2014
 By Jimmy Wärting
Copyright \\u00A9  2014 by Ren\\u00E9  Bieder. All rights reserved.
</metadata>
<defs>
<font id="GalanoGrotesque" horiz-adv-x="610" >
  <font-face 
    font-family="Galano Grotesque"
    font-weight="400"
    font-stretch="normal"
    units-per-em="1000"
    panose-1="0 0 5 0 0 0 0 0 0 0"
    ascent="800"
    descent="-200"
    x-height="493"
    cap-height="670"
    bbox="-175 -201 1187 935"
    underline-thickness="50"
    underline-position="-100"
    unicode-range="U+0020-FB02"
  />
<missing-glyph horiz-adv-x="792" 
d="M744 333c0 -99 -34 -182 -102 -249c-67 -66 -149 -99 -246 -99s-179 33 -247 99c-67 67 -101 150 -101 249c0 101 34 184 101 251c68 67 150 100 247 100s179 -33 246 -100c68 -67 102 -150 102 -251zM88 334c0 -89 30 -163 90 -223c60 -59 133 -89 218 -89
s158 30 218 89c60 60 90 134 90 223c0 90 -30 165 -90 224s-133 89 -218 89s-158 -30 -218 -89s-90 -134 -90 -224zM527 400c0 -60 -47 -103 -114 -110v-43h-44v81h26c49 0 86 29 86 72c0 45 -32 76 -83 76c-53 0 -88 -36 -89 -88l-46 8c1 69 56 122 135 122
c77 0 129 -47 129 -118zM421 173c2 -42 -64 -41 -62 0c-2 36 64 38 62 0z" />
    <glyph glyph-name="fi" unicode="fi" horiz-adv-x="620" 
d="M182 493h342v-493h-77v429h-265v-429h-76v429h-86v64h86v73c0 104 66 171 170 171c33 0 64 -8 92 -24l-20 -62c-21 11 -44 17 -67 17c-61 0 -99 -39 -99 -102v-73zM485 591c-29 0 -52 22 -52 51c0 28 23 51 52 51s53 -23 53 -51c0 -29 -22 -51 -53 -51z" />
    <glyph glyph-name="fl" unicode="fl" horiz-adv-x="608" 
d="M182 566v-73h179v-64h-179v-429h-76v429h-86v64h86v73c0 104 66 171 169 171c29 0 56 -6 80 -18l-19 -62c-19 7 -37 11 -56 11c-60 0 -98 -39 -98 -102zM444 720h76v-720h-76v720z" />
    <glyph glyph-name=".notdef" horiz-adv-x="792" 
d="M744 333c0 -99 -34 -182 -102 -249c-67 -66 -149 -99 -246 -99s-179 33 -247 99c-67 67 -101 150 -101 249c0 101 34 184 101 251c68 67 150 100 247 100s179 -33 246 -100c68 -67 102 -150 102 -251zM88 334c0 -89 30 -163 90 -223c60 -59 133 -89 218 -89
s158 30 218 89c60 60 90 134 90 223c0 90 -30 165 -90 224s-133 89 -218 89s-158 -30 -218 -89s-90 -134 -90 -224zM527 400c0 -60 -47 -103 -114 -110v-43h-44v81h26c49 0 86 29 86 72c0 45 -32 76 -83 76c-53 0 -88 -36 -89 -88l-46 8c1 69 56 122 135 122
c77 0 129 -47 129 -118zM421 173c2 -42 -64 -41 -62 0c-2 36 64 38 62 0z" />
    <glyph glyph-name="NULL" horiz-adv-x="0" 
 />
    <glyph glyph-name="CR" horiz-adv-x="333" 
 />
    <glyph glyph-name="space" unicode=" " horiz-adv-x="252" 
 />
    <glyph glyph-name="exclam" unicode="!" horiz-adv-x="269" 
d="M94 670h83v-31l-3 -440h-78l-2 440v31zM98 83c20 20 54 20 74 0s20 -52 0 -72c-20 -19 -54 -19 -74 0c-20 20 -20 52 0 72z" />
    <glyph glyph-name="quotedbl" unicode="&#x22;" horiz-adv-x="338" 
d="M133 392h-78v278h78v-278zM283 392h-78v278h78v-278z" />
    <glyph glyph-name="numbersign" unicode="#" horiz-adv-x="679" 
d="M631 421h-106l-46 -185h107l-18 -65h-106l-43 -171h-69l43 171h-188l-43 -171h-69l43 171h-107l17 65h107l47 185h-108l18 65h106l47 184h69l-47 -184h188l46 184h69l-46 -184h108zM410 236l46 185h-187l-47 -185h188z" />
    <glyph glyph-name="dollar" unicode="$" horiz-adv-x="588" 
d="M534 197c0 -105 -82 -176 -203 -183v-114h-67v116c-58 7 -107 28 -146 62s-61 77 -66 130l77 16c8 -79 62 -128 138 -140v226l-45 10c-101 21 -152 73 -152 157c0 101 78 171 194 180v113h67v-115c109 -13 184 -84 193 -180l-76 -15c-5 71 -53 116 -120 128v-218l50 -11
c104 -22 156 -76 156 -162zM243 390l24 -6v207c-72 -8 -118 -49 -118 -109c0 -52 33 -77 94 -92zM359 289l-31 7v-215c80 5 131 50 131 113c0 53 -33 82 -100 95z" />
    <glyph glyph-name="percent" unicode="%" horiz-adv-x="847" 
d="M379 523c0 -46 -16 -84 -49 -114c-32 -29 -70 -44 -115 -44s-83 15 -116 44c-33 30 -49 68 -49 114c0 48 16 87 48 116c33 29 72 44 117 44s84 -15 116 -44s48 -68 48 -116zM194 0h-55l501 670h55zM215 629c-57 0 -107 -42 -107 -105s50 -105 107 -105
c56 0 105 42 105 105s-49 105 -105 105zM797 146c0 -46 -16 -84 -49 -114c-32 -30 -70 -45 -115 -45s-83 15 -116 45s-49 68 -49 114c0 48 16 87 48 116c33 29 72 44 117 44s84 -15 116 -44s48 -68 48 -116zM633 252c-57 0 -107 -42 -107 -105s50 -105 107 -105
c56 0 105 42 105 105s-49 105 -105 105z" />
    <glyph glyph-name="ampersand" unicode="&#x26;" horiz-adv-x="711" 
d="M686 33l-45 -53l-113 96c-55 -59 -127 -89 -216 -89c-75 0 -135 18 -180 55s-68 85 -68 145c0 80 50 145 129 182c-38 44 -57 90 -57 138c0 52 18 94 54 127s82 49 139 49c109 0 181 -67 196 -176l-72 -14c-8 85 -55 125 -124 125c-71 0 -119 -44 -119 -112
c0 -31 11 -61 32 -89c21 -27 59 -63 113 -107l158 -132c16 35 24 75 24 119v43h68v-43c0 -63 -13 -118 -38 -165zM312 53c65 0 119 23 162 68l-177 150l-60 51c-63 -28 -99 -76 -99 -135c0 -81 70 -134 174 -134z" />
    <glyph glyph-name="quotesingle" unicode="'" horiz-adv-x="188" 
d="M133 392h-78v278h78v-278z" />
    <glyph glyph-name="parenleft" unicode="(" horiz-adv-x="353" 
d="M298 -35l-54 -47c-126 116 -189 255 -189 417s63 301 189 417l54 -48c-117 -115 -161 -228 -161 -369s44 -254 161 -370z" />
    <glyph glyph-name="parenright" unicode=")" horiz-adv-x="353" 
d="M55 704l54 48c126 -116 189 -255 189 -417s-63 -301 -189 -417l-54 47c117 116 161 229 161 370s-44 254 -161 369z" />
    <glyph glyph-name="asterisk" unicode="*" horiz-adv-x="427" 
d="M385 613l-120 -69l120 -69l-26 -44l-118 68v-132h-55v132l-118 -68l-26 44l120 69l-120 69l26 44l118 -68v131h55v-131l118 68z" />
    <glyph glyph-name="plus" unicode="+" horiz-adv-x="580" 
d="M510 339v-68h-186v-188h-68v188h-186v68h186v188h68v-188h186z" />
    <glyph glyph-name="comma" unicode="," horiz-adv-x="210" 
d="M171 129l-96 -261h-60l66 263h90v-2z" />
    <glyph glyph-name="hyphen" unicode="-" horiz-adv-x="443" 
d="M383 289v-67h-323v67h323z" />
    <glyph glyph-name="period" unicode="." horiz-adv-x="204" 
d="M65 83c20 20 54 20 74 0s20 -52 0 -72c-20 -19 -54 -19 -74 0c-20 20 -20 52 0 72z" />
    <glyph glyph-name="slash" unicode="/" horiz-adv-x="368" 
d="M296 741h65l-288 -813h-65z" />
    <glyph glyph-name="zero" unicode="0" horiz-adv-x="665" 
d="M333 -13c-83 0 -151 32 -202 96s-76 148 -76 252c0 103 26 187 77 251c51 65 118 97 201 97s149 -32 200 -96s77 -148 77 -252s-26 -188 -77 -252s-117 -96 -200 -96zM333 61c59 0 107 25 143 75c36 51 54 117 54 199s-18 148 -54 199s-84 76 -143 76
c-60 0 -108 -25 -144 -76s-54 -117 -54 -199s18 -148 54 -199c36 -50 84 -75 144 -75z" />
    <glyph glyph-name="one" unicode="1" horiz-adv-x="355" 
d="M219 670h49v-670h-77v575l-179 -100v73z" />
    <glyph glyph-name="two" unicode="2" horiz-adv-x="515" 
d="M157 72h325v-72h-451v51l239 223c32 29 55 52 70 67c29 31 59 83 59 136c0 81 -59 137 -146 137c-92 0 -149 -59 -153 -160l-73 15c3 65 25 116 66 155s95 59 161 59s119 -19 160 -57c41 -37 61 -87 61 -148c0 -46 -12 -87 -35 -122s-64 -79 -122 -134z" />
    <glyph glyph-name="three" unicode="3" horiz-adv-x="586" 
d="M414 343c72 -20 114 -75 114 -151c0 -61 -21 -111 -63 -149c-42 -37 -97 -56 -165 -56c-71 0 -128 20 -172 60s-68 93 -72 158l74 15c7 -100 70 -163 170 -163c92 0 156 54 156 134c0 75 -56 120 -149 120h-68v63h63c85 0 140 45 140 114c0 75 -58 125 -146 125
c-92 0 -153 -56 -158 -155l-73 14c5 63 28 114 69 153c42 39 96 58 163 58c65 0 118 -18 158 -54s60 -83 60 -141c0 -71 -38 -124 -101 -145z" />
    <glyph glyph-name="four" unicode="4" horiz-adv-x="620" 
d="M589 226v-65h-104v-161h-77v161h-373v76l350 433h100v-444h104zM121 226h287v361z" />
    <glyph glyph-name="five" unicode="5" horiz-adv-x="563" 
d="M169 599l-10 -194h139c135 0 220 -73 220 -201c0 -65 -22 -117 -65 -157s-99 -60 -170 -60c-70 0 -128 21 -173 62s-68 97 -69 168l76 15c0 -108 68 -173 167 -173c95 0 159 57 159 144c0 85 -58 131 -151 131h-211l15 336h396v-71h-323z" />
    <glyph glyph-name="six" unicode="6" horiz-adv-x="609" 
d="M325 433c70 0 126 -21 167 -62s62 -94 62 -158c0 -65 -22 -119 -65 -162s-100 -64 -170 -64c-167 0 -264 122 -264 330c0 133 30 230 91 293c47 49 106 73 177 73c105 0 186 -54 213 -147l-76 -15c-19 61 -65 92 -140 92c-50 0 -91 -18 -123 -53
c-49 -53 -71 -131 -67 -234c33 65 111 107 195 107zM318 367c-47 0 -86 -15 -116 -46c-30 -30 -45 -67 -45 -110c0 -44 15 -80 46 -109s70 -43 115 -43s83 15 113 44c30 30 45 67 45 111s-15 80 -45 109c-29 29 -67 44 -113 44z" />
    <glyph glyph-name="seven" unicode="7" horiz-adv-x="495" 
d="M23 670h454v-54l-262 -616h-87l262 599h-367v71z" />
    <glyph glyph-name="eight" unicode="8" horiz-adv-x="578" 
d="M390 343c96 -24 145 -91 145 -166c0 -57 -23 -103 -68 -138s-104 -52 -177 -52c-74 0 -134 17 -179 52s-68 81 -68 138c0 75 50 141 145 166c-84 25 -126 87 -126 163c0 53 21 96 62 128c42 33 97 49 166 49s124 -16 165 -49c41 -32 62 -75 62 -128
c0 -75 -43 -138 -127 -163zM140 500c-1 -71 58 -118 149 -118s150 48 150 119s-62 117 -150 117s-149 -46 -149 -118zM289 55c93 0 160 50 160 126c0 75 -64 126 -160 126c-95 0 -159 -51 -159 -127c0 -77 64 -125 159 -125z" />
    <glyph glyph-name="nine" unicode="9" horiz-adv-x="609" 
d="M290 683c167 0 264 -122 264 -330c0 -133 -30 -230 -91 -293c-47 -49 -106 -73 -177 -73c-105 0 -187 55 -212 148l76 14c17 -61 64 -92 139 -92c49 0 90 18 123 53c49 53 71 131 67 234c-35 -65 -112 -107 -195 -107c-69 0 -125 21 -167 62c-41 41 -62 94 -62 159
s22 119 65 161c43 43 100 64 170 64zM292 303c47 0 85 15 115 45c31 31 46 68 46 111c0 44 -16 80 -47 109s-69 44 -114 44c-46 0 -84 -15 -114 -45c-29 -29 -44 -66 -44 -110s15 -81 44 -110c30 -29 68 -44 114 -44z" />
    <glyph glyph-name="colon" unicode=":" horiz-adv-x="204" 
d="M65 447c20 20 54 20 74 0s20 -52 0 -72c-20 -19 -54 -19 -74 0c-20 20 -20 52 0 72zM65 83c20 20 54 20 74 0s20 -52 0 -72c-20 -19 -54 -19 -74 0c-20 20 -20 52 0 72z" />
    <glyph glyph-name="semicolon" unicode=";" horiz-adv-x="231" 
d="M92 447c20 20 54 20 74 0s20 -52 0 -72c-20 -19 -54 -19 -74 0c-20 20 -20 52 0 72zM171 129l-96 -261h-60l66 263h90v-2z" />
    <glyph glyph-name="less" unicode="&#x3c;" horiz-adv-x="437" 
d="M398 200v-80l-366 159v76l366 160v-82l-274 -116z" />
    <glyph glyph-name="equal" unicode="=" horiz-adv-x="580" 
d="M510 447v-68h-440v68h440zM510 258v-68h-440v68h440z" />
    <glyph glyph-name="greater" unicode="&#x3e;" horiz-adv-x="437" 
d="M40 200l274 117l-274 116v82l367 -160v-76l-367 -159v80z" />
    <glyph glyph-name="question" unicode="?" horiz-adv-x="522" 
d="M490 474c0 -54 -19 -99 -56 -134s-85 -56 -144 -61v-77h-71v138h43c43 0 80 12 109 37s44 58 44 97c0 84 -59 140 -148 140c-91 0 -151 -62 -158 -157l-74 14c2 61 24 111 67 151c43 41 98 61 165 61s120 -19 161 -58c41 -38 62 -88 62 -151zM217 83c20 20 54 20 74 0
s20 -52 0 -72c-20 -19 -54 -19 -74 0c-20 20 -20 52 0 72z" />
    <glyph glyph-name="at" unicode="@" horiz-adv-x="959" 
d="M610 473h53v-295c0 -40 31 -66 72 -66c35 0 61 18 79 55c19 37 28 81 28 131c0 98 -34 179 -103 242s-154 95 -256 95c-105 0 -192 -34 -261 -101s-104 -152 -104 -255c0 -102 34 -187 102 -255c69 -67 152 -101 251 -101c81 0 175 26 239 70l27 -43
c-33 -24 -74 -43 -123 -56c-49 -14 -96 -21 -142 -21c-113 0 -210 38 -289 115s-118 173 -118 290s40 213 119 290c80 77 180 115 299 115c116 0 213 -36 292 -109c79 -72 119 -163 119 -274c0 -63 -14 -118 -41 -165c-27 -46 -69 -69 -125 -69c-63 0 -104 31 -115 80
c-35 -51 -86 -76 -153 -76c-57 0 -105 19 -143 57s-57 87 -57 148s19 111 57 149c39 38 86 57 142 57c65 0 115 -25 151 -75v67zM610 276c0 45 -14 82 -42 109c-28 28 -62 42 -102 42s-74 -14 -103 -42c-28 -27 -42 -64 -42 -109c0 -46 14 -83 42 -112
c29 -28 63 -42 103 -42s74 14 102 42c28 29 42 66 42 112z" />
    <glyph glyph-name="A" unicode="A" horiz-adv-x="693" 
d="M383 670l300 -670h-85l-75 170h-353l-75 -170h-85l300 670h73zM201 241h291l-145 331z" />
    <glyph glyph-name="B" unicode="B" horiz-adv-x="668" 
d="M482 344v-3c77 -9 135 -70 135 -159c0 -109 -76 -182 -208 -182h-321v670h308c124 0 199 -69 199 -176c0 -81 -52 -142 -113 -150zM389 602h-222v-232h228c75 0 125 48 125 120c0 68 -51 112 -131 112zM167 306v-238h235c83 0 135 48 135 121c0 71 -55 117 -134 117h-236
z" />
    <glyph glyph-name="C" unicode="C" horiz-adv-x="777" 
d="M403 61c117 0 208 62 243 171l76 -18c-21 -70 -60 -125 -117 -166s-125 -61 -202 -61c-97 0 -180 34 -247 101s-101 150 -101 247s34 180 101 247s150 101 247 101c77 0 144 -20 201 -61c58 -40 97 -94 118 -161l-76 -22c-33 107 -126 170 -243 170
c-75 0 -139 -26 -191 -79c-51 -53 -77 -118 -77 -195s26 -142 77 -195c52 -53 116 -79 191 -79z" />
    <glyph glyph-name="D" unicode="D" horiz-adv-x="736" 
d="M88 0v670h222c115 0 205 -31 271 -94c67 -63 100 -143 100 -241c0 -97 -33 -178 -100 -241c-66 -63 -156 -94 -271 -94h-222zM167 599v-527h142c91 0 163 25 214 74c52 49 78 112 78 189s-26 141 -78 190c-51 49 -123 74 -214 74h-142z" />
    <glyph glyph-name="E" unicode="E" horiz-adv-x="637" 
d="M167 72h410v-72h-489v670h488v-71h-409v-227h380v-71h-380v-229z" />
    <glyph glyph-name="F" unicode="F" horiz-adv-x="590" 
d="M568 599h-401v-234h366v-71h-366v-294h-79v670h480v-71z" />
    <glyph glyph-name="G" unicode="G" horiz-adv-x="795" 
d="M368 296v72h371c1 -9 1 -20 1 -34c0 -99 -32 -181 -95 -248c-63 -66 -143 -99 -241 -99s-181 34 -248 101s-101 150 -101 247s33 180 100 247s150 101 247 101c148 0 268 -73 316 -194l-71 -25c-47 95 -136 145 -245 145c-75 0 -139 -27 -190 -80s-77 -117 -77 -194
s26 -142 78 -195c53 -53 117 -79 193 -79c70 0 128 22 175 66s75 100 83 169h-296z" />
    <glyph glyph-name="H" unicode="H" horiz-adv-x="736" 
d="M569 670h79v-670h-79v302h-402v-302h-79v670h79v-297h402v297z" />
    <glyph glyph-name="I" unicode="I" horiz-adv-x="254" 
d="M167 670v-670h-79v670h79z" />
    <glyph glyph-name="J" unicode="J" horiz-adv-x="595" 
d="M437 670h79v-426c0 -75 -23 -137 -69 -185c-45 -48 -105 -72 -179 -72c-67 0 -122 20 -165 59c-43 40 -70 92 -79 157l75 17c12 -97 74 -161 169 -161c50 0 91 17 122 52s47 79 47 133v426z" />
    <glyph glyph-name="K" unicode="K" horiz-adv-x="673" 
d="M263 335l385 -335h-107l-337 297h-37v-297h-79v670h79v-302h31l329 302h99z" />
    <glyph glyph-name="L" unicode="L" horiz-adv-x="586" 
d="M167 72h384v-72h-463v670h79v-598z" />
    <glyph glyph-name="M" unicode="M" horiz-adv-x="898" 
d="M741 670h69v-670h-76v492l-259 -492h-51l-260 492v-492h-76v670h69l292 -552z" />
    <glyph glyph-name="N" unicode="N" horiz-adv-x="760" 
d="M594 670h79v-670h-68l-438 532v-532h-79v670h68l438 -538v538z" />
    <glyph glyph-name="O" unicode="O" horiz-adv-x="803" 
d="M402 683c97 0 178 -34 245 -101s101 -150 101 -247s-34 -180 -101 -247s-148 -101 -245 -101s-180 34 -247 101s-100 150 -100 247s33 180 100 247s150 101 247 101zM402 62c75 0 138 26 189 78c51 53 77 118 77 195s-26 141 -77 194s-114 80 -189 80s-139 -27 -190 -80
s-77 -117 -77 -194s26 -142 77 -195c51 -52 115 -78 190 -78z" />
    <glyph glyph-name="P" unicode="P" horiz-adv-x="651" 
d="M88 0v670h292c71 0 127 -19 169 -58c43 -38 64 -88 64 -150s-21 -112 -64 -151c-42 -38 -98 -57 -169 -57h-213v-254h-79zM167 599v-274h213c95 0 155 56 155 137s-60 137 -155 137h-213z" />
    <glyph glyph-name="Q" unicode="Q" horiz-adv-x="803" 
d="M753 -106l-61 -55l-150 177c-44 -19 -91 -29 -140 -29c-97 0 -180 34 -247 101s-100 150 -100 247s33 180 100 247s150 101 247 101s178 -34 245 -101s101 -150 101 -247c0 -112 -50 -212 -133 -276zM135 335c0 -77 26 -142 77 -195c51 -52 115 -78 190 -78
s138 26 189 78c51 53 77 118 77 195s-26 141 -77 194s-114 80 -189 80s-139 -27 -190 -80s-77 -117 -77 -194z" />
    <glyph glyph-name="R" unicode="R" horiz-adv-x="670" 
d="M386 287l259 -287h-99l-256 287h-123v-287h-79v670h310c65 0 118 -18 158 -53c41 -35 61 -81 61 -138s-20 -104 -61 -139c-40 -35 -93 -53 -158 -53h-12zM167 599v-240h231c84 0 140 48 140 120s-56 120 -140 120h-231z" />
    <glyph glyph-name="S" unicode="S" horiz-adv-x="627" 
d="M311 683c132 0 228 -72 251 -184l-79 -18c-15 81 -82 133 -174 133c-91 0 -152 -49 -152 -121c0 -57 34 -87 101 -100l146 -33c113 -24 169 -82 169 -174c0 -61 -23 -109 -68 -145s-106 -54 -181 -54c-73 0 -134 18 -185 53c-50 36 -79 85 -87 147l83 17
c15 -93 91 -147 196 -147c101 0 163 50 163 125c0 61 -32 88 -109 105l-151 33c-107 24 -161 81 -161 171c0 57 22 104 65 139c44 35 102 53 173 53z" />
    <glyph glyph-name="T" unicode="T" horiz-adv-x="627" 
d="M602 670v-71h-248v-599h-80v599h-249v71h577z" />
    <glyph glyph-name="U" unicode="U" horiz-adv-x="721" 
d="M562 670h79v-377c0 -91 -26 -165 -77 -222c-51 -56 -118 -84 -202 -84c-85 0 -153 28 -205 84c-51 57 -77 131 -77 222v377h79v-377c0 -69 18 -125 55 -167s87 -63 148 -63c60 0 108 21 145 63s55 98 55 167v377z" />
    <glyph glyph-name="V" unicode="V" horiz-adv-x="696" 
d="M592 670h86l-292 -670h-76l-292 670h86l244 -562z" />
    <glyph glyph-name="W" unicode="W" horiz-adv-x="953" 
d="M853 670h83l-206 -670h-83l-170 544l-171 -544h-82l-206 670h82l167 -549l171 549h77l171 -549z" />
    <glyph glyph-name="X" unicode="X" horiz-adv-x="632" 
d="M615 0h-97l-202 286l-201 -286h-97l239 337l-234 333h96l197 -282l197 282h97l-235 -333z" />
    <glyph glyph-name="Y" unicode="Y" horiz-adv-x="671" 
d="M653 670l-279 -435v-235h-79v234l-277 436h88l228 -357l228 357h91z" />
    <glyph glyph-name="Z" unicode="Z" horiz-adv-x="626" 
d="M170 68h405v-68h-516v50l410 552h-398v68h500v-57z" />
    <glyph glyph-name="bracketleft" unicode="[" horiz-adv-x="391" 
d="M336 674h-174v-690h174v-66h-248v823h248v-67z" />
    <glyph glyph-name="backslash" unicode="\" horiz-adv-x="368" 
d="M73 741l288 -813h-65l-288 813h65z" />
    <glyph glyph-name="bracketright" unicode="]" horiz-adv-x="391" 
d="M55 741h249v-823h-249v66h174v690h-174v67z" />
    <glyph glyph-name="asciicircum" unicode="^" horiz-adv-x="394" 
d="M197 604l-102 -148h-70l145 214h54l145 -214h-70z" />
    <glyph glyph-name="underscore" unicode="_" horiz-adv-x="505" 
d="M485 -56v-65h-465v65h465z" />
    <glyph glyph-name="grave" unicode="`" horiz-adv-x="600" 
d="M170 707h89l79 -140h-66z" />
    <glyph glyph-name="a" unicode="a" horiz-adv-x="644" 
d="M480 493h76v-493h-76v78c-46 -61 -111 -91 -196 -91c-67 0 -125 24 -174 72c-48 49 -72 111 -72 187s24 138 72 186c49 49 107 73 174 73c85 0 150 -30 196 -91v79zM296 55c49 0 91 18 128 53c37 36 56 82 56 138c0 57 -19 103 -56 138c-37 36 -79 54 -128 54
c-52 0 -96 -18 -131 -53s-53 -82 -53 -139s18 -104 53 -139s79 -52 131 -52z" />
    <glyph glyph-name="b" unicode="b" horiz-adv-x="649" 
d="M360 505c67 0 125 -24 173 -73c49 -48 73 -110 73 -186s-24 -138 -73 -187c-48 -48 -106 -72 -173 -72c-85 0 -150 30 -196 91v-78h-76v720h76v-306c46 61 111 91 196 91zM348 55c52 0 96 17 131 52s53 82 53 139s-18 104 -53 139s-79 53 -131 53c-49 0 -92 -18 -129 -54
c-37 -35 -55 -81 -55 -138c0 -56 18 -102 55 -138c37 -35 80 -53 129 -53z" />
    <glyph glyph-name="c" unicode="c" horiz-adv-x="576" 
d="M300 58c76 0 140 39 163 111l70 -19c-13 -49 -42 -89 -85 -119c-43 -29 -93 -44 -148 -44c-71 0 -132 24 -182 72s-75 110 -75 187c0 76 25 138 75 186c50 49 111 73 182 73c55 0 104 -15 147 -45c43 -29 72 -69 87 -119l-73 -22c-21 73 -85 116 -161 116
c-51 0 -95 -18 -130 -53s-53 -81 -53 -136c0 -56 17 -101 52 -136s79 -52 131 -52z" />
    <glyph glyph-name="d" unicode="d" horiz-adv-x="649" 
d="M485 720h76v-720h-76v78c-46 -61 -111 -91 -196 -91c-67 0 -125 24 -174 72c-48 49 -72 111 -72 187s24 138 72 186c49 49 107 73 174 73c85 0 150 -30 196 -91v306zM301 55c49 0 91 18 128 53c37 36 56 82 56 138c0 57 -19 103 -56 138c-37 36 -79 54 -128 54
c-53 0 -97 -18 -132 -53s-52 -82 -52 -139s18 -104 53 -139s79 -52 131 -52z" />
    <glyph glyph-name="e" unicode="e" horiz-adv-x="583" 
d="M540 259v-28h-423c3 -53 22 -96 57 -129c35 -32 74 -48 119 -48c81 0 137 35 168 106l68 -16c-39 -101 -124 -157 -236 -157c-68 0 -127 24 -176 72s-74 110 -74 186c0 77 25 139 75 187c50 49 110 73 180 73c67 0 124 -23 169 -69c46 -45 70 -104 73 -177zM298 438
c-43 0 -81 -14 -116 -41c-34 -27 -55 -63 -62 -109h343c-13 95 -81 150 -165 150z" />
    <glyph glyph-name="f" unicode="f" horiz-adv-x="356" 
d="M361 493v-64h-179v-429h-76v429h-86v64h86v73c0 104 66 171 169 171c29 0 56 -6 80 -18l-19 -62c-19 7 -37 11 -56 11c-60 0 -98 -39 -98 -102v-73h179z" />
    <glyph glyph-name="g" unicode="g" horiz-adv-x="633" 
d="M471 493h74l1 -453c-1 -71 -23 -127 -68 -168s-105 -62 -180 -62c-120 0 -200 43 -241 128l64 44c36 -69 88 -103 177 -103c104 0 173 67 173 171v60c-41 -54 -103 -81 -185 -81c-67 0 -124 23 -172 68c-47 45 -71 102 -71 171c0 68 24 124 71 169c48 45 105 68 172 68
c81 0 143 -27 185 -80v68zM297 95c47 0 88 16 122 48c35 33 52 74 52 125s-17 92 -51 123c-34 32 -75 48 -123 48c-51 0 -94 -16 -129 -47c-34 -31 -51 -73 -51 -124s17 -93 51 -125c35 -32 78 -48 129 -48z" />
    <glyph glyph-name="h" unicode="h" horiz-adv-x="625" 
d="M350 505c59 0 107 -19 143 -58c37 -39 55 -89 55 -152v-295h-76v281c0 92 -56 154 -137 154c-105 0 -171 -73 -171 -198v-237h-76v720h76v-309c42 63 104 94 186 94z" />
    <glyph glyph-name="i" unicode="i" horiz-adv-x="269" 
d="M187 642c0 -29 -22 -51 -53 -51c-29 0 -52 22 -52 51c0 28 23 51 52 51s53 -23 53 -51zM173 493v-493h-77v493h77z" />
    <glyph glyph-name="j" unicode="j" horiz-adv-x="285" 
d="M151 693c29 0 52 -23 52 -51c0 -29 -23 -51 -52 -51c-31 0 -53 22 -53 51c0 28 22 51 53 51zM-16 -163l17 66c17 -7 32 -11 47 -11c39 0 65 24 65 61v540h77v-549c0 -75 -49 -124 -124 -124c-29 0 -56 6 -82 17z" />
    <glyph glyph-name="k" unicode="k" horiz-adv-x="574" 
d="M257 254l312 -254h-106l-266 218h-33v-218h-76v720h76v-427h37l237 200h99z" />
    <glyph glyph-name="l" unicode="l" horiz-adv-x="252" 
d="M164 720v-720h-76v720h76z" />
    <glyph glyph-name="m" unicode="m" horiz-adv-x="946" 
d="M686 505c53 0 96 -17 131 -52c35 -34 53 -79 53 -134v-319h-76v306c0 77 -52 129 -127 129c-92 0 -151 -68 -151 -183v-252h-76v306c0 77 -53 129 -126 129c-92 0 -150 -68 -150 -183v-252h-76v493h76v-75c37 58 93 87 168 87c76 0 139 -37 168 -100
c41 67 103 100 186 100z" />
    <glyph glyph-name="n" unicode="n" horiz-adv-x="624" 
d="M350 505c59 0 107 -19 143 -58c37 -39 55 -89 55 -152v-295h-76v281c0 92 -56 154 -137 154c-105 0 -171 -73 -171 -198v-237h-76v493h76v-82c42 63 104 94 186 94z" />
    <glyph glyph-name="o" unicode="o" horiz-adv-x="608" 
d="M305 504c73 0 135 -24 185 -73c51 -48 76 -109 76 -184s-25 -137 -76 -186c-50 -49 -112 -73 -185 -73c-74 0 -136 24 -187 73c-50 49 -75 111 -75 186s25 136 75 184c51 49 113 73 187 73zM305 55c51 0 95 18 131 54c37 36 55 82 55 138c0 55 -18 101 -55 136
c-36 36 -80 54 -131 54c-52 0 -96 -18 -133 -54c-37 -35 -55 -81 -55 -136c0 -56 18 -102 55 -138s81 -54 133 -54z" />
    <glyph glyph-name="p" unicode="p" horiz-adv-x="649" 
d="M360 505c67 0 125 -24 173 -73c49 -48 73 -110 73 -186s-24 -138 -73 -187c-48 -48 -106 -72 -173 -72c-85 0 -150 30 -196 91v-248h-76v663h76v-79c46 61 111 91 196 91zM348 55c52 0 96 17 131 52s53 82 53 139s-18 104 -53 139s-79 53 -131 53c-49 0 -92 -18 -129 -54
c-37 -35 -55 -81 -55 -138c0 -56 18 -102 55 -138c37 -35 80 -53 129 -53z" />
    <glyph glyph-name="q" unicode="q" horiz-adv-x="649" 
d="M485 493h76v-663h-76v248c-46 -61 -111 -91 -196 -91c-67 0 -125 24 -174 72c-48 49 -72 111 -72 187s24 138 72 186c49 49 107 73 174 73c85 0 150 -30 196 -91v79zM301 55c49 0 91 18 128 53c37 36 56 82 56 138c0 57 -19 103 -56 138c-37 36 -79 54 -128 54
c-53 0 -97 -18 -132 -53s-52 -82 -52 -139s18 -104 53 -139s79 -52 131 -52z" />
    <glyph glyph-name="r" unicode="r" horiz-adv-x="412" 
d="M363 498c14 0 26 -1 35 -4l-6 -73c-6 1 -16 1 -29 1c-127 0 -198 -93 -198 -232v-190h-77v493h77v-121c46 84 112 126 198 126z" />
    <glyph glyph-name="s" unicode="s" horiz-adv-x="506" 
d="M46 133l76 17c7 -64 65 -100 145 -100c71 0 118 33 118 84c0 35 -27 59 -81 71l-113 25c-85 18 -128 60 -128 126c0 89 74 149 187 149c108 0 182 -54 201 -137l-73 -16c-11 55 -58 91 -130 91c-68 0 -109 -33 -109 -81c0 -37 24 -56 75 -68l119 -26
c85 -19 127 -62 127 -129c0 -96 -79 -152 -199 -152c-117 0 -203 53 -215 146z" />
    <glyph glyph-name="t" unicode="t" horiz-adv-x="394" 
d="M359 89l25 -63c-37 -26 -75 -39 -114 -39c-100 0 -163 60 -163 167v275h-107v64h107v157h77v-157h176v-64h-176v-270c-5 -94 90 -131 175 -70z" />
    <glyph glyph-name="u" unicode="u" horiz-adv-x="624" 
d="M460 493h77v-492h-77v80c-42 -62 -104 -93 -186 -93c-59 0 -107 19 -144 58c-36 39 -54 89 -54 152v295h77v-281c0 -92 55 -153 136 -153c105 0 171 72 171 197v237z" />
    <glyph glyph-name="v" unicode="v" horiz-adv-x="555" 
d="M454 493h83l-218 -493h-83l-218 493h83l177 -403z" />
    <glyph glyph-name="w" unicode="w" horiz-adv-x="769" 
d="M674 493h77l-166 -495h-71l-129 374l-130 -374h-71l-166 495h77l127 -382l132 382h61l132 -382z" />
    <glyph glyph-name="x" unicode="x" horiz-adv-x="578" 
d="M533 493l-188 -250l188 -243h-92l-152 197l-152 -197h-92l188 243l-188 250h92l152 -203l152 203h92z" />
    <glyph glyph-name="y" unicode="y" horiz-adv-x="563" 
d="M460 493h85l-302 -663h-85l81 177l-221 486h86l176 -394z" />
    <glyph glyph-name="z" unicode="z" horiz-adv-x="506" 
d="M135 64h331v-64h-426v52l321 377h-312v64h407v-53z" />
    <glyph glyph-name="braceleft" unicode="{" horiz-adv-x="430" 
d="M227 608v-168c0 -52 -26 -92 -67 -111c45 -19 67 -56 67 -110v-168c0 -41 26 -68 65 -68h83v-65h-92c-79 0 -130 50 -130 126v167c0 48 -28 76 -85 84l-23 5v59l23 5c52 7 85 35 85 84v167c0 75 53 126 130 126h92v-66h-83c-39 0 -65 -27 -65 -67z" />
    <glyph glyph-name="bar" unicode="|" horiz-adv-x="250" 
d="M162 741v-813h-74v813h74z" />
    <glyph glyph-name="braceright" unicode="}" horiz-adv-x="430" 
d="M362 364l23 -5v-59l-23 -5c-57 -8 -85 -36 -85 -84v-167c0 -76 -51 -126 -130 -126h-92v65h83c39 0 65 27 65 68v168c0 54 22 91 67 110c-41 19 -67 59 -67 111v168c0 40 -26 67 -65 67h-83v66h92c77 0 130 -51 130 -126v-167c0 -49 33 -77 85 -84z" />
    <glyph glyph-name="asciitilde" unicode="~" horiz-adv-x="476" 
d="M108 238h-63c0 87 51 128 111 128c27 0 56 -11 86 -32c31 -21 54 -32 71 -32c33 0 54 24 53 63h67c0 -88 -54 -130 -115 -130c-27 0 -56 11 -87 32c-30 21 -53 32 -69 32c-35 0 -57 -25 -54 -61z" />
    <glyph glyph-name="Adieresis" unicode="&#xc4;" horiz-adv-x="693" 
d="M248 755c-29 0 -52 22 -52 51c0 28 23 51 52 51s53 -23 53 -51c0 -29 -22 -51 -53 -51zM446 755c-29 0 -52 22 -52 51c0 28 23 51 52 51s53 -23 53 -51c0 -29 -22 -51 -53 -51zM383 670l300 -670h-85l-75 170h-353l-75 -170h-85l300 670h73zM201 241h291l-145 331z" />
    <glyph glyph-name="Aring" unicode="&#xc5;" horiz-adv-x="693" 
d="M244 828c0 55 46 100 103 100c29 0 53 -10 73 -30c21 -19 31 -43 31 -70c0 -56 -47 -101 -104 -101s-103 45 -103 101zM347 882c-31 0 -56 -25 -56 -54s25 -54 56 -54c32 0 56 23 56 54c0 29 -24 54 -56 54zM383 670l300 -670h-85l-75 170h-353l-75 -170h-85l300 670h73z
M201 241h291l-145 331z" />
    <glyph glyph-name="Ccedilla" unicode="&#xc7;" horiz-adv-x="777" 
d="M403 61c117 0 208 62 243 171l76 -18c-19 -67 -56 -120 -110 -161s-117 -63 -190 -66l-71 -157h-83l95 159c-89 10 -162 48 -221 113c-58 65 -87 143 -87 233c0 97 34 180 101 247s150 101 247 101c77 0 144 -20 201 -61c58 -40 97 -94 118 -161l-76 -22
c-33 107 -126 170 -243 170c-75 0 -139 -26 -191 -79c-51 -53 -77 -118 -77 -195s26 -142 77 -195c52 -53 116 -79 191 -79z" />
    <glyph glyph-name="Eacute" unicode="&#xc9;" horiz-adv-x="637" 
d="M481 885l-102 -140h-67l80 140h89zM167 72h410v-72h-489v670h488v-71h-409v-227h380v-71h-380v-229z" />
    <glyph glyph-name="Ntilde" unicode="&#xd1;" horiz-adv-x="760" 
d="M332 815c-23 0 -37 -18 -37 -45h-54c0 69 39 102 87 102c21 0 43 -8 66 -24s42 -24 56 -24c23 0 37 19 37 47h54c0 -71 -39 -104 -87 -104c-21 0 -44 8 -67 24s-41 24 -55 24zM594 670h79v-670h-68l-438 532v-532h-79v670h68l438 -538v538z" />
    <glyph glyph-name="Odieresis" unicode="&#xd6;" horiz-adv-x="803" 
d="M303 755c-29 0 -52 22 -52 51c0 28 23 51 52 51s53 -23 53 -51c0 -29 -22 -51 -53 -51zM501 755c-29 0 -52 22 -52 51c0 28 23 51 52 51s53 -23 53 -51c0 -29 -22 -51 -53 -51zM402 683c97 0 178 -34 245 -101s101 -150 101 -247s-34 -180 -101 -247s-148 -101 -245 -101
s-180 34 -247 101s-100 150 -100 247s33 180 100 247s150 101 247 101zM402 62c75 0 138 26 189 78c51 53 77 118 77 195s-26 141 -77 194s-114 80 -189 80s-139 -27 -190 -80s-77 -117 -77 -194s26 -142 77 -195c51 -52 115 -78 190 -78z" />
    <glyph glyph-name="Udieresis" unicode="&#xdc;" horiz-adv-x="721" 
d="M261 755c-29 0 -52 22 -52 51c0 28 23 51 52 51s53 -23 53 -51c0 -29 -22 -51 -53 -51zM459 755c-29 0 -52 22 -52 51c0 28 23 51 52 51s53 -23 53 -51c0 -29 -22 -51 -53 -51zM562 670h79v-377c0 -91 -26 -165 -77 -222c-51 -56 -118 -84 -202 -84
c-85 0 -153 28 -205 84c-51 57 -77 131 -77 222v377h79v-377c0 -69 18 -125 55 -167s87 -63 148 -63c60 0 108 21 145 63s55 98 55 167v377z" />
    <glyph glyph-name="aacute" unicode="&#xe1;" horiz-adv-x="644" 
d="M451 707l-102 -140h-67l80 140h89zM480 493h76v-493h-76v78c-46 -61 -111 -91 -196 -91c-67 0 -125 24 -174 72c-48 49 -72 111 -72 187s24 138 72 186c49 49 107 73 174 73c85 0 150 -30 196 -91v79zM296 55c49 0 91 18 128 53c37 36 56 82 56 138c0 57 -19 103 -56 138
c-37 36 -79 54 -128 54c-52 0 -96 -18 -131 -53s-53 -82 -53 -139s18 -104 53 -139s79 -52 131 -52z" />
    <glyph glyph-name="agrave" unicode="&#xe0;" horiz-adv-x="644" 
d="M341 567h-66l-102 140h89zM480 493h76v-493h-76v78c-46 -61 -111 -91 -196 -91c-67 0 -125 24 -174 72c-48 49 -72 111 -72 187s24 138 72 186c49 49 107 73 174 73c85 0 150 -30 196 -91v79zM296 55c49 0 91 18 128 53c37 36 56 82 56 138c0 57 -19 103 -56 138
c-37 36 -79 54 -128 54c-52 0 -96 -18 -131 -53s-53 -82 -53 -139s18 -104 53 -139s79 -52 131 -52z" />
    <glyph glyph-name="acircumflex" unicode="&#xe2;" horiz-adv-x="644" 
d="M311 652l-76 -93h-77l116 142h73l117 -142h-78zM480 493h76v-493h-76v78c-46 -61 -111 -91 -196 -91c-67 0 -125 24 -174 72c-48 49 -72 111 -72 187s24 138 72 186c49 49 107 73 174 73c85 0 150 -30 196 -91v79zM296 55c49 0 91 18 128 53c37 36 56 82 56 138
c0 57 -19 103 -56 138c-37 36 -79 54 -128 54c-52 0 -96 -18 -131 -53s-53 -82 -53 -139s18 -104 53 -139s79 -52 131 -52z" />
    <glyph glyph-name="adieresis" unicode="&#xe4;" horiz-adv-x="644" 
d="M211 577c-29 0 -52 22 -52 51c0 28 23 51 52 51s53 -23 53 -51c0 -29 -22 -51 -53 -51zM409 577c-29 0 -52 22 -52 51c0 28 23 51 52 51s53 -23 53 -51c0 -29 -22 -51 -53 -51zM480 493h76v-493h-76v78c-46 -61 -111 -91 -196 -91c-67 0 -125 24 -174 72
c-48 49 -72 111 -72 187s24 138 72 186c49 49 107 73 174 73c85 0 150 -30 196 -91v79zM296 55c49 0 91 18 128 53c37 36 56 82 56 138c0 57 -19 103 -56 138c-37 36 -79 54 -128 54c-52 0 -96 -18 -131 -53s-53 -82 -53 -139s18 -104 53 -139s79 -52 131 -52z" />
    <glyph glyph-name="atilde" unicode="&#xe3;" horiz-adv-x="644" 
d="M253 637c-23 0 -37 -18 -37 -45h-54c0 69 39 102 87 102c21 0 43 -8 66 -24s42 -24 56 -24c23 0 37 19 37 47h54c0 -71 -39 -104 -87 -104c-21 0 -44 8 -67 24s-41 24 -55 24zM480 493h76v-493h-76v78c-46 -61 -111 -91 -196 -91c-67 0 -125 24 -174 72
c-48 49 -72 111 -72 187s24 138 72 186c49 49 107 73 174 73c85 0 150 -30 196 -91v79zM296 55c49 0 91 18 128 53c37 36 56 82 56 138c0 57 -19 103 -56 138c-37 36 -79 54 -128 54c-52 0 -96 -18 -131 -53s-53 -82 -53 -139s18 -104 53 -139s79 -52 131 -52z" />
    <glyph glyph-name="aring" unicode="&#xe5;" horiz-adv-x="644" 
d="M207 651c0 55 46 100 103 100c29 0 53 -10 73 -30c21 -19 31 -43 31 -70c0 -56 -47 -101 -104 -101s-103 45 -103 101zM310 705c-31 0 -56 -25 -56 -54s25 -54 56 -54c32 0 56 23 56 54c0 29 -24 54 -56 54zM480 493h76v-493h-76v78c-46 -61 -111 -91 -196 -91
c-67 0 -125 24 -174 72c-48 49 -72 111 -72 187s24 138 72 186c49 49 107 73 174 73c85 0 150 -30 196 -91v79zM296 55c49 0 91 18 128 53c37 36 56 82 56 138c0 57 -19 103 -56 138c-37 36 -79 54 -128 54c-52 0 -96 -18 -131 -53s-53 -82 -53 -139s18 -104 53 -139
s79 -52 131 -52z" />
    <glyph glyph-name="ccedilla" unicode="&#xe7;" horiz-adv-x="576" 
d="M300 58c76 0 140 39 163 111l70 -19c-24 -91 -106 -151 -205 -162l-72 -158h-83l94 159c-64 8 -117 35 -160 81c-43 47 -64 105 -64 176c0 76 25 138 75 186c50 49 111 73 182 73c55 0 104 -15 147 -45c43 -29 72 -69 87 -119l-73 -22c-21 73 -85 116 -161 116
c-51 0 -95 -18 -130 -53s-53 -81 -53 -136c0 -56 17 -101 52 -136s79 -52 131 -52z" />
    <glyph glyph-name="eacute" unicode="&#xe9;" horiz-adv-x="583" 
d="M439 707l-102 -140h-67l80 140h89zM540 259v-28h-423c3 -53 22 -96 57 -129c35 -32 74 -48 119 -48c81 0 137 35 168 106l68 -16c-39 -101 -124 -157 -236 -157c-68 0 -127 24 -176 72s-74 110 -74 186c0 77 25 139 75 187c50 49 110 73 180 73c67 0 124 -23 169 -69
c46 -45 70 -104 73 -177zM298 438c-43 0 -81 -14 -116 -41c-34 -27 -55 -63 -62 -109h343c-13 95 -81 150 -165 150z" />
    <glyph glyph-name="egrave" unicode="&#xe8;" horiz-adv-x="583" 
d="M329 567h-66l-102 140h89zM540 259v-28h-423c3 -53 22 -96 57 -129c35 -32 74 -48 119 -48c81 0 137 35 168 106l68 -16c-39 -101 -124 -157 -236 -157c-68 0 -127 24 -176 72s-74 110 -74 186c0 77 25 139 75 187c50 49 110 73 180 73c67 0 124 -23 169 -69
c46 -45 70 -104 73 -177zM298 438c-43 0 -81 -14 -116 -41c-34 -27 -55 -63 -62 -109h343c-13 95 -81 150 -165 150z" />
    <glyph glyph-name="ecircumflex" unicode="&#xea;" horiz-adv-x="583" 
d="M299 652l-76 -93h-77l116 142h73l117 -142h-78zM540 259v-28h-423c3 -53 22 -96 57 -129c35 -32 74 -48 119 -48c81 0 137 35 168 106l68 -16c-39 -101 -124 -157 -236 -157c-68 0 -127 24 -176 72s-74 110 -74 186c0 77 25 139 75 187c50 49 110 73 180 73
c67 0 124 -23 169 -69c46 -45 70 -104 73 -177zM298 438c-43 0 -81 -14 -116 -41c-34 -27 -55 -63 -62 -109h343c-13 95 -81 150 -165 150z" />
    <glyph glyph-name="edieresis" unicode="&#xeb;" horiz-adv-x="583" 
d="M199 577c-29 0 -52 22 -52 51c0 28 23 51 52 51s53 -23 53 -51c0 -29 -22 -51 -53 -51zM397 577c-29 0 -52 22 -52 51c0 28 23 51 52 51s53 -23 53 -51c0 -29 -22 -51 -53 -51zM540 259v-28h-423c3 -53 22 -96 57 -129c35 -32 74 -48 119 -48c81 0 137 35 168 106l68 -16
c-39 -101 -124 -157 -236 -157c-68 0 -127 24 -176 72s-74 110 -74 186c0 77 25 139 75 187c50 49 110 73 180 73c67 0 124 -23 169 -69c46 -45 70 -104 73 -177zM298 438c-43 0 -81 -14 -116 -41c-34 -27 -55 -63 -62 -109h343c-13 95 -81 150 -165 150z" />
    <glyph glyph-name="iacute" unicode="&#xed;" horiz-adv-x="279" 
d="M280 707l-102 -140h-67l80 140h89zM178 493v-493h-77v493h77z" />
    <glyph glyph-name="igrave" unicode="&#xec;" horiz-adv-x="279" 
d="M3 707h89l79 -140h-66zM178 493v-493h-77v493h77z" />
    <glyph glyph-name="icircumflex" unicode="&#xee;" horiz-adv-x="279" 
d="M176 701l117 -142h-78l-75 93l-76 -93h-78l117 142h73zM101 0v493h77v-493h-77z" />
    <glyph glyph-name="idieresis" unicode="&#xef;" horiz-adv-x="279" 
d="M93 628c0 -29 -22 -51 -53 -51c-29 0 -52 22 -52 51c0 28 23 51 52 51s53 -23 53 -51zM291 628c0 -29 -22 -51 -53 -51c-29 0 -52 22 -52 51c0 28 23 51 52 51s53 -23 53 -51zM178 493v-493h-77v493h77z" />
    <glyph glyph-name="ntilde" unicode="&#xf1;" horiz-adv-x="624" 
d="M265 637c-23 0 -37 -18 -37 -45h-54c0 69 39 102 87 102c21 0 43 -8 66 -24s42 -24 56 -24c23 0 37 19 37 47h54c0 -71 -39 -104 -87 -104c-21 0 -44 8 -67 24s-41 24 -55 24zM350 505c59 0 107 -19 143 -58c37 -39 55 -89 55 -152v-295h-76v281c0 92 -56 154 -137 154
c-105 0 -171 -73 -171 -198v-237h-76v493h76v-82c42 63 104 94 186 94z" />
    <glyph glyph-name="oacute" unicode="&#xf3;" horiz-adv-x="608" 
d="M446 712l-102 -140h-67l80 140h89zM305 504c73 0 135 -24 185 -73c51 -48 76 -109 76 -184s-25 -137 -76 -186c-50 -49 -112 -73 -185 -73c-74 0 -136 24 -187 73c-50 49 -75 111 -75 186s25 136 75 184c51 49 113 73 187 73zM305 55c51 0 95 18 131 54
c37 36 55 82 55 138c0 55 -18 101 -55 136c-36 36 -80 54 -131 54c-52 0 -96 -18 -133 -54c-37 -35 -55 -81 -55 -136c0 -56 18 -102 55 -138s81 -54 133 -54z" />
    <glyph glyph-name="ograve" unicode="&#xf2;" horiz-adv-x="608" 
d="M336 572h-66l-102 140h89zM305 504c73 0 135 -24 185 -73c51 -48 76 -109 76 -184s-25 -137 -76 -186c-50 -49 -112 -73 -185 -73c-74 0 -136 24 -187 73c-50 49 -75 111 -75 186s25 136 75 184c51 49 113 73 187 73zM305 55c51 0 95 18 131 54c37 36 55 82 55 138
c0 55 -18 101 -55 136c-36 36 -80 54 -131 54c-52 0 -96 -18 -133 -54c-37 -35 -55 -81 -55 -136c0 -56 18 -102 55 -138s81 -54 133 -54z" />
    <glyph glyph-name="ocircumflex" unicode="&#xf4;" horiz-adv-x="608" 
d="M306 657l-76 -93h-77l116 142h73l117 -142h-78zM305 504c73 0 135 -24 185 -73c51 -48 76 -109 76 -184s-25 -137 -76 -186c-50 -49 -112 -73 -185 -73c-74 0 -136 24 -187 73c-50 49 -75 111 -75 186s25 136 75 184c51 49 113 73 187 73zM305 55c51 0 95 18 131 54
c37 36 55 82 55 138c0 55 -18 101 -55 136c-36 36 -80 54 -131 54c-52 0 -96 -18 -133 -54c-37 -35 -55 -81 -55 -136c0 -56 18 -102 55 -138s81 -54 133 -54z" />
    <glyph glyph-name="odieresis" unicode="&#xf6;" horiz-adv-x="608" 
d="M206 582c-29 0 -52 22 -52 51c0 28 23 51 52 51s53 -23 53 -51c0 -29 -22 -51 -53 -51zM404 582c-29 0 -52 22 -52 51c0 28 23 51 52 51s53 -23 53 -51c0 -29 -22 -51 -53 -51zM305 504c73 0 135 -24 185 -73c51 -48 76 -109 76 -184s-25 -137 -76 -186
c-50 -49 -112 -73 -185 -73c-74 0 -136 24 -187 73c-50 49 -75 111 -75 186s25 136 75 184c51 49 113 73 187 73zM305 55c51 0 95 18 131 54c37 36 55 82 55 138c0 55 -18 101 -55 136c-36 36 -80 54 -131 54c-52 0 -96 -18 -133 -54c-37 -35 -55 -81 -55 -136
c0 -56 18 -102 55 -138s81 -54 133 -54z" />
    <glyph glyph-name="otilde" unicode="&#xf5;" horiz-adv-x="608" 
d="M248 643c-23 0 -37 -18 -37 -45h-54c0 69 39 102 87 102c21 0 43 -8 66 -24s42 -24 56 -24c23 0 37 19 37 47h54c0 -71 -39 -104 -87 -104c-21 0 -44 8 -67 24s-41 24 -55 24zM305 504c73 0 135 -24 185 -73c51 -48 76 -109 76 -184s-25 -137 -76 -186
c-50 -49 -112 -73 -185 -73c-74 0 -136 24 -187 73c-50 49 -75 111 -75 186s25 136 75 184c51 49 113 73 187 73zM305 55c51 0 95 18 131 54c37 36 55 82 55 138c0 55 -18 101 -55 136c-36 36 -80 54 -131 54c-52 0 -96 -18 -133 -54c-37 -35 -55 -81 -55 -136
c0 -56 18 -102 55 -138s81 -54 133 -54z" />
    <glyph glyph-name="uacute" unicode="&#xfa;" horiz-adv-x="624" 
d="M448 707l-102 -140h-67l80 140h89zM460 493h77v-492h-77v80c-42 -62 -104 -93 -186 -93c-59 0 -107 19 -144 58c-36 39 -54 89 -54 152v295h77v-281c0 -92 55 -153 136 -153c105 0 171 72 171 197v237z" />
    <glyph glyph-name="ugrave" unicode="&#xf9;" horiz-adv-x="624" 
d="M339 567h-66l-102 140h89zM460 493h77v-492h-77v80c-42 -62 -104 -93 -186 -93c-59 0 -107 19 -144 58c-36 39 -54 89 -54 152v295h77v-281c0 -92 55 -153 136 -153c105 0 171 72 171 197v237z" />
    <glyph glyph-name="ucircumflex" unicode="&#xfb;" horiz-adv-x="624" 
d="M308 652l-76 -93h-77l116 142h73l117 -142h-78zM460 493h77v-492h-77v80c-42 -62 -104 -93 -186 -93c-59 0 -107 19 -144 58c-36 39 -54 89 -54 152v295h77v-281c0 -92 55 -153 136 -153c105 0 171 72 171 197v237z" />
    <glyph glyph-name="udieresis" unicode="&#xfc;" horiz-adv-x="624" 
d="M208 577c-29 0 -52 22 -52 51c0 28 23 51 52 51s53 -23 53 -51c0 -29 -22 -51 -53 -51zM406 577c-29 0 -52 22 -52 51c0 28 23 51 52 51s53 -23 53 -51c0 -29 -22 -51 -53 -51zM460 493h77v-492h-77v80c-42 -62 -104 -93 -186 -93c-59 0 -107 19 -144 58
c-36 39 -54 89 -54 152v295h77v-281c0 -92 55 -153 136 -153c105 0 171 72 171 197v237z" />
    <glyph glyph-name="dagger" unicode="&#x2020;" horiz-adv-x="358" 
d="M207 650h111v-52h-111v-241h-56v241h-111v52h111v90h56v-90z" />
    <glyph glyph-name="degree" unicode="&#xb0;" horiz-adv-x="407" 
d="M340 550c0 -39 -13 -70 -40 -95c-27 -24 -59 -36 -96 -36s-69 12 -96 36c-27 25 -40 56 -40 95s13 71 39 96c27 25 59 37 97 37s70 -12 96 -37c27 -25 40 -57 40 -96zM147 492c33 -31 81 -31 113 0c33 31 33 87 0 118c-32 31 -80 31 -113 0c-32 -31 -32 -87 0 -118z" />
    <glyph glyph-name="cent" unicode="&#xa2;" horiz-adv-x="576" 
d="M325 433v-374c65 8 118 47 138 110l70 -19c-24 -91 -106 -151 -206 -162v-118h-66v120c-63 9 -115 36 -156 82c-41 47 -62 105 -62 174c0 68 21 125 62 172c42 47 94 75 156 84v128h66v-126c99 -11 180 -72 207 -163l-73 -22c-19 65 -71 106 -136 114zM117 246
c0 -99 60 -169 147 -185v371c-85 -16 -147 -89 -147 -186z" />
    <glyph glyph-name="sterling" unicode="&#xa3;" horiz-adv-x="643" 
d="M219 72h376v-72h-540v49l85 17v206h-85v71h85v118c0 66 21 119 62 160c42 41 97 62 164 62s120 -20 160 -61c41 -41 62 -94 65 -160l-74 -15c-5 101 -62 160 -151 160c-88 0 -147 -58 -147 -146v-118h234v-71h-234v-200z" />
    <glyph glyph-name="section" unicode="&#xa7;" horiz-adv-x="532" 
d="M492 236c0 -63 -28 -107 -84 -133c24 -26 36 -57 36 -93c0 -93 -76 -151 -185 -151c-129 0 -204 69 -204 176l67 14c3 -84 50 -130 134 -130c67 0 113 38 113 93c0 35 -23 63 -68 84l-148 65c-85 36 -120 77 -120 144c0 61 28 106 85 133c-25 25 -37 56 -37 93
c0 93 76 152 185 152c120 0 194 -70 197 -173l-68 -14c-1 80 -49 125 -125 125c-68 0 -114 -37 -114 -92c0 -35 23 -62 68 -83l148 -66c85 -36 120 -77 120 -144zM185 219l150 -68l20 -10c44 21 66 51 66 90c0 37 -20 63 -81 92l-149 67l-22 11c-43 -19 -65 -49 -65 -91
c0 -37 20 -63 81 -91z" />
    <glyph glyph-name="bullet" unicode="&#x2022;" horiz-adv-x="398" 
d="M348 263c0 -41 -14 -75 -43 -102c-28 -27 -63 -41 -106 -41s-78 14 -107 41c-28 27 -42 61 -42 102c0 39 14 73 43 101c29 29 64 43 106 43s77 -14 106 -43c29 -28 43 -62 43 -101z" />
    <glyph glyph-name="paragraph" unicode="&#xb6;" horiz-adv-x="561" 
d="M340 670v-670h-61v299h-50c-61 0 -111 17 -150 51c-39 35 -59 81 -59 138c0 117 75 182 195 182h125zM473 670v-670h-61v670h61z" />
    <glyph glyph-name="germandbls" unicode="&#xdf;" horiz-adv-x="656" 
d="M461 385c93 -21 150 -86 150 -186c0 -59 -20 -108 -59 -148c-39 -39 -91 -59 -157 -59c-57 0 -111 10 -162 31l14 64c48 -20 96 -30 143 -30s85 14 113 41c28 28 42 62 42 101c0 93 -75 148 -195 148h-47v64h37c92 0 153 50 153 125c0 80 -62 134 -154 134
c-105 0 -175 -72 -175 -187v-483h-76v478c0 78 23 141 69 188s107 71 182 71c67 0 122 -18 164 -55c42 -36 63 -82 63 -137c0 -76 -38 -136 -105 -160z" />
    <glyph glyph-name="registered" unicode="&#xae;" horiz-adv-x="500" 
d="M450 482c0 -57 -19 -105 -58 -143s-86 -57 -142 -57s-103 19 -142 57s-58 86 -58 143c0 58 19 106 58 144s86 57 142 57s103 -19 142 -57s58 -86 58 -144zM250 310c48 0 89 16 122 49s50 74 50 123c0 50 -17 91 -50 124s-74 50 -122 50c-47 0 -88 -17 -121 -50
s-50 -74 -50 -124c0 -49 17 -90 50 -123s74 -49 121 -49zM336 521c0 -31 -22 -54 -55 -61l66 -67h-36l-63 65h-41v-65h-28v189h83c45 0 74 -24 74 -61zM207 557v-73h54c28 0 47 14 47 37c0 21 -18 36 -46 36h-55z" />
    <glyph glyph-name="copyright" unicode="&#xa9;" horiz-adv-x="775" 
d="M733 333c0 -99 -34 -182 -101 -248c-67 -65 -149 -98 -246 -98s-179 33 -246 98c-67 66 -101 149 -101 248c0 101 34 184 101 250c67 67 149 100 246 100s179 -33 246 -100c67 -66 101 -149 101 -250zM80 334c0 -88 30 -161 89 -220c60 -59 132 -88 217 -88
s157 29 216 88c60 59 90 132 90 220c0 89 -30 163 -90 222c-59 59 -131 89 -216 89s-157 -30 -217 -89c-59 -59 -89 -133 -89 -222zM392 523c93 0 165 -56 177 -133l-53 -11c-13 55 -65 92 -124 92c-37 0 -69 -13 -94 -39c-25 -25 -38 -58 -38 -97c0 -40 13 -73 38 -99
c25 -25 57 -38 94 -38c60 0 112 38 124 95l53 -10c-13 -81 -84 -137 -177 -137c-53 0 -97 18 -134 53s-55 81 -55 136s18 100 55 135s81 53 134 53z" />
    <glyph glyph-name="trademark" unicode="&#x2122;" horiz-adv-x="650" 
d="M270 670v-40h-93v-226h-48v226h-91v40h232zM603 670v-266h-45v179l-86 -177h-30l-86 177v-179h-45v266h51l95 -190l96 190h50z" />
    <glyph glyph-name="acute" unicode="&#xb4;" horiz-adv-x="600" 
d="M416 707l-102 -140h-67l80 140h89z" />
    <glyph glyph-name="dieresis" unicode="&#xa8;" horiz-adv-x="600" 
d="M254 628c0 -29 -22 -51 -53 -51c-29 0 -52 22 -52 51c0 28 23 51 52 51s53 -23 53 -51zM452 628c0 -29 -22 -51 -53 -51c-29 0 -52 22 -52 51c0 28 23 51 52 51s53 -23 53 -51z" />
    <glyph glyph-name="notequal" unicode="&#x2260;" horiz-adv-x="580" 
d="M510 379h-147l-74 -121h221v-68h-262l-54 -89h-71l54 89h-107v68h148l73 121h-221v68h262l55 91h72l-55 -91h106v-68z" />
    <glyph glyph-name="AE" unicode="&#xc6;" horiz-adv-x="1040" 
d="M590 72h410v-72h-489v155h-300l-109 -155h-92l480 670h509v-71h-409v-227h380v-71h-380v-229zM261 226h250v355z" />
    <glyph glyph-name="Oslash" unicode="&#xd8;" horiz-adv-x="803" 
d="M687 661l46 -46l-61 -61c51 -62 76 -135 76 -219c0 -97 -34 -180 -101 -247s-148 -101 -245 -101c-83 0 -157 26 -220 77l-65 -65l-46 46l65 65c-54 63 -81 138 -81 225c0 97 33 180 100 247s150 101 247 101c86 0 161 -27 225 -82zM135 335c0 -64 19 -121 56 -170
l382 382c-49 41 -106 62 -171 62c-75 0 -139 -27 -190 -80s-77 -117 -77 -194zM402 62c75 0 138 26 189 78c51 53 77 118 77 195c0 62 -17 117 -51 164l-380 -380c47 -38 102 -57 165 -57z" />
    <glyph glyph-name="plusminus" unicode="&#xb1;" horiz-adv-x="580" 
d="M324 394h186v-68h-186v-168h-68v168h-186v68h186v178h68v-178zM70 0v68h440v-68h-440z" />
    <glyph glyph-name="lessequal" unicode="&#x2264;" horiz-adv-x="422" 
d="M383 269v-77l-351 134v70l351 134v-79l-263 -90zM34 157h349v-68h-349v68z" />
    <glyph glyph-name="greaterequal" unicode="&#x2265;" horiz-adv-x="422" 
d="M40 269l263 92l-263 90v79l352 -134v-70l-352 -134v77zM390 157v-68h-350v68h350z" />
    <glyph glyph-name="yen" unicode="&#xa5;" horiz-adv-x="666" 
d="M636 670l-232 -357h161v-60h-194v-75h194v-60h-194v-118h-79v118h-190v60h190v75h-190v60h157l-229 357h88l214 -338l213 338h91z" />
    <glyph glyph-name="ordfeminine" unicode="&#xaa;" horiz-adv-x="387" 
d="M202 673c84 0 138 -44 138 -125v-205h-58v39c-27 -31 -65 -47 -116 -47c-69 0 -115 40 -115 100s53 98 140 98h91v18c0 47 -30 76 -77 76c-45 0 -73 -23 -84 -68l-52 12c13 67 64 102 133 102zM178 379c61 0 104 38 104 90v25h-86c-55 0 -86 -23 -86 -59
c0 -35 27 -56 68 -56z" />
    <glyph glyph-name="ordmasculine" unicode="&#xba;" horiz-adv-x="439" 
d="M219 673c48 0 89 -16 122 -48c34 -31 51 -72 51 -121s-17 -90 -51 -122c-33 -31 -74 -47 -122 -47c-47 0 -87 16 -121 47c-34 32 -51 73 -51 122s17 90 51 121c34 32 74 48 121 48zM219 388c63 0 115 49 115 116s-52 116 -115 116c-31 0 -57 -11 -80 -33
c-22 -22 -33 -50 -33 -83s11 -61 33 -83c23 -22 49 -33 80 -33z" />
    <glyph glyph-name="ae" unicode="&#xe6;" horiz-adv-x="927" 
d="M885 249v-27h-405c9 -104 75 -168 171 -168c60 0 127 37 154 106l69 -16c-13 -46 -40 -84 -83 -113s-90 -44 -141 -44c-95 0 -165 40 -209 120c-37 -73 -117 -120 -212 -120c-119 0 -186 62 -186 149c0 89 72 143 191 143h175v41c0 72 -53 120 -130 120
c-79 0 -128 -38 -139 -101l-70 15c11 91 90 151 210 151c81 0 148 -35 177 -96c46 64 110 96 191 96c67 0 123 -24 168 -72s68 -109 69 -184zM479 279h328c-11 99 -73 161 -156 161c-45 0 -83 -15 -116 -44s-51 -68 -56 -117zM409 212v10h-175c-73 0 -118 -31 -118 -83
c0 -53 45 -89 121 -89c47 0 88 15 121 46c34 31 51 69 51 116z" />
    <glyph glyph-name="oslash" unicode="&#xf8;" horiz-adv-x="606" 
d="M523 505l39 -39l-54 -54c39 -46 58 -101 58 -165c0 -75 -25 -137 -76 -186c-50 -49 -112 -73 -185 -73c-63 0 -119 18 -166 55l-55 -55l-39 39l55 55c-38 47 -57 102 -57 165c0 75 25 136 75 184c51 49 113 73 187 73c63 0 118 -18 163 -54zM117 247
c0 -43 11 -81 34 -114l267 267c-33 25 -70 37 -113 37c-52 0 -96 -18 -133 -54c-37 -35 -55 -81 -55 -136zM305 55c51 0 95 18 131 54c37 36 55 82 55 138c0 43 -11 80 -34 113l-267 -266c33 -26 72 -39 115 -39z" />
    <glyph glyph-name="questiondown" unicode="&#xbf;" horiz-adv-x="522" 
d="M217 454c-6 65 110 65 104 0c0 -28 -23 -50 -52 -50s-52 22 -52 50zM414 45l73 -14c-2 -61 -24 -112 -67 -152c-43 -41 -98 -61 -165 -61s-120 19 -161 58c-41 38 -61 88 -61 151c0 54 18 99 55 134s85 56 144 61v77h72v-137h-44c-88 0 -153 -55 -153 -135
c0 -84 60 -140 148 -140c92 0 152 62 159 158z" />
    <glyph glyph-name="exclamdown" unicode="&#xa1;" horiz-adv-x="269" 
d="M83 454c-6 65 110 65 104 0c0 -28 -23 -50 -52 -50s-52 22 -52 50zM94 -169v31l2 440h78l3 -440v-31h-83z" />
    <glyph glyph-name="florin" unicode="&#x192;" horiz-adv-x="552" 
d="M417 614c-63 0 -108 -42 -120 -110l-25 -139h188v-64h-200l-59 -327c-16 -85 -78 -139 -159 -139c-31 0 -59 8 -82 25l27 61c17 -9 36 -14 56 -14c41 0 75 27 82 67l59 327h-120v64h132l25 139c19 109 94 178 201 178c44 0 81 -13 112 -38l-29 -61c-24 21 -53 31 -88 31z
" />
    <glyph glyph-name="approxequal" unicode="&#x2248;" horiz-adv-x="580" 
d="M510 433v-68c-26 -14 -59 -21 -98 -21c-34 0 -73 9 -117 27c-43 18 -81 27 -112 27c-51 0 -88 -11 -113 -33v66c27 21 64 32 113 32c33 0 71 -9 116 -28c45 -18 83 -27 114 -27c40 0 72 8 97 25zM510 274v-67c-27 -15 -60 -22 -98 -22c-34 0 -73 9 -117 27
c-43 19 -81 28 -112 28c-49 0 -87 -11 -113 -33v66c27 21 64 32 113 32c33 0 71 -9 116 -28c45 -18 83 -27 114 -27c40 0 72 8 97 24z" />
    <glyph glyph-name="guillemotleft" unicode="&#xab;" horiz-adv-x="415" 
d="M147 84l-122 178l122 178h78l-122 -178l122 -178h-78zM312 84l-122 178l122 178h78l-122 -178l122 -178h-78z" />
    <glyph glyph-name="guillemotright" unicode="&#xbb;" horiz-adv-x="415" 
d="M103 84h-78l122 178l-122 178h78l122 -178zM268 84h-78l122 178l-122 178h78l122 -178z" />
    <glyph glyph-name="ellipsis" unicode="&#x2026;" horiz-adv-x="644" 
d="M65 83c20 20 54 20 74 0s20 -52 0 -72c-20 -19 -54 -19 -74 0c-20 20 -20 52 0 72zM285 83c20 20 54 20 74 0s20 -52 0 -72c-20 -19 -54 -19 -74 0c-20 20 -20 52 0 72zM505 83c20 20 54 20 74 0s20 -52 0 -72c-20 -19 -54 -19 -74 0c-20 20 -20 52 0 72z" />
    <glyph glyph-name="Agrave" unicode="&#xc0;" horiz-adv-x="693" 
d="M378 745h-66l-102 140h89zM383 670l300 -670h-85l-75 170h-353l-75 -170h-85l300 670h73zM201 241h291l-145 331z" />
    <glyph glyph-name="Atilde" unicode="&#xc3;" horiz-adv-x="693" 
d="M290 815c-23 0 -37 -18 -37 -45h-54c0 69 39 102 87 102c21 0 43 -8 66 -24s42 -24 56 -24c23 0 37 19 37 47h54c0 -71 -39 -104 -87 -104c-21 0 -44 8 -67 24s-41 24 -55 24zM383 670l300 -670h-85l-75 170h-353l-75 -170h-85l300 670h73zM201 241h291l-145 331z" />
    <glyph glyph-name="Otilde" unicode="&#xd5;" horiz-adv-x="803" 
d="M345 815c-23 0 -37 -18 -37 -45h-54c0 69 39 102 87 102c21 0 43 -8 66 -24s42 -24 56 -24c23 0 37 19 37 47h54c0 -71 -39 -104 -87 -104c-21 0 -44 8 -67 24s-41 24 -55 24zM402 683c97 0 178 -34 245 -101s101 -150 101 -247s-34 -180 -101 -247s-148 -101 -245 -101
s-180 34 -247 101s-100 150 -100 247s33 180 100 247s150 101 247 101zM402 62c75 0 138 26 189 78c51 53 77 118 77 195s-26 141 -77 194s-114 80 -189 80s-139 -27 -190 -80s-77 -117 -77 -194s26 -142 77 -195c51 -52 115 -78 190 -78z" />
    <glyph glyph-name="OE" unicode="&#x152;" horiz-adv-x="1046" 
d="M576 72h410v-72h-536c-121 0 -217 31 -288 93c-71 63 -107 143 -107 242s36 179 107 241c71 63 167 94 288 94h535v-71h-409v-227h380v-71h-380v-229zM450 72h47v527h-47c-99 0 -176 -24 -232 -73c-55 -48 -83 -112 -83 -191s28 -143 83 -191c56 -48 133 -72 232 -72z
" />
    <glyph glyph-name="oe" unicode="&#x153;" horiz-adv-x="1032" 
d="M989 259v-28h-423c3 -53 22 -96 57 -129c35 -32 74 -48 119 -48c81 0 137 35 168 106l68 -16c-39 -101 -124 -157 -236 -157c-88 0 -169 45 -214 121c-47 -75 -128 -120 -223 -120c-74 0 -136 24 -187 73c-50 49 -75 111 -75 186s25 136 75 184c51 49 113 73 187 73
c95 0 177 -45 224 -120c45 76 127 121 218 121c67 0 124 -23 169 -69c46 -45 70 -104 73 -177zM747 438c-43 0 -81 -14 -116 -41c-34 -27 -55 -63 -62 -109h343c-13 95 -81 150 -165 150zM305 55c51 0 95 18 131 54c37 36 55 82 55 138c0 55 -18 101 -55 136
c-36 36 -80 54 -131 54c-52 0 -96 -18 -133 -54c-37 -35 -55 -81 -55 -136c0 -56 18 -102 55 -138s81 -54 133 -54z" />
    <glyph glyph-name="endash" unicode="&#x2013;" horiz-adv-x="620" 
d="M560 285v-60h-500v60h500z" />
    <glyph glyph-name="emdash" unicode="&#x2014;" horiz-adv-x="1040" 
d="M980 285v-60h-920v60h920z" />
    <glyph glyph-name="quotedblleft" unicode="&#x201c;" horiz-adv-x="415" 
d="M47 410l96 260h60l-66 -263h-90v3zM212 410l96 260h60l-66 -263h-90v3z" />
    <glyph glyph-name="quotedblright" unicode="&#x201d;" horiz-adv-x="415" 
d="M204 668l-97 -261h-59l66 263h90v-2zM369 668l-97 -261h-59l66 263h90v-2z" />
    <glyph glyph-name="quoteleft" unicode="&#x2018;" horiz-adv-x="250" 
d="M47 410l96 260h60l-66 -263h-90v3z" />
    <glyph glyph-name="quoteright" unicode="&#x2019;" horiz-adv-x="250" 
d="M204 668l-97 -261h-59l66 263h90v-2z" />
    <glyph glyph-name="divide" unicode="&#xf7;" horiz-adv-x="580" 
d="M340 485c6 -65 -110 -65 -104 0c0 28 23 50 52 50s52 -22 52 -50zM510 339v-68h-440v68h440zM340 126c6 -65 -110 -65 -104 0c0 28 23 50 52 50s52 -22 52 -50z" />
    <glyph glyph-name="ydieresis" unicode="&#xff;" horiz-adv-x="563" 
d="M182 578c-29 0 -52 22 -52 51c0 28 23 51 52 51s53 -23 53 -51c0 -29 -22 -51 -53 -51zM380 578c-29 0 -52 22 -52 51c0 28 23 51 52 51s53 -23 53 -51c0 -29 -22 -51 -53 -51zM460 493h85l-302 -663h-85l81 177l-221 486h86l176 -394z" />
    <glyph glyph-name="Ydieresis" unicode="&#x178;" horiz-adv-x="671" 
d="M236 755c-29 0 -52 22 -52 51c0 28 23 51 52 51s53 -23 53 -51c0 -29 -22 -51 -53 -51zM434 755c-29 0 -52 22 -52 51c0 28 23 51 52 51s53 -23 53 -51c0 -29 -22 -51 -53 -51zM653 670l-279 -435v-235h-79v234l-277 436h88l228 -357l228 357h91z" />
    <glyph glyph-name="fraction" unicode="&#x2044;" horiz-adv-x="216" 
d="M-120 0h-55l501 670h55z" />
    <glyph glyph-name="Euro" unicode="&#x20ac;" horiz-adv-x="792" 
d="M660 235l77 -18c-33 -140 -133 -229 -265 -229c-136 0 -236 93 -267 242h-117v58h108c-1 20 -2 36 -2 47c0 9 1 23 2 42h-108v58h115c15 76 47 136 94 181c48 45 106 67 175 67c132 0 232 -90 264 -231l-79 -17c-24 112 -94 175 -185 175c-93 0 -162 -67 -187 -175h256
l-15 -58h-250c-1 -19 -2 -33 -2 -42c0 -11 1 -27 2 -47h227l-14 -58h-203c28 -104 95 -168 186 -168c89 0 159 61 188 173z" />
    <glyph glyph-name="guilsinglleft" unicode="&#x2039;" horiz-adv-x="250" 
d="M147 84l-122 178l122 178h78l-122 -178l122 -178h-78z" />
    <glyph glyph-name="guilsinglright" unicode="&#x203a;" horiz-adv-x="250" 
d="M103 84h-78l122 178l-122 178h78l122 -178z" />
    <glyph glyph-name="daggerdbl" unicode="&#x2021;" horiz-adv-x="358" 
d="M318 598h-111v-99h111v-52h-111v-90h-56v90h-111v52h111v99h-111v52h111v90h56v-90h111v-52z" />
    <glyph glyph-name="middot" unicode="&#xb7;" horiz-adv-x="204" 
d="M65 299c20 20 54 20 74 0s20 -52 0 -72c-20 -19 -54 -19 -74 0c-20 20 -20 52 0 72z" />
    <glyph glyph-name="quotesinglbase" unicode="&#x201a;" horiz-adv-x="250" 
d="M204 129l-97 -261h-59l66 263h90v-2z" />
    <glyph glyph-name="quotedblbase" unicode="&#x201e;" horiz-adv-x="415" 
d="M204 129l-97 -261h-59l66 263h90v-2zM369 129l-97 -261h-59l66 263h90v-2z" />
    <glyph glyph-name="perthousand" unicode="&#x2030;" horiz-adv-x="1237" 
d="M379 523c0 -46 -16 -84 -49 -114c-32 -29 -70 -44 -115 -44s-83 15 -116 44c-33 30 -49 68 -49 114c0 48 16 87 48 116c33 29 72 44 117 44s84 -15 116 -44s48 -68 48 -116zM196 0h-55l501 670h55zM215 629c-57 0 -107 -42 -107 -105s50 -105 107 -105
c56 0 105 42 105 105s-49 105 -105 105zM797 146c0 -46 -16 -84 -49 -114c-32 -30 -70 -45 -115 -45s-83 15 -116 45s-49 68 -49 114c0 48 16 87 48 116c33 29 72 44 117 44s84 -15 116 -44s48 -68 48 -116zM1187 146c0 -46 -16 -84 -49 -114c-32 -30 -70 -45 -115 -45
s-83 15 -116 45s-49 68 -49 114c0 48 16 87 48 116c33 29 72 44 117 44s84 -15 116 -44s48 -68 48 -116zM633 252c-57 0 -107 -42 -107 -105s50 -105 107 -105c56 0 105 42 105 105s-49 105 -105 105zM1023 252c-57 0 -107 -42 -107 -105s50 -105 107 -105
c56 0 105 42 105 105s-49 105 -105 105z" />
    <glyph glyph-name="Acircumflex" unicode="&#xc2;" horiz-adv-x="693" 
d="M348 830l-76 -93h-77l116 142h73l117 -142h-78zM383 670l300 -670h-85l-75 170h-353l-75 -170h-85l300 670h73zM201 241h291l-145 331z" />
    <glyph glyph-name="Ecircumflex" unicode="&#xca;" horiz-adv-x="637" 
d="M341 830l-76 -93h-77l116 142h73l117 -142h-78zM167 72h410v-72h-489v670h488v-71h-409v-227h380v-71h-380v-229z" />
    <glyph glyph-name="Aacute" unicode="&#xc1;" horiz-adv-x="693" 
d="M488 885l-102 -140h-67l80 140h89zM383 670l300 -670h-85l-75 170h-353l-75 -170h-85l300 670h73zM201 241h291l-145 331z" />
    <glyph glyph-name="Edieresis" unicode="&#xcb;" horiz-adv-x="637" 
d="M241 755c-29 0 -52 22 -52 51c0 28 23 51 52 51s53 -23 53 -51c0 -29 -22 -51 -53 -51zM439 755c-29 0 -52 22 -52 51c0 28 23 51 52 51s53 -23 53 -51c0 -29 -22 -51 -53 -51zM167 72h410v-72h-489v670h488v-71h-409v-227h380v-71h-380v-229z" />
    <glyph glyph-name="Egrave" unicode="&#xc8;" horiz-adv-x="637" 
d="M372 745h-66l-102 140h89zM167 72h410v-72h-489v670h488v-71h-409v-227h380v-71h-380v-229z" />
    <glyph glyph-name="Iacute" unicode="&#xcd;" horiz-adv-x="254" 
d="M268 885l-102 -140h-67l80 140h89zM167 670v-670h-79v670h79z" />
    <glyph glyph-name="Icircumflex" unicode="&#xce;" horiz-adv-x="254" 
d="M164 879l117 -142h-78l-75 93l-76 -93h-78l117 142h73zM88 0v670h79v-670h-79z" />
    <glyph glyph-name="Idieresis" unicode="&#xcf;" horiz-adv-x="254" 
d="M81 806c0 -29 -22 -51 -53 -51c-29 0 -52 22 -52 51c0 28 23 51 52 51s53 -23 53 -51zM279 806c0 -29 -22 -51 -53 -51c-29 0 -52 22 -52 51c0 28 23 51 52 51s53 -23 53 -51zM167 670v-670h-79v670h79z" />
    <glyph glyph-name="Igrave" unicode="&#xcc;" horiz-adv-x="254" 
d="M-11 885h90l79 -140h-66zM167 670v-670h-79v670h79z" />
    <glyph glyph-name="Oacute" unicode="&#xd3;" horiz-adv-x="803" 
d="M543 885l-102 -140h-67l80 140h89zM402 683c97 0 178 -34 245 -101s101 -150 101 -247s-34 -180 -101 -247s-148 -101 -245 -101s-180 34 -247 101s-100 150 -100 247s33 180 100 247s150 101 247 101zM402 62c75 0 138 26 189 78c51 53 77 118 77 195s-26 141 -77 194
s-114 80 -189 80s-139 -27 -190 -80s-77 -117 -77 -194s26 -142 77 -195c51 -52 115 -78 190 -78z" />
    <glyph glyph-name="Ocircumflex" unicode="&#xd4;" horiz-adv-x="803" 
d="M403 830l-76 -93h-77l116 142h73l117 -142h-78zM402 683c97 0 178 -34 245 -101s101 -150 101 -247s-34 -180 -101 -247s-148 -101 -245 -101s-180 34 -247 101s-100 150 -100 247s33 180 100 247s150 101 247 101zM402 62c75 0 138 26 189 78c51 53 77 118 77 195
s-26 141 -77 194s-114 80 -189 80s-139 -27 -190 -80s-77 -117 -77 -194s26 -142 77 -195c51 -52 115 -78 190 -78z" />
    <glyph glyph-name="Ograve" unicode="&#xd2;" horiz-adv-x="803" 
d="M433 745h-66l-102 140h89zM402 683c97 0 178 -34 245 -101s101 -150 101 -247s-34 -180 -101 -247s-148 -101 -245 -101s-180 34 -247 101s-100 150 -100 247s33 180 100 247s150 101 247 101zM402 62c75 0 138 26 189 78c51 53 77 118 77 195s-26 141 -77 194
s-114 80 -189 80s-139 -27 -190 -80s-77 -117 -77 -194s26 -142 77 -195c51 -52 115 -78 190 -78z" />
    <glyph glyph-name="Uacute" unicode="&#xda;" horiz-adv-x="721" 
d="M501 885l-102 -140h-67l80 140h89zM562 670h79v-377c0 -91 -26 -165 -77 -222c-51 -56 -118 -84 -202 -84c-85 0 -153 28 -205 84c-51 57 -77 131 -77 222v377h79v-377c0 -69 18 -125 55 -167s87 -63 148 -63c60 0 108 21 145 63s55 98 55 167v377z" />
    <glyph glyph-name="Ucircumflex" unicode="&#xdb;" horiz-adv-x="721" 
d="M361 830l-76 -93h-77l116 142h73l117 -142h-78zM562 670h79v-377c0 -91 -26 -165 -77 -222c-51 -56 -118 -84 -202 -84c-85 0 -153 28 -205 84c-51 57 -77 131 -77 222v377h79v-377c0 -69 18 -125 55 -167s87 -63 148 -63c60 0 108 21 145 63s55 98 55 167v377z" />
    <glyph glyph-name="Ugrave" unicode="&#xd9;" horiz-adv-x="721" 
d="M392 745h-66l-102 140h89zM562 670h79v-377c0 -91 -26 -165 -77 -222c-51 -56 -118 -84 -202 -84c-85 0 -153 28 -205 84c-51 57 -77 131 -77 222v377h79v-377c0 -69 18 -125 55 -167s87 -63 148 -63c60 0 108 21 145 63s55 98 55 167v377z" />
    <glyph glyph-name="dotlessi" unicode="&#x131;" horiz-adv-x="279" 
d="M178 493v-493h-77v493h77z" />
    <glyph glyph-name="circumflex" unicode="&#x2c6;" horiz-adv-x="600" 
d="M454 559h-78l-75 93l-76 -93h-77l116 142h73z" />
    <glyph glyph-name="tilde" unicode="&#x2dc;" horiz-adv-x="600" 
d="M207 593h-54c0 69 39 102 87 102c21 0 43 -8 66 -24s42 -24 56 -24c23 0 37 19 37 47h54c0 -71 -39 -104 -87 -104c-21 0 -44 8 -67 24s-41 24 -55 24c-23 0 -37 -18 -37 -45z" />
    <glyph glyph-name="overscore" unicode="&#xaf;" horiz-adv-x="600" 
d="M442 646v-62h-284v62h284z" />
    <glyph glyph-name="breve" unicode="&#x2d8;" horiz-adv-x="600" 
d="M155 689h64c0 -48 34 -80 81 -80s81 32 81 80h64c0 -81 -58 -135 -145 -135s-145 54 -145 135z" />
    <glyph glyph-name="dotaccent" unicode="&#x2d9;" horiz-adv-x="600" 
d="M300 684c29 0 52 -22 52 -49c0 -29 -21 -50 -52 -50c-29 0 -51 21 -51 50c0 27 23 49 51 49z" />
    <glyph glyph-name="ring" unicode="&#x2da;" horiz-adv-x="600" 
d="M404 650c0 -56 -47 -101 -104 -101s-103 45 -103 101c0 55 46 100 103 100c29 0 53 -10 73 -30c21 -19 31 -43 31 -70zM356 650c0 29 -24 54 -56 54c-31 0 -56 -25 -56 -54s25 -54 56 -54c32 0 56 23 56 54z" />
    <glyph glyph-name="cedilla" unicode="&#xb8;" horiz-adv-x="600" 
d="M192 -170l101 170h59l-77 -170h-83z" />
    <glyph glyph-name="hungarumlaut" unicode="&#x2dd;" horiz-adv-x="600" 
d="M323 707l-104 -140h-70l79 140h95zM477 707l-104 -140h-70l79 140h95z" />
    <glyph glyph-name="ogonek" unicode="&#x2db;" horiz-adv-x="600" 
d="M268 3l54 -3c-27 -29 -46 -50 -55 -63s-14 -27 -14 -42c0 -27 14 -40 42 -40c9 0 24 3 46 10l6 -50c-26 -10 -49 -15 -68 -15c-47 0 -84 26 -84 83c0 40 18 72 73 120z" />
    <glyph glyph-name="caron" unicode="&#x2c7;" horiz-adv-x="600" 
d="M376 702h78l-117 -142h-73l-116 142h77l76 -92z" />
    <glyph glyph-name="onequarter" unicode="&#xbc;" horiz-adv-x="702" 
d="M107 301v292l-83 -51v62l103 66h38v-369h-58zM566 670h55l-501 -670h-55zM677 131v-48h-58v-83h-55v83h-203v54l191 232h67v-238h58zM418 131h146v176z" />
    <glyph glyph-name="onehalf" unicode="&#xbd;" horiz-adv-x="777" 
d="M107 301v292l-83 -51v62l103 66h38v-369h-58zM557 670h55l-501 -670h-55zM568 51h175v-52h-268v39l140 120c52 44 70 65 70 101c0 40 -30 68 -75 68c-49 0 -79 -33 -80 -86l-51 11c0 73 51 124 131 124c79 0 131 -45 131 -117c0 -51 -28 -86 -89 -137z" />
    <glyph glyph-name="threequarters" unicode="&#xbe;" horiz-adv-x="793" 
d="M307 412c0 -65 -56 -114 -135 -114c-80 0 -140 48 -141 124l49 11c1 -55 39 -86 92 -86c48 0 80 27 80 66c0 37 -31 60 -79 60h-37v42h33c45 0 77 21 77 56c0 37 -32 62 -77 62c-48 0 -82 -29 -83 -80l-51 11c4 71 58 116 134 116s130 -44 130 -107
c0 -36 -18 -62 -55 -77c42 -15 63 -43 63 -84zM658 670h55l-501 -670h-55zM769 131v-48h-58v-83h-55v83h-203v54l191 232h67v-238h58zM510 131h146v176z" />
    <glyph glyph-name="Eth" unicode="&#xd0;" horiz-adv-x="743" 
d="M105 373v297h222c115 0 205 -31 271 -94c67 -63 100 -143 100 -241c0 -97 -33 -178 -100 -241c-66 -63 -156 -94 -271 -94h-222v302h-75v71h75zM184 302v-230h143c91 0 162 25 214 74s78 112 78 189s-26 140 -78 189c-52 50 -123 75 -214 75h-143v-226h164v-71h-164z" />
    <glyph glyph-name="multiply" unicode="&#xd7;" horiz-adv-x="507" 
d="M444 446l-141 -141l141 -141l-49 -49l-141 141l-142 -141l-49 49l141 141l-141 141l49 50l142 -141l141 141z" />
    <glyph glyph-name="Yacute" unicode="&#xdd;" horiz-adv-x="671" 
d="M476 885l-102 -140h-67l80 140h89zM653 670l-279 -435v-235h-79v234l-277 436h88l228 -357l228 357h91z" />
    <glyph glyph-name="Thorn" unicode="&#xde;" horiz-adv-x="628" 
d="M167 670v-121h193c70 0 126 -20 169 -60c43 -39 64 -91 64 -154s-22 -114 -65 -154c-43 -39 -99 -59 -168 -59h-193v-122h-79v670h79zM167 477v-284h189c95 0 159 59 159 142c0 84 -64 142 -159 142h-189z" />
    <glyph glyph-name="eth" unicode="&#xf0;" horiz-adv-x="607" 
d="M431 711l24 -55l-79 -35c57 -51 102 -110 137 -176c35 -65 52 -130 52 -195c0 -80 -26 -144 -77 -192c-51 -47 -112 -71 -181 -71c-73 0 -135 24 -187 72c-51 49 -77 111 -77 187s24 138 72 186c48 49 107 73 178 73c45 0 85 -12 122 -37c-29 45 -65 86 -108 122
l-134 -59l-23 54l102 46c-45 29 -94 53 -147 74v15h125c30 -14 61 -33 94 -57zM307 55c57 0 102 20 134 60s48 85 48 135c0 53 -18 98 -55 133c-36 36 -79 54 -129 54c-53 0 -97 -18 -134 -54c-36 -35 -54 -81 -54 -137c0 -55 19 -101 56 -137s82 -54 134 -54z" />
    <glyph glyph-name="yacute" unicode="&#xfd;" horiz-adv-x="563" 
d="M423 708l-102 -140h-67l80 140h89zM460 493h85l-302 -663h-85l81 177l-221 486h86l176 -394z" />
    <glyph glyph-name="thorn" unicode="&#xfe;" horiz-adv-x="649" 
d="M360 505c67 0 125 -24 173 -73c49 -48 73 -110 73 -186s-24 -138 -73 -187c-48 -48 -106 -72 -173 -72c-85 0 -150 30 -196 91v-248h-76v890h76v-306c46 61 111 91 196 91zM348 55c52 0 96 17 131 52s53 82 53 139s-18 104 -53 139s-79 53 -131 53
c-49 0 -92 -18 -129 -54c-37 -35 -55 -81 -55 -138c0 -56 18 -102 55 -138c37 -35 80 -53 129 -53z" />
    <glyph glyph-name="Amacron" unicode="&#x100;" horiz-adv-x="693" 
d="M489 824v-62h-284v62h284zM383 670l300 -670h-85l-75 170h-353l-75 -170h-85l300 670h73zM201 241h291l-145 331z" />
    <glyph glyph-name="amacron" unicode="&#x101;" horiz-adv-x="644" 
d="M452 646v-62h-284v62h284zM480 493h76v-493h-76v78c-46 -61 -111 -91 -196 -91c-67 0 -125 24 -174 72c-48 49 -72 111 -72 187s24 138 72 186c49 49 107 73 174 73c85 0 150 -30 196 -91v79zM296 55c49 0 91 18 128 53c37 36 56 82 56 138c0 57 -19 103 -56 138
c-37 36 -79 54 -128 54c-52 0 -96 -18 -131 -53s-53 -82 -53 -139s18 -104 53 -139s79 -52 131 -52z" />
    <glyph glyph-name="Abreve" unicode="&#x102;" horiz-adv-x="693" 
d="M202 867h64c0 -48 34 -80 81 -80s81 32 81 80h64c0 -81 -58 -135 -145 -135s-145 54 -145 135zM383 670l300 -670h-85l-75 170h-353l-75 -170h-85l300 670h73zM201 241h291l-145 331z" />
    <glyph glyph-name="abreve" unicode="&#x103;" horiz-adv-x="644" 
d="M165 690h64c0 -48 34 -80 81 -80s81 32 81 80h64c0 -81 -58 -135 -145 -135s-145 54 -145 135zM480 493h76v-493h-76v78c-46 -61 -111 -91 -196 -91c-67 0 -125 24 -174 72c-48 49 -72 111 -72 187s24 138 72 186c49 49 107 73 174 73c85 0 150 -30 196 -91v79zM296 55
c49 0 91 18 128 53c37 36 56 82 56 138c0 57 -19 103 -56 138c-37 36 -79 54 -128 54c-52 0 -96 -18 -131 -53s-53 -82 -53 -139s18 -104 53 -139s79 -52 131 -52z" />
    <glyph glyph-name="Aogonek" unicode="&#x104;" horiz-adv-x="693" 
d="M702 -135l6 -50c-26 -10 -49 -15 -68 -15c-47 0 -84 26 -84 83c0 37 23 76 70 117h-28l-75 170h-353l-75 -170h-85l300 670h73l300 -670c-27 -29 -46 -50 -55 -63s-14 -27 -14 -42c0 -27 14 -40 42 -40c9 0 24 3 46 10zM201 241h291l-145 331z" />
    <glyph glyph-name="aogonek" unicode="&#x105;" horiz-adv-x="644" 
d="M575 -135l6 -50c-26 -10 -49 -15 -68 -15c-47 0 -84 26 -84 83c0 37 23 76 70 117h-19v78c-46 -61 -111 -91 -196 -91c-67 0 -125 24 -174 72c-48 49 -72 111 -72 187s24 138 72 186c49 49 107 73 174 73c85 0 150 -30 196 -91v79h76v-493c-27 -29 -46 -50 -55 -63
s-14 -27 -14 -42c0 -27 14 -40 42 -40c9 0 24 3 46 10zM296 55c49 0 91 18 128 53c37 36 56 82 56 138c0 57 -19 103 -56 138c-37 36 -79 54 -128 54c-52 0 -96 -18 -131 -53s-53 -82 -53 -139s18 -104 53 -139s79 -52 131 -52z" />
    <glyph glyph-name="Cacute" unicode="&#x106;" horiz-adv-x="777" 
d="M542 885l-102 -140h-67l80 140h89zM403 61c117 0 208 62 243 171l76 -18c-21 -70 -60 -125 -117 -166s-125 -61 -202 -61c-97 0 -180 34 -247 101s-101 150 -101 247s34 180 101 247s150 101 247 101c77 0 144 -20 201 -61c58 -40 97 -94 118 -161l-76 -22
c-33 107 -126 170 -243 170c-75 0 -139 -26 -191 -79c-51 -53 -77 -118 -77 -195s26 -142 77 -195c52 -53 116 -79 191 -79z" />
    <glyph glyph-name="cacute" unicode="&#x107;" horiz-adv-x="576" 
d="M442 707l-102 -140h-67l80 140h89zM300 58c76 0 140 39 163 111l70 -19c-13 -49 -42 -89 -85 -119c-43 -29 -93 -44 -148 -44c-71 0 -132 24 -182 72s-75 110 -75 187c0 76 25 138 75 186c50 49 111 73 182 73c55 0 104 -15 147 -45c43 -29 72 -69 87 -119l-73 -22
c-21 73 -85 116 -161 116c-51 0 -95 -18 -130 -53s-53 -81 -53 -136c0 -56 17 -101 52 -136s79 -52 131 -52z" />
    <glyph glyph-name="Cdotaccent" unicode="&#x10a;" horiz-adv-x="777" 
d="M400 763c-29 0 -51 21 -51 50c0 27 23 49 51 49c29 0 52 -22 52 -49c0 -29 -21 -50 -52 -50zM403 61c117 0 208 62 243 171l76 -18c-21 -70 -60 -125 -117 -166s-125 -61 -202 -61c-97 0 -180 34 -247 101s-101 150 -101 247s34 180 101 247s150 101 247 101
c77 0 144 -20 201 -61c58 -40 97 -94 118 -161l-76 -22c-33 107 -126 170 -243 170c-75 0 -139 -26 -191 -79c-51 -53 -77 -118 -77 -195s26 -142 77 -195c52 -53 116 -79 191 -79z" />
    <glyph glyph-name="cdotaccent" unicode="&#x10b;" horiz-adv-x="576" 
d="M301 585c-29 0 -51 21 -51 50c0 27 23 49 51 49c29 0 52 -22 52 -49c0 -29 -21 -50 -52 -50zM300 58c76 0 140 39 163 111l70 -19c-13 -49 -42 -89 -85 -119c-43 -29 -93 -44 -148 -44c-71 0 -132 24 -182 72s-75 110 -75 187c0 76 25 138 75 186c50 49 111 73 182 73
c55 0 104 -15 147 -45c43 -29 72 -69 87 -119l-73 -22c-21 73 -85 116 -161 116c-51 0 -95 -18 -130 -53s-53 -81 -53 -136c0 -56 17 -101 52 -136s79 -52 131 -52z" />
    <glyph glyph-name="Ccaron" unicode="&#x10c;" horiz-adv-x="777" 
d="M438 738h-73l-116 142h77l76 -92l75 92h78zM403 61c117 0 208 62 243 171l76 -18c-21 -70 -60 -125 -117 -166s-125 -61 -202 -61c-97 0 -180 34 -247 101s-101 150 -101 247s34 180 101 247s150 101 247 101c77 0 144 -20 201 -61c58 -40 97 -94 118 -161l-76 -22
c-33 107 -126 170 -243 170c-75 0 -139 -26 -191 -79c-51 -53 -77 -118 -77 -195s26 -142 77 -195c52 -53 116 -79 191 -79z" />
    <glyph glyph-name="ccaron" unicode="&#x10d;" horiz-adv-x="576" 
d="M338 560h-73l-116 142h77l76 -92l75 92h78zM300 58c76 0 140 39 163 111l70 -19c-13 -49 -42 -89 -85 -119c-43 -29 -93 -44 -148 -44c-71 0 -132 24 -182 72s-75 110 -75 187c0 76 25 138 75 186c50 49 111 73 182 73c55 0 104 -15 147 -45c43 -29 72 -69 87 -119
l-73 -22c-21 73 -85 116 -161 116c-51 0 -95 -18 -130 -53s-53 -81 -53 -136c0 -56 17 -101 52 -136s79 -52 131 -52z" />
    <glyph glyph-name="Dcaron" unicode="&#x10e;" horiz-adv-x="736" 
d="M386 738h-73l-116 142h77l76 -92l75 92h78zM88 0v670h222c115 0 205 -31 271 -94c67 -63 100 -143 100 -241c0 -97 -33 -178 -100 -241c-66 -63 -156 -94 -271 -94h-222zM167 599v-527h142c91 0 163 25 214 74c52 49 78 112 78 189s-26 141 -78 190
c-51 49 -123 74 -214 74h-142z" />
    <glyph glyph-name="dcaron" unicode="&#x10f;" horiz-adv-x="649" 
d="M485 414v306h76v-720h-76v78c-46 -61 -111 -91 -196 -91c-67 0 -125 24 -174 72c-48 49 -72 111 -72 187s24 138 72 186c49 49 107 73 174 73c85 0 150 -30 196 -91zM643 720h77l-16 -172h-61v172zM301 55c49 0 91 18 128 53c37 36 56 82 56 138c0 57 -19 103 -56 138
c-37 36 -79 54 -128 54c-53 0 -97 -18 -132 -53s-52 -82 -52 -139s18 -104 53 -139s79 -52 131 -52z" />
    <glyph glyph-name="Dcroat" unicode="&#x110;" horiz-adv-x="743" 
d="M105 373v297h222c115 0 205 -31 271 -94c67 -63 100 -143 100 -241c0 -97 -33 -178 -100 -241c-66 -63 -156 -94 -271 -94h-222v302h-75v71h75zM184 302v-230h143c91 0 162 25 214 74s78 112 78 189s-26 140 -78 189c-52 50 -123 75 -214 75h-143v-226h164v-71h-164z" />
    <glyph glyph-name="dslash" unicode="&#x111;" horiz-adv-x="668" 
d="M636 635v-61h-75v-574h-76v78c-46 -61 -111 -91 -196 -91c-67 0 -125 24 -174 72c-48 49 -72 111 -72 187s24 138 72 186c49 49 107 73 174 73c85 0 150 -30 196 -91v160h-173v61h173v85h76v-85h75zM301 55c49 0 91 18 128 53c37 36 56 82 56 138c0 57 -19 103 -56 138
c-37 36 -79 54 -128 54c-53 0 -97 -18 -132 -53s-52 -82 -52 -139s18 -104 53 -139s79 -52 131 -52z" />
    <glyph glyph-name="Emacron" unicode="&#x112;" horiz-adv-x="637" 
d="M482 824v-62h-284v62h284zM167 72h410v-72h-489v670h488v-71h-409v-227h380v-71h-380v-229z" />
    <glyph glyph-name="emacron" unicode="&#x113;" horiz-adv-x="583" 
d="M440 646v-62h-284v62h284zM540 259v-28h-423c3 -53 22 -96 57 -129c35 -32 74 -48 119 -48c81 0 137 35 168 106l68 -16c-39 -101 -124 -157 -236 -157c-68 0 -127 24 -176 72s-74 110 -74 186c0 77 25 139 75 187c50 49 110 73 180 73c67 0 124 -23 169 -69
c46 -45 70 -104 73 -177zM298 438c-43 0 -81 -14 -116 -41c-34 -27 -55 -63 -62 -109h343c-13 95 -81 150 -165 150z" />
    <glyph glyph-name="Edotaccent" unicode="&#x116;" horiz-adv-x="637" 
d="M340 763c-29 0 -51 21 -51 50c0 27 23 49 51 49c29 0 52 -22 52 -49c0 -29 -21 -50 -52 -50zM167 72h410v-72h-489v670h488v-71h-409v-227h380v-71h-380v-229z" />
    <glyph glyph-name="edotaccent" unicode="&#x117;" horiz-adv-x="583" 
d="M297 585c-29 0 -51 21 -51 50c0 27 23 49 51 49c29 0 52 -22 52 -49c0 -29 -21 -50 -52 -50zM540 259v-28h-423c3 -53 22 -96 57 -129c35 -32 74 -48 119 -48c81 0 137 35 168 106l68 -16c-39 -101 -124 -157 -236 -157c-68 0 -127 24 -176 72s-74 110 -74 186
c0 77 25 139 75 187c50 49 110 73 180 73c67 0 124 -23 169 -69c46 -45 70 -104 73 -177zM298 438c-43 0 -81 -14 -116 -41c-34 -27 -55 -63 -62 -109h343c-13 95 -81 150 -165 150z" />
    <glyph glyph-name="Eogonek" unicode="&#x118;" horiz-adv-x="637" 
d="M577 72v-72h-31c-27 -29 -46 -50 -55 -63s-14 -27 -14 -42c0 -27 14 -40 42 -40c9 0 24 3 46 10l6 -50c-26 -10 -49 -15 -68 -15c-47 0 -84 26 -84 83c0 37 23 76 70 117h-401v670h488v-71h-409v-227h380v-71h-380v-229h410z" />
    <glyph glyph-name="eogonek" unicode="&#x119;" horiz-adv-x="583" 
d="M541 254v-23h-423c3 -53 22 -96 55 -129c34 -32 73 -48 118 -48c73 0 142 40 170 108l67 -16c-11 -24 -29 -50 -55 -79c-38 -45 -64 -79 -79 -101c-14 -23 -21 -44 -21 -64c0 -28 20 -44 49 -44c13 0 29 4 47 11l6 -45c-25 -15 -48 -23 -71 -23c-56 0 -93 32 -93 84
c0 34 15 71 45 112c-21 -7 -43 -10 -65 -10c-69 0 -127 24 -176 72c-48 48 -72 110 -72 187c0 76 25 138 75 187c51 49 110 73 179 73s126 -24 173 -71s70 -108 71 -181zM120 288h341c-11 96 -78 150 -163 150c-41 0 -80 -14 -115 -41s-56 -63 -63 -109z" />
    <glyph glyph-name="Ecaron" unicode="&#x11a;" horiz-adv-x="637" 
d="M377 738h-73l-116 142h77l76 -92l75 92h78zM167 72h410v-72h-489v670h488v-71h-409v-227h380v-71h-380v-229z" />
    <glyph glyph-name="ecaron" unicode="&#x11b;" horiz-adv-x="583" 
d="M335 560h-73l-116 142h77l76 -92l75 92h78zM540 259v-28h-423c3 -53 22 -96 57 -129c35 -32 74 -48 119 -48c81 0 137 35 168 106l68 -16c-39 -101 -124 -157 -236 -157c-68 0 -127 24 -176 72s-74 110 -74 186c0 77 25 139 75 187c50 49 110 73 180 73
c67 0 124 -23 169 -69c46 -45 70 -104 73 -177zM298 438c-43 0 -81 -14 -116 -41c-34 -27 -55 -63 -62 -109h343c-13 95 -81 150 -165 150z" />
    <glyph glyph-name="Gbreve" unicode="&#x11e;" horiz-adv-x="795" 
d="M261 867h64c0 -48 34 -80 81 -80s81 32 81 80h64c0 -81 -58 -135 -145 -135s-145 54 -145 135zM368 296v72h371c1 -9 1 -20 1 -34c0 -99 -32 -181 -95 -248c-63 -66 -143 -99 -241 -99s-181 34 -248 101s-101 150 -101 247s33 180 100 247s150 101 247 101
c148 0 268 -73 316 -194l-71 -25c-47 95 -136 145 -245 145c-75 0 -139 -27 -190 -80s-77 -117 -77 -194s26 -142 78 -195c53 -53 117 -79 193 -79c70 0 128 22 175 66s75 100 83 169h-296z" />
    <glyph glyph-name="gbreve" unicode="&#x11f;" horiz-adv-x="633" 
d="M159 690h64c0 -48 34 -80 81 -80s81 32 81 80h64c0 -81 -58 -135 -145 -135s-145 54 -145 135zM471 493h74l1 -453c-1 -71 -23 -127 -68 -168s-105 -62 -180 -62c-120 0 -200 43 -241 128l64 44c36 -69 88 -103 177 -103c104 0 173 67 173 171v60
c-41 -54 -103 -81 -185 -81c-67 0 -124 23 -172 68c-47 45 -71 102 -71 171c0 68 24 124 71 169c48 45 105 68 172 68c81 0 143 -27 185 -80v68zM297 95c47 0 88 16 122 48c35 33 52 74 52 125s-17 92 -51 123c-34 32 -75 48 -123 48c-51 0 -94 -16 -129 -47
c-34 -31 -51 -73 -51 -124s17 -93 51 -125c35 -32 78 -48 129 -48z" />
    <glyph glyph-name="Gdotaccent" unicode="&#x120;" horiz-adv-x="795" 
d="M405 763c-29 0 -51 21 -51 50c0 27 23 49 51 49c29 0 52 -22 52 -49c0 -29 -21 -50 -52 -50zM368 296v72h371c1 -9 1 -20 1 -34c0 -99 -32 -181 -95 -248c-63 -66 -143 -99 -241 -99s-181 34 -248 101s-101 150 -101 247s33 180 100 247s150 101 247 101
c148 0 268 -73 316 -194l-71 -25c-47 95 -136 145 -245 145c-75 0 -139 -27 -190 -80s-77 -117 -77 -194s26 -142 78 -195c53 -53 117 -79 193 -79c70 0 128 22 175 66s75 100 83 169h-296z" />
    <glyph glyph-name="gdotaccent" unicode="&#x121;" horiz-adv-x="633" 
d="M304 585c-29 0 -51 21 -51 50c0 27 23 49 51 49c29 0 52 -22 52 -49c0 -29 -21 -50 -52 -50zM471 493h74l1 -453c-1 -71 -23 -127 -68 -168s-105 -62 -180 -62c-120 0 -200 43 -241 128l64 44c36 -69 88 -103 177 -103c104 0 173 67 173 171v60
c-41 -54 -103 -81 -185 -81c-67 0 -124 23 -172 68c-47 45 -71 102 -71 171c0 68 24 124 71 169c48 45 105 68 172 68c81 0 143 -27 185 -80v68zM297 95c47 0 88 16 122 48c35 33 52 74 52 125s-17 92 -51 123c-34 32 -75 48 -123 48c-51 0 -94 -16 -129 -47
c-34 -31 -51 -73 -51 -124s17 -93 51 -125c35 -32 78 -48 129 -48z" />
    <glyph glyph-name="Gcommaaccent" unicode="&#x122;" horiz-adv-x="795" 
d="M368 296v72h371c1 -9 1 -20 1 -34c0 -99 -32 -181 -95 -248c-63 -66 -143 -99 -241 -99s-181 34 -248 101s-101 150 -101 247s33 180 100 247s150 101 247 101c148 0 268 -73 316 -194l-71 -25c-47 95 -136 145 -245 145c-75 0 -139 -27 -190 -80s-77 -117 -77 -194
s26 -142 78 -195c53 -53 117 -79 193 -79c70 0 128 22 175 66s75 100 83 169h-296zM305 -188l48 143h83l-71 -143h-60z" />
    <glyph glyph-name="gcommaaccent" unicode="&#x123;" horiz-adv-x="638" 
d="M404 712l-48 -143h-83l72 143h59zM471 493h74l1 -453c-1 -71 -23 -127 -68 -168s-105 -62 -180 -62c-120 0 -200 43 -241 128l64 44c36 -69 88 -103 177 -103c104 0 173 67 173 171v60c-41 -54 -103 -81 -185 -81c-67 0 -124 23 -172 68c-47 45 -71 102 -71 171
c0 68 24 124 71 169c48 45 105 68 172 68c81 0 143 -27 185 -80v68zM297 95c47 0 88 16 122 48c35 33 52 74 52 125s-17 92 -51 123c-34 32 -75 48 -123 48c-51 0 -94 -16 -129 -47c-34 -31 -51 -73 -51 -124s17 -93 51 -125c35 -32 78 -48 129 -48z" />
    <glyph glyph-name="Hbar" unicode="&#x126;" horiz-adv-x="758" 
d="M726 532v-66h-70v-466h-79v282h-398v-282h-79v466h-70v66h70v138h79v-138h398v138h79v-138h70zM577 353v113h-398v-113h398z" />
    <glyph glyph-name="hbar" unicode="&#x127;" horiz-adv-x="627" 
d="M368 505c59 0 107 -19 143 -58c37 -39 55 -89 55 -152v-295h-77v281c0 92 -55 154 -136 154c-105 0 -171 -73 -171 -198v-237h-77v579h-75v56h75v85h77v-85h172v-56h-172v-167c42 62 104 93 186 93z" />
    <glyph glyph-name="Imacron" unicode="&#x12a;" horiz-adv-x="254" 
d="M269 824v-62h-284v62h284zM167 670v-670h-79v670h79z" />
    <glyph glyph-name="imacron" unicode="&#x12b;" horiz-adv-x="279" 
d="M281 646v-62h-284v62h284zM178 493v-493h-77v493h77z" />
    <glyph glyph-name="Iogonek" unicode="&#x12e;" horiz-adv-x="254" 
d="M185 -135l6 -50c-26 -10 -49 -15 -68 -15c-47 0 -84 26 -84 83c0 37 23 76 70 117h-21v670h79v-670h-1c-27 -29 -46 -50 -55 -63s-14 -27 -14 -42c0 -27 14 -40 42 -40c9 0 24 3 46 10z" />
    <glyph glyph-name="iogonek" unicode="&#x12f;" horiz-adv-x="279" 
d="M139 585c-29 0 -51 21 -51 50c0 27 23 49 51 49c29 0 52 -22 52 -49c0 -29 -21 -50 -52 -50zM196 -135l6 -50c-26 -10 -49 -15 -68 -15c-47 0 -84 26 -84 83c0 37 23 76 70 117h-19v493h77v-493h-1c-27 -29 -46 -50 -55 -63s-14 -27 -14 -42c0 -27 14 -40 42 -40
c9 0 24 3 46 10z" />
    <glyph glyph-name="Idot" unicode="&#x130;" horiz-adv-x="254" 
d="M126 862c29 0 52 -22 52 -49c0 -29 -21 -50 -52 -50c-29 0 -51 21 -51 50c0 27 23 49 51 49zM167 670v-670h-79v670h79z" />
    <glyph glyph-name="IJ" unicode="&#x132;" horiz-adv-x="849" 
d="M88 0v670h79v-670h-79zM691 670h79v-426c0 -75 -23 -137 -69 -185c-45 -48 -105 -72 -179 -72c-67 0 -122 20 -165 59c-43 40 -70 92 -79 157l75 17c12 -97 74 -161 169 -161c50 0 91 17 122 52s47 79 47 133v426z" />
    <glyph glyph-name="ij" unicode="&#x133;" horiz-adv-x="554" 
d="M187 642c0 -29 -22 -51 -53 -51c-29 0 -52 22 -52 51c0 28 23 51 52 51s53 -23 53 -51zM420 693c29 0 52 -23 52 -51c0 -29 -23 -51 -52 -51c-31 0 -53 22 -53 51c0 28 22 51 53 51zM173 493v-493h-77v493h77zM254 -163l16 66c17 -7 32 -11 47 -11c39 0 65 24 65 61v540
h77v-549c0 -75 -49 -124 -124 -124c-29 0 -56 6 -81 17z" />
    <glyph glyph-name="Kcommaaccent" unicode="&#x136;" horiz-adv-x="673" 
d="M263 335l385 -335h-107l-337 297h-37v-297h-79v670h79v-302h31l329 302h99zM240 -188l48 143h83l-71 -143h-60z" />
    <glyph glyph-name="kcommaaccent" unicode="&#x137;" horiz-adv-x="574" 
d="M257 254l312 -254h-106l-266 218h-33v-218h-76v720h76v-427h37l237 200h99zM192 -188l48 143h83l-71 -143h-60z" />
    <glyph glyph-name="Lacute" unicode="&#x139;" horiz-adv-x="586" 
d="M267 885l-102 -140h-67l80 140h89zM167 72h384v-72h-463v670h79v-598z" />
    <glyph glyph-name="lacute" unicode="&#x13a;" horiz-adv-x="252" 
d="M267 935l-102 -140h-67l80 140h89zM164 720v-720h-76v720h76z" />
    <glyph glyph-name="Lcommaaccent" unicode="&#x13b;" horiz-adv-x="586" 
d="M167 72h384v-72h-463v670h79v-598zM233 -188l48 143h83l-71 -143h-60z" />
    <glyph glyph-name="lcommaaccent" unicode="&#x13c;" horiz-adv-x="252" 
d="M164 720v-720h-76v720h76zM96 -188h-60l48 143h83z" />
    <glyph glyph-name="Lcaron" unicode="&#x13d;" horiz-adv-x="586" 
d="M167 72h384v-72h-463v670h79v-598zM385 670l-16 -172h-61v172h77z" />
    <glyph glyph-name="lcaron" unicode="&#x13e;" horiz-adv-x="252" 
d="M164 720v-720h-76v720h76zM316 720l-16 -172h-61v172h77z" />
    <glyph glyph-name="Ldot" unicode="&#x13f;" horiz-adv-x="581" 
d="M167 72h384v-72h-463v670h79v-598zM388 294c-29 0 -51 21 -51 50c0 27 23 49 51 49c29 0 52 -22 52 -49c0 -29 -21 -50 -52 -50z" />
    <glyph glyph-name="ldot" unicode="&#x140;" horiz-adv-x="333" 
d="M164 720v-720h-76v720h76zM273 388c29 0 52 -22 52 -49c0 -29 -21 -50 -52 -50c-29 0 -51 21 -51 50c0 27 23 49 51 49z" />
    <glyph glyph-name="Lslash" unicode="&#x141;" horiz-adv-x="596" 
d="M182 72h384v-72h-463v249l-73 -35v74l73 35v347h79v-308l158 76v-74l-158 -76v-216z" />
    <glyph glyph-name="lslash" unicode="&#x142;" horiz-adv-x="301" 
d="M271 463v-75l-82 -51v-337h-76v290l-83 -52v75l83 52v355h76v-308z" />
    <glyph glyph-name="Nacute" unicode="&#x143;" horiz-adv-x="760" 
d="M529 885l-102 -140h-67l80 140h89zM594 670h79v-670h-68l-438 532v-532h-79v670h68l438 -538v538z" />
    <glyph glyph-name="nacute" unicode="&#x144;" horiz-adv-x="624" 
d="M462 707l-102 -140h-67l80 140h89zM350 505c59 0 107 -19 143 -58c37 -39 55 -89 55 -152v-295h-76v281c0 92 -56 154 -137 154c-105 0 -171 -73 -171 -198v-237h-76v493h76v-82c42 63 104 94 186 94z" />
    <glyph glyph-name="Ncommaaccent" unicode="&#x145;" horiz-adv-x="760" 
d="M594 670h79v-670h-68l-438 532v-532h-79v670h68l438 -538v538zM310 -188l48 143h83l-71 -143h-60z" />
    <glyph glyph-name="ncommaaccent" unicode="&#x146;" horiz-adv-x="624" 
d="M350 505c59 0 107 -19 143 -58c37 -39 55 -89 55 -152v-295h-76v281c0 92 -56 154 -137 154c-105 0 -171 -73 -171 -198v-237h-76v493h76v-82c42 63 104 94 186 94zM232 -188l48 143h83l-71 -143h-60z" />
    <glyph glyph-name="Ncaron" unicode="&#x147;" horiz-adv-x="760" 
d="M425 738h-73l-116 142h77l76 -92l75 92h78zM594 670h79v-670h-68l-438 532v-532h-79v670h68l438 -538v538z" />
    <glyph glyph-name="ncaron" unicode="&#x148;" horiz-adv-x="624" 
d="M358 560h-73l-116 142h77l76 -92l75 92h78zM350 505c59 0 107 -19 143 -58c37 -39 55 -89 55 -152v-295h-76v281c0 92 -56 154 -137 154c-105 0 -171 -73 -171 -198v-237h-76v493h76v-82c42 63 104 94 186 94z" />
    <glyph glyph-name="Eng" unicode="&#x14a;" horiz-adv-x="750" 
d="M594 670h79v-722c0 -75 -51 -128 -124 -128c-33 0 -64 7 -93 22l16 60c61 -29 124 -12 124 46v63l-429 521v-532h-79v670h68l438 -538v538z" />
    <glyph glyph-name="eng" unicode="&#x14b;" horiz-adv-x="625" 
d="M350 505c59 0 107 -19 143 -58c37 -39 55 -89 55 -152v-347c0 -75 -49 -128 -124 -128c-32 0 -63 7 -92 22l16 59c61 -29 124 -12 124 47v333c0 92 -56 154 -137 154c-105 0 -171 -73 -171 -198v-237h-76v493h76v-82c42 63 104 94 186 94z" />
    <glyph glyph-name="Omacron" unicode="&#x14c;" horiz-adv-x="803" 
d="M544 824v-62h-284v62h284zM402 683c97 0 178 -34 245 -101s101 -150 101 -247s-34 -180 -101 -247s-148 -101 -245 -101s-180 34 -247 101s-100 150 -100 247s33 180 100 247s150 101 247 101zM402 62c75 0 138 26 189 78c51 53 77 118 77 195s-26 141 -77 194
s-114 80 -189 80s-139 -27 -190 -80s-77 -117 -77 -194s26 -142 77 -195c51 -52 115 -78 190 -78z" />
    <glyph glyph-name="omacron" unicode="&#x14d;" horiz-adv-x="608" 
d="M447 651v-62h-284v62h284zM305 504c73 0 135 -24 185 -73c51 -48 76 -109 76 -184s-25 -137 -76 -186c-50 -49 -112 -73 -185 -73c-74 0 -136 24 -187 73c-50 49 -75 111 -75 186s25 136 75 184c51 49 113 73 187 73zM305 55c51 0 95 18 131 54c37 36 55 82 55 138
c0 55 -18 101 -55 136c-36 36 -80 54 -131 54c-52 0 -96 -18 -133 -54c-37 -35 -55 -81 -55 -136c0 -56 18 -102 55 -138s81 -54 133 -54z" />
    <glyph glyph-name="Ohungarumlaut" unicode="&#x150;" horiz-adv-x="803" 
d="M461 885l-104 -140h-70l79 140h95zM511 745h-70l79 140h95zM402 683c97 0 178 -34 245 -101s101 -150 101 -247s-34 -180 -101 -247s-148 -101 -245 -101s-180 34 -247 101s-100 150 -100 247s33 180 100 247s150 101 247 101zM402 62c75 0 138 26 189 78
c51 53 77 118 77 195s-26 141 -77 194s-114 80 -189 80s-139 -27 -190 -80s-77 -117 -77 -194s26 -142 77 -195c51 -52 115 -78 190 -78z" />
    <glyph glyph-name="ohungarumlaut" unicode="&#x151;" horiz-adv-x="608" 
d="M364 712l-104 -140h-70l79 140h95zM414 572h-70l79 140h95zM305 504c73 0 135 -24 185 -73c51 -48 76 -109 76 -184s-25 -137 -76 -186c-50 -49 -112 -73 -185 -73c-74 0 -136 24 -187 73c-50 49 -75 111 -75 186s25 136 75 184c51 49 113 73 187 73zM305 55
c51 0 95 18 131 54c37 36 55 82 55 138c0 55 -18 101 -55 136c-36 36 -80 54 -131 54c-52 0 -96 -18 -133 -54c-37 -35 -55 -81 -55 -136c0 -56 18 -102 55 -138s81 -54 133 -54z" />
    <glyph glyph-name="Racute" unicode="&#x154;" horiz-adv-x="670" 
d="M468 885l-102 -140h-67l80 140h89zM386 287l259 -287h-99l-256 287h-123v-287h-79v670h310c65 0 118 -18 158 -53c41 -35 61 -81 61 -138s-20 -104 -61 -139c-40 -35 -93 -53 -158 -53h-12zM167 599v-240h231c84 0 140 48 140 120s-56 120 -140 120h-231z" />
    <glyph glyph-name="racute" unicode="&#x155;" horiz-adv-x="412" 
d="M359 707l-102 -140h-67l80 140h89zM363 498c14 0 26 -1 35 -4l-6 -73c-6 1 -16 1 -29 1c-127 0 -198 -93 -198 -232v-190h-77v493h77v-121c46 84 112 126 198 126z" />
    <glyph glyph-name="Rcommaaccent" unicode="&#x156;" horiz-adv-x="670" 
d="M386 287l259 -287h-99l-256 287h-123v-287h-79v670h310c65 0 118 -18 158 -53c41 -35 61 -81 61 -138s-20 -104 -61 -139c-40 -35 -93 -53 -158 -53h-12zM167 599v-240h231c84 0 140 48 140 120s-56 120 -140 120h-231zM249 -188l48 143h83l-71 -143h-60z" />
    <glyph glyph-name="rcommaaccent" unicode="&#x157;" horiz-adv-x="412" 
d="M363 498c14 0 26 -1 35 -4l-6 -73c-6 1 -16 1 -29 1c-127 0 -198 -93 -198 -232v-190h-77v493h77v-121c46 84 112 126 198 126zM37 -188l48 143h83l-71 -143h-60z" />
    <glyph glyph-name="Rcaron" unicode="&#x158;" horiz-adv-x="670" 
d="M364 738h-73l-116 142h77l76 -92l75 92h78zM386 287l259 -287h-99l-256 287h-123v-287h-79v670h310c65 0 118 -18 158 -53c41 -35 61 -81 61 -138s-20 -104 -61 -139c-40 -35 -93 -53 -158 -53h-12zM167 599v-240h231c84 0 140 48 140 120s-56 120 -140 120h-231z" />
    <glyph glyph-name="rcaron" unicode="&#x159;" horiz-adv-x="412" 
d="M255 560h-73l-116 142h77l76 -92l75 92h78zM363 498c14 0 26 -1 35 -4l-6 -73c-6 1 -16 1 -29 1c-127 0 -198 -93 -198 -232v-190h-77v493h77v-121c46 84 112 126 198 126z" />
    <glyph glyph-name="Sacute" unicode="&#x15a;" horiz-adv-x="627" 
d="M461 885l-102 -140h-67l80 140h89zM311 683c132 0 228 -72 251 -184l-79 -18c-15 81 -82 133 -174 133c-91 0 -152 -49 -152 -121c0 -57 34 -87 101 -100l146 -33c113 -24 169 -82 169 -174c0 -61 -23 -109 -68 -145s-106 -54 -181 -54c-73 0 -134 18 -185 53
c-50 36 -79 85 -87 147l83 17c15 -93 91 -147 196 -147c101 0 163 50 163 125c0 61 -32 88 -109 105l-151 33c-107 24 -161 81 -161 171c0 57 22 104 65 139c44 35 102 53 173 53z" />
    <glyph glyph-name="sacute" unicode="&#x15b;" horiz-adv-x="506" 
d="M398 707l-102 -140h-67l80 140h89zM46 133l76 17c7 -64 65 -100 145 -100c71 0 118 33 118 84c0 35 -27 59 -81 71l-113 25c-85 18 -128 60 -128 126c0 89 74 149 187 149c108 0 182 -54 201 -137l-73 -16c-11 55 -58 91 -130 91c-68 0 -109 -33 -109 -81
c0 -37 24 -56 75 -68l119 -26c85 -19 127 -62 127 -129c0 -96 -79 -152 -199 -152c-117 0 -203 53 -215 146z" />
    <glyph glyph-name="Scedilla" unicode="&#x15e;" horiz-adv-x="627" 
d="M573 186c0 -112 -84 -187 -217 -198l-72 -158h-83l94 158c-65 5 -120 24 -165 59s-71 82 -78 140l83 17c15 -93 91 -147 196 -147c101 0 163 50 163 125c0 61 -32 88 -109 105l-151 33c-107 24 -161 81 -161 171c0 57 22 104 65 139c44 35 102 53 173 53
c132 0 228 -72 251 -184l-79 -18c-15 81 -82 133 -174 133c-91 0 -152 -49 -152 -121c0 -57 34 -87 101 -100l146 -33c113 -24 169 -82 169 -174z" />
    <glyph glyph-name="scedilla" unicode="&#x15f;" horiz-adv-x="506" 
d="M460 139c0 -85 -62 -139 -162 -150l-72 -159h-83l94 158c-105 7 -180 58 -191 145l76 17c7 -64 65 -100 145 -100c71 0 118 33 118 84c0 35 -27 59 -81 71l-113 25c-85 18 -128 60 -128 126c0 89 74 149 187 149c108 0 182 -54 201 -137l-73 -16c-11 55 -58 91 -130 91
c-68 0 -109 -33 -109 -81c0 -37 24 -56 75 -68l119 -26c85 -19 127 -62 127 -129z" />
    <glyph glyph-name="Scaron" unicode="&#x160;" horiz-adv-x="627" 
d="M357 738h-73l-116 142h77l76 -92l75 92h78zM258 393l146 -33c113 -24 169 -82 169 -174c0 -61 -23 -109 -68 -145s-106 -54 -181 -54c-73 0 -134 18 -185 53c-50 36 -79 85 -87 147l83 17c15 -93 91 -147 196 -147c101 0 163 50 163 125c0 61 -32 88 -109 105l-151 33
c-107 24 -161 81 -161 171c0 57 22 104 65 139c44 35 102 53 173 53c132 0 228 -72 251 -184l-79 -18c-15 81 -82 133 -174 133c-91 0 -152 -49 -152 -121c0 -57 34 -87 101 -100z" />
    <glyph glyph-name="scaron" unicode="&#x161;" horiz-adv-x="506" 
d="M294 560h-73l-116 142h77l76 -92l75 92h78zM214 294l119 -26c85 -19 127 -62 127 -129c0 -96 -79 -152 -199 -152c-117 0 -203 53 -215 146l76 17c7 -64 65 -100 145 -100c71 0 118 33 118 84c0 35 -27 59 -81 71l-113 25c-85 18 -128 60 -128 126c0 89 74 149 187 149
c108 0 182 -54 201 -137l-73 -16c-11 55 -58 91 -130 91c-68 0 -109 -33 -109 -81c0 -37 24 -56 75 -68z" />
    <glyph glyph-name="tcedilla" unicode="&#x163;" horiz-adv-x="394" 
d="M359 89l25 -63c-36 -25 -73 -38 -111 -39l-71 -157h-83l97 164c-68 19 -109 73 -109 160v275h-107v64h107v157h77v-157h176v-64h-176v-270c-5 -94 90 -131 175 -70z" />
    <glyph glyph-name="Tcaron" unicode="&#x164;" horiz-adv-x="627" 
d="M351 738h-73l-116 142h77l76 -92l75 92h78zM602 670v-71h-248v-599h-80v599h-249v71h577z" />
    <glyph glyph-name="tcaron" unicode="&#x165;" horiz-adv-x="394" 
d="M328 718l-16 -172h-61v172h77zM359 89l25 -63c-37 -26 -75 -39 -114 -39c-100 0 -163 60 -163 167v275h-107v64h107v157h77v-157h176v-64h-176v-270c-5 -94 90 -131 175 -70z" />
    <glyph glyph-name="Tbar" unicode="&#x166;" horiz-adv-x="637" 
d="M602 599h-248v-230h132v-66h-132v-303h-80v303h-132v66h132v230h-249v71h577v-71z" />
    <glyph glyph-name="tbar" unicode="&#x167;" horiz-adv-x="394" 
d="M356 89l18 -65c-33 -25 -69 -37 -108 -37c-99 0 -162 60 -162 167v116h-96v63h96v96h-103v64h103v157h76v-157h177v-64h-177v-96h142v-63h-142v-111c0 -63 36 -100 91 -100c28 0 56 10 85 30z" />
    <glyph glyph-name="Umacron" unicode="&#x16a;" horiz-adv-x="721" 
d="M502 824v-62h-284v62h284zM562 670h79v-377c0 -91 -26 -165 -77 -222c-51 -56 -118 -84 -202 -84c-85 0 -153 28 -205 84c-51 57 -77 131 -77 222v377h79v-377c0 -69 18 -125 55 -167s87 -63 148 -63c60 0 108 21 145 63s55 98 55 167v377z" />
    <glyph glyph-name="umacron" unicode="&#x16b;" horiz-adv-x="624" 
d="M449 646v-62h-284v62h284zM460 493h77v-492h-77v80c-42 -62 -104 -93 -186 -93c-59 0 -107 19 -144 58c-36 39 -54 89 -54 152v295h77v-281c0 -92 55 -153 136 -153c105 0 171 72 171 197v237z" />
    <glyph glyph-name="Uring" unicode="&#x16e;" horiz-adv-x="721" 
d="M257 828c0 55 46 100 103 100c29 0 53 -10 73 -30c21 -19 31 -43 31 -70c0 -56 -47 -101 -104 -101s-103 45 -103 101zM360 882c-31 0 -56 -25 -56 -54s25 -54 56 -54c32 0 56 23 56 54c0 29 -24 54 -56 54zM562 670h79v-377c0 -91 -26 -165 -77 -222
c-51 -56 -118 -84 -202 -84c-85 0 -153 28 -205 84c-51 57 -77 131 -77 222v377h79v-377c0 -69 18 -125 55 -167s87 -63 148 -63c60 0 108 21 145 63s55 98 55 167v377z" />
    <glyph glyph-name="uring" unicode="&#x16f;" horiz-adv-x="624" 
d="M204 651c0 55 46 100 103 100c29 0 53 -10 73 -30c21 -19 31 -43 31 -70c0 -56 -47 -101 -104 -101s-103 45 -103 101zM307 705c-31 0 -56 -25 -56 -54s25 -54 56 -54c32 0 56 23 56 54c0 29 -24 54 -56 54zM460 493h77v-492h-77v80c-42 -62 -104 -93 -186 -93
c-59 0 -107 19 -144 58c-36 39 -54 89 -54 152v295h77v-281c0 -92 55 -153 136 -153c105 0 171 72 171 197v237z" />
    <glyph glyph-name="Uhungarumlaut" unicode="&#x170;" horiz-adv-x="721" 
d="M419 885l-104 -140h-70l79 140h95zM469 745h-70l79 140h95zM562 670h79v-377c0 -91 -26 -165 -77 -222c-51 -56 -118 -84 -202 -84c-85 0 -153 28 -205 84c-51 57 -77 131 -77 222v377h79v-377c0 -69 18 -125 55 -167s87 -63 148 -63c60 0 108 21 145 63s55 98 55 167
v377z" />
    <glyph glyph-name="uhungarumlaut" unicode="&#x171;" horiz-adv-x="624" 
d="M366 707l-104 -140h-70l79 140h95zM416 567h-70l79 140h95zM460 493h77v-492h-77v80c-42 -62 -104 -93 -186 -93c-59 0 -107 19 -144 58c-36 39 -54 89 -54 152v295h77v-281c0 -92 55 -153 136 -153c105 0 171 72 171 197v237z" />
    <glyph glyph-name="Uogonek" unicode="&#x172;" horiz-adv-x="721" 
d="M562 670h79v-386c0 -95 -33 -173 -98 -232c-51 -45 -84 -76 -99 -93c-14 -17 -21 -37 -21 -58c0 -27 18 -43 47 -43c9 0 26 4 51 13l15 -50c-31 -15 -59 -22 -84 -22c-56 0 -94 33 -94 82c0 37 20 75 60 113c-18 -5 -37 -7 -56 -7c-84 0 -152 27 -204 82s-78 126 -78 215
v386h79v-386c0 -67 19 -120 56 -161c37 -40 86 -60 147 -60c59 0 107 20 144 61s56 94 56 160v386z" />
    <glyph glyph-name="uogonek" unicode="&#x173;" horiz-adv-x="624" 
d="M556 -135l6 -50c-26 -10 -49 -15 -68 -15c-47 0 -84 26 -84 83c0 36 24 75 71 118h-21v80c-42 -62 -104 -93 -186 -93c-59 0 -107 19 -144 58c-36 39 -54 89 -54 152v295h77v-281c0 -92 55 -153 136 -153c105 0 171 72 171 197v237h77v-492h-18l18 -1
c-27 -29 -46 -50 -55 -63s-14 -27 -14 -42c0 -27 14 -40 42 -40c9 0 24 3 46 10z" />
    <glyph glyph-name="Wcircumflex" unicode="&#x174;" horiz-adv-x="953" 
d="M478 830l-76 -93h-77l116 142h73l117 -142h-78zM853 670h83l-206 -670h-83l-170 544l-171 -544h-82l-206 670h82l167 -549l171 549h77l171 -549z" />
    <glyph glyph-name="wcircumflex" unicode="&#x175;" horiz-adv-x="769" 
d="M386 652l-76 -93h-77l116 142h73l117 -142h-78zM674 493h77l-166 -495h-71l-129 374l-130 -374h-71l-166 495h77l127 -382l132 382h61l132 -382z" />
    <glyph glyph-name="Ycircumflex" unicode="&#x176;" horiz-adv-x="671" 
d="M336 830l-76 -93h-77l116 142h73l117 -142h-78zM653 670l-279 -435v-235h-79v234l-277 436h88l228 -357l228 357h91z" />
    <glyph glyph-name="ycircumflex" unicode="&#x177;" horiz-adv-x="563" 
d="M282 653l-76 -93h-77l116 142h73l117 -142h-78zM460 493h85l-302 -663h-85l81 177l-221 486h86l176 -394z" />
    <glyph glyph-name="Zacute" unicode="&#x179;" horiz-adv-x="626" 
d="M462 885l-102 -140h-67l80 140h89zM170 68h405v-68h-516v50l410 552h-398v68h500v-57z" />
    <glyph glyph-name="zacute" unicode="&#x17a;" horiz-adv-x="506" 
d="M402 707l-102 -140h-67l80 140h89zM135 64h331v-64h-426v52l321 377h-312v64h407v-53z" />
    <glyph glyph-name="Zdotaccent" unicode="&#x17b;" horiz-adv-x="626" 
d="M320 763c-29 0 -51 21 -51 50c0 27 23 49 51 49c29 0 52 -22 52 -49c0 -29 -21 -50 -52 -50zM170 68h405v-68h-516v50l410 552h-398v68h500v-57z" />
    <glyph glyph-name="zdotaccent" unicode="&#x17c;" horiz-adv-x="506" 
d="M260 585c-29 0 -51 21 -51 50c0 27 23 49 51 49c29 0 52 -22 52 -49c0 -29 -21 -50 -52 -50zM135 64h331v-64h-426v52l321 377h-312v64h407v-53z" />
    <glyph glyph-name="Zcaron" unicode="&#x17d;" horiz-adv-x="626" 
d="M358 738h-73l-116 142h77l76 -92l75 92h78zM170 68h405v-68h-516v50l410 552h-398v68h500v-57z" />
    <glyph glyph-name="zcaron" unicode="&#x17e;" horiz-adv-x="506" 
d="M298 560h-73l-116 142h77l76 -92l75 92h78zM135 64h331v-64h-426v52l321 377h-312v64h407v-53z" />
    <glyph glyph-name="AEacute" unicode="&#x1fc;" horiz-adv-x="1040" 
d="M826 885l-102 -140h-67l80 140h89zM590 72h410v-72h-489v155h-300l-109 -155h-92l480 670h509v-71h-409v-227h380v-71h-380v-229zM261 226h250v355z" />
    <glyph glyph-name="aeacute" unicode="&#x1fd;" horiz-adv-x="927" 
d="M599 707l-102 -140h-67l80 140h89zM885 249v-27h-405c9 -104 75 -168 171 -168c60 0 127 37 154 106l69 -16c-13 -46 -40 -84 -83 -113s-90 -44 -141 -44c-95 0 -165 40 -209 120c-37 -73 -117 -120 -212 -120c-119 0 -186 62 -186 149c0 89 72 143 191 143h175v41
c0 72 -53 120 -130 120c-79 0 -128 -38 -139 -101l-70 15c11 91 90 151 210 151c81 0 148 -35 177 -96c46 64 110 96 191 96c67 0 123 -24 168 -72s68 -109 69 -184zM479 279h328c-11 99 -73 161 -156 161c-45 0 -83 -15 -116 -44s-51 -68 -56 -117zM409 212v10h-175
c-73 0 -118 -31 -118 -83c0 -53 45 -89 121 -89c47 0 88 15 121 46c34 31 51 69 51 116z" />
    <glyph glyph-name="Scommaaccent" unicode="&#x218;" horiz-adv-x="627" 
d="M311 683c132 0 228 -72 251 -184l-79 -18c-15 81 -82 133 -174 133c-91 0 -152 -49 -152 -121c0 -57 34 -87 101 -100l146 -33c113 -24 169 -82 169 -174c0 -61 -23 -109 -68 -145s-106 -54 -181 -54c-73 0 -134 18 -185 53c-50 36 -79 85 -87 147l83 17
c15 -93 91 -147 196 -147c101 0 163 50 163 125c0 61 -32 88 -109 105l-151 33c-107 24 -161 81 -161 171c0 57 22 104 65 139c44 35 102 53 173 53zM290 -188h-60l48 143h83z" />
    <glyph glyph-name="scommaaccent" unicode="&#x219;" horiz-adv-x="506" 
d="M46 133l76 17c7 -64 65 -100 145 -100c71 0 118 33 118 84c0 35 -27 59 -81 71l-113 25c-85 18 -128 60 -128 126c0 89 74 149 187 149c108 0 182 -54 201 -137l-73 -16c-11 55 -58 91 -130 91c-68 0 -109 -33 -109 -81c0 -37 24 -56 75 -68l119 -26
c85 -19 127 -62 127 -129c0 -96 -79 -152 -199 -152c-117 0 -203 53 -215 146zM232 -188h-60l48 143h83z" />
    <glyph glyph-name="uni021A" unicode="&#x21a;" horiz-adv-x="627" 
d="M25 670h577v-71h-248v-599h-80v599h-249v71zM226 -188l48 143h83l-71 -143h-60z" />
    <glyph glyph-name="uni021B" unicode="&#x21b;" horiz-adv-x="394" 
d="M270 -13c-100 0 -163 60 -163 167v275h-107v64h107v157h77v-157h176v-64h-176v-270c-5 -94 90 -131 175 -70l25 -63c-37 -26 -75 -39 -114 -39zM148 -188l48 143h83l-71 -143h-60z" />
    <glyph glyph-name="uni0326" unicode="&#x326;" horiz-adv-x="0" 
d="M278 -188h-60l48 143h83z" />
    <glyph glyph-name="Wgrave" unicode="&#x1e80;" horiz-adv-x="953" 
d="M508 745h-66l-102 140h89zM853 670h83l-206 -670h-83l-170 544l-171 -544h-82l-206 670h82l167 -549l171 549h77l171 -549z" />
    <glyph glyph-name="wgrave" unicode="&#x1e81;" horiz-adv-x="769" 
d="M416 567h-66l-102 140h89zM674 493h77l-166 -495h-71l-129 374l-130 -374h-71l-166 495h77l127 -382l132 382h61l132 -382z" />
    <glyph glyph-name="Wacute" unicode="&#x1e82;" horiz-adv-x="953" 
d="M618 885l-102 -140h-67l80 140h89zM853 670h83l-206 -670h-83l-170 544l-171 -544h-82l-206 670h82l167 -549l171 549h77l171 -549z" />
    <glyph glyph-name="wacute" unicode="&#x1e83;" horiz-adv-x="769" 
d="M526 707l-102 -140h-67l80 140h89zM674 493h77l-166 -495h-71l-129 374l-130 -374h-71l-166 495h77l127 -382l132 382h61l132 -382z" />
    <glyph glyph-name="Wdieresis" unicode="&#x1e84;" horiz-adv-x="953" 
d="M378 755c-29 0 -52 22 -52 51c0 28 23 51 52 51s53 -23 53 -51c0 -29 -22 -51 -53 -51zM576 755c-29 0 -52 22 -52 51c0 28 23 51 52 51s53 -23 53 -51c0 -29 -22 -51 -53 -51zM853 670h83l-206 -670h-83l-170 544l-171 -544h-82l-206 670h82l167 -549l171 549h77
l171 -549z" />
    <glyph glyph-name="wdieresis" unicode="&#x1e85;" horiz-adv-x="769" 
d="M286 577c-29 0 -52 22 -52 51c0 28 23 51 52 51s53 -23 53 -51c0 -29 -22 -51 -53 -51zM484 577c-29 0 -52 22 -52 51c0 28 23 51 52 51s53 -23 53 -51c0 -29 -22 -51 -53 -51zM674 493h77l-166 -495h-71l-129 374l-130 -374h-71l-166 495h77l127 -382l132 382h61
l132 -382z" />
    <glyph glyph-name="Ygrave" unicode="&#x1ef2;" horiz-adv-x="671" 
d="M367 745h-66l-102 140h89zM653 670l-279 -435v-235h-79v234l-277 436h88l228 -357l228 357h91z" />
    <glyph glyph-name="ygrave" unicode="&#x1ef3;" horiz-adv-x="563" 
d="M313 568h-66l-102 140h89zM460 493h85l-302 -663h-85l81 177l-221 486h86l176 -394z" />
    <glyph glyph-name="uni2116" unicode="&#x2116;" horiz-adv-x="1223" 
d="M962 342c-47 0 -87 16 -121 47c-33 32 -50 73 -50 122s17 90 50 121c34 32 74 48 121 48c49 0 90 -16 123 -48c33 -31 50 -72 50 -121s-17 -90 -50 -122c-33 -31 -74 -47 -123 -47zM594 132v538h79v-670h-68l-438 532v-532h-79v670h68zM962 622c-29 0 -54 -11 -76 -32
c-21 -21 -32 -47 -32 -79s11 -59 32 -80c22 -21 47 -31 76 -31c61 0 111 47 111 111s-50 111 -111 111zM801 201v64h324v-64h-324z" />
    <glyph glyph-name="uni2117" unicode="&#x2117;" horiz-adv-x="775" 
d="M733 333c0 -99 -34 -182 -101 -248c-67 -65 -149 -98 -246 -98s-179 33 -246 98c-67 66 -101 149 -101 248c0 101 34 184 101 250c67 67 149 100 246 100s179 -33 246 -100c67 -66 101 -149 101 -250zM692 334c0 89 -30 163 -90 222c-59 59 -131 89 -216 89
s-157 -30 -217 -89c-59 -59 -89 -133 -89 -222c0 -88 30 -161 89 -220c60 -59 132 -88 217 -88s157 29 216 88c60 59 90 132 90 220zM260 145v372h161c85 0 140 -50 140 -125c0 -76 -55 -126 -140 -126h-112v-121h-49zM309 472v-161h109c57 0 95 32 95 81
c0 48 -38 80 -95 80h-109z" />
    <glyph glyph-name="oneeighth" unicode="&#x215b;" horiz-adv-x="758" 
d="M107 301v292l-83 -51v62l103 66h38v-369h-58zM561 670h55l-501 -670h-55zM648 191c54 -15 81 -47 81 -95c0 -63 -58 -106 -145 -106c-88 0 -146 43 -146 106c0 49 27 80 81 95c-45 15 -67 43 -67 83c0 56 57 98 133 98c75 0 131 -42 131 -98c0 -40 -23 -68 -68 -83z
M504 268c0 -32 35 -57 80 -57s78 24 79 57c1 37 -32 61 -79 61s-80 -24 -80 -61zM584 37c51 0 85 26 85 65c0 37 -33 64 -85 64c-53 0 -87 -27 -87 -64c0 -39 35 -65 87 -65z" />
    <glyph glyph-name="threeeighths" unicode="&#x215c;" horiz-adv-x="847" 
d="M307 412c0 -65 -56 -114 -135 -114c-80 0 -140 48 -141 124l49 11c1 -55 39 -86 92 -86c48 0 80 27 80 66c0 37 -31 60 -79 60h-37v42h33c45 0 77 21 77 56c0 37 -32 62 -77 62c-48 0 -82 -29 -83 -80l-51 11c4 71 58 116 134 116s130 -44 130 -107
c0 -36 -18 -62 -55 -77c42 -15 63 -43 63 -84zM643 670h55l-501 -670h-55zM730 191c54 -15 81 -47 81 -95c0 -63 -58 -106 -145 -106c-88 0 -146 43 -146 106c0 49 27 80 81 95c-45 15 -67 43 -67 83c0 56 57 98 133 98c75 0 131 -42 131 -98c0 -40 -23 -68 -68 -83z
M586 268c0 -32 35 -57 80 -57s78 24 79 57c1 37 -32 61 -79 61s-80 -24 -80 -61zM666 37c51 0 85 26 85 65c0 37 -33 64 -85 64c-53 0 -87 -27 -87 -64c0 -39 35 -65 87 -65z" />
    <glyph glyph-name="fiveeighths" unicode="&#x215d;" horiz-adv-x="829" 
d="M312 418c0 -75 -56 -124 -140 -124c-75 0 -134 46 -142 109l56 9c7 -41 42 -68 86 -68c51 0 85 28 85 72c0 41 -35 67 -84 67h-124l9 187h236v-51h-186l-4 -87h83c73 0 125 -45 125 -114zM640 670h55l-501 -670h-55zM719 191c54 -15 81 -47 81 -95
c0 -63 -58 -106 -145 -106c-88 0 -146 43 -146 106c0 49 27 80 81 95c-45 15 -67 43 -67 83c0 56 57 98 133 98c75 0 131 -42 131 -98c0 -40 -23 -68 -68 -83zM575 268c0 -32 35 -57 80 -57s78 24 79 57c1 37 -32 61 -79 61s-80 -24 -80 -61zM655 37c51 0 85 26 85 65
c0 37 -33 64 -85 64c-53 0 -87 -27 -87 -64c0 -39 35 -65 87 -65z" />
    <glyph glyph-name="seveneighths" unicode="&#x215e;" horiz-adv-x="727" 
d="M52 301l156 318h-201v51h265v-44l-156 -325h-64zM540 670h55l-501 -670h-55zM617 191c54 -15 81 -47 81 -95c0 -63 -58 -106 -145 -106c-88 0 -146 43 -146 106c0 49 27 80 81 95c-45 15 -67 43 -67 83c0 56 57 98 133 98c75 0 131 -42 131 -98c0 -40 -23 -68 -68 -83z
M473 268c0 -32 35 -57 80 -57s78 24 79 57c1 37 -32 61 -79 61s-80 -24 -80 -61zM553 37c51 0 85 26 85 65c0 37 -33 64 -85 64c-53 0 -87 -27 -87 -64c0 -39 35 -65 87 -65z" />
    <glyph glyph-name="arrowleft" unicode="&#x2190;" horiz-adv-x="727" 
d="M687 364v-79h-526l239 -238l-56 -57l-334 334l334 334l56 -56l-238 -238h525z" />
    <glyph glyph-name="arrowup" unicode="&#x2191;" horiz-adv-x="748" 
d="M708 344l-57 -56l-237 237v-525h-79v526l-238 -239l-57 56l334 334z" />
    <glyph glyph-name="arrowright" unicode="&#x2192;" horiz-adv-x="727" 
d="M383 658l334 -334l-333 -334l-56 57l238 238h-526v79h525l-238 238z" />
    <glyph glyph-name="arrowdown" unicode="&#x2193;" horiz-adv-x="748" 
d="M651 383l57 -56l-334 -334l-334 334l57 56l238 -239v526h79v-525z" />
    <glyph glyph-name="uni2196" unicode="&#x2196;" horiz-adv-x="746" 
d="M706 50l-55 -57l-542 543v-358h-79v492h492v-79h-357z" />
    <glyph glyph-name="uni2197" unicode="&#x2197;" horiz-adv-x="746" 
d="M225 670h491v-492h-79v357l-541 -542l-56 57l542 541h-357v79z" />
    <glyph glyph-name="uni2198" unicode="&#x2198;" horiz-adv-x="746" 
d="M637 493h79v-493h-491v79h357l-542 542l56 56l541 -541v357z" />
    <glyph glyph-name="uni2199" unicode="&#x2199;" horiz-adv-x="746" 
d="M706 621l-541 -542h357v-79h-492v493h79v-358l542 542z" />
    <glyph glyph-name="minus" unicode="&#x2212;" horiz-adv-x="580" 
d="M510 339v-68h-440v68h440z" />
    <glyph glyph-name="K.ss03" horiz-adv-x="704" 
d="M384 383l305 -383h-100l-258 326l-164 -177v-149h-79v670h79v-424l390 424h92z" />
    <glyph glyph-name="Kcommaaccent.ss03" horiz-adv-x="704" 
d="M384 383l305 -383h-100l-258 326l-164 -177v-149h-79v670h79v-424l390 424h92zM275 -188l48 143h83l-71 -143h-60z" />
    <glyph glyph-name="Q.ss04" horiz-adv-x="803" 
d="M783 -170h-109l-146 180c-40 -15 -82 -23 -126 -23c-97 0 -180 34 -247 101s-100 150 -100 247s33 180 100 247s150 101 247 101s178 -34 245 -101s101 -150 101 -247c0 -117 -56 -222 -145 -285zM135 335c0 -77 26 -142 77 -195c51 -52 115 -78 190 -78s138 26 189 78
c51 53 77 118 77 195s-26 141 -77 194s-114 80 -189 80s-139 -27 -190 -80s-77 -117 -77 -194z" />
    <glyph glyph-name="I.ss05" horiz-adv-x="439" 
d="M414 599h-155v-527h155v-72h-389v72h155v527h-155v71h389v-71z" />
    <glyph glyph-name="IJ.ss05" horiz-adv-x="1034" 
d="M25 670h389v-71h-155v-527h155v-72h-389v72h155v527h-155v71zM625 670h330v-426c0 -75 -23 -137 -69 -185c-45 -48 -105 -72 -179 -72c-67 0 -122 20 -165 59c-43 40 -70 92 -79 157l75 17c12 -97 74 -161 169 -161c50 0 91 17 122 52s47 79 47 133v355h-251v71z" />
    <glyph glyph-name="Iacute.ss05" horiz-adv-x="439" 
d="M360 885l-102 -140h-67l80 140h89zM414 599h-155v-527h155v-72h-389v72h155v527h-155v71h389v-71z" />
    <glyph glyph-name="Icircumflex.ss05" horiz-adv-x="439" 
d="M220 830l-76 -93h-77l116 142h73l117 -142h-78zM414 599h-155v-527h155v-72h-389v72h155v527h-155v71h389v-71z" />
    <glyph glyph-name="Idieresis.ss05" horiz-adv-x="439" 
d="M120 755c-29 0 -52 22 -52 51c0 28 23 51 52 51s53 -23 53 -51c0 -29 -22 -51 -53 -51zM318 755c-29 0 -52 22 -52 51c0 28 23 51 52 51s53 -23 53 -51c0 -29 -22 -51 -53 -51zM414 599h-155v-527h155v-72h-389v72h155v527h-155v71h389v-71z" />
    <glyph glyph-name="Idotaccent.ss05" horiz-adv-x="439" 
d="M219 763c-29 0 -51 21 -51 50c0 27 23 49 51 49c29 0 52 -22 52 -49c0 -29 -21 -50 -52 -50zM414 599h-155v-527h155v-72h-389v72h155v527h-155v71h389v-71z" />
    <glyph glyph-name="Igrave.ss05" horiz-adv-x="439" 
d="M251 745h-66l-102 140h89zM414 599h-155v-527h155v-72h-389v72h155v527h-155v71h389v-71z" />
    <glyph glyph-name="Imacron.ss05" horiz-adv-x="439" 
d="M361 824v-62h-284v62h284zM414 599h-155v-527h155v-72h-389v72h155v527h-155v71h389v-71z" />
    <glyph glyph-name="Iogonek.ss05" horiz-adv-x="439" 
d="M414 599h-155v-527h155v-72h-155c-27 -29 -46 -50 -55 -63s-14 -27 -14 -42c0 -27 14 -40 42 -40c9 0 24 3 46 10l6 -50c-26 -10 -49 -15 -68 -15c-47 0 -84 26 -84 83c0 37 23 76 70 117h-177v72h155v527h-155v71h389v-71z" />
    <glyph glyph-name="J.ss05" horiz-adv-x="595" 
d="M186 670h330v-426c0 -75 -23 -137 -69 -185c-45 -48 -105 -72 -179 -72c-67 0 -122 20 -165 59c-43 40 -70 92 -79 157l75 17c12 -97 74 -161 169 -161c50 0 91 17 122 52s47 79 47 133v355h-251v71z" />
    <glyph glyph-name="i.loclTRK" horiz-adv-x="279" 
d="M139 684c29 0 52 -22 52 -49c0 -29 -21 -50 -52 -50c-29 0 -51 21 -51 50c0 27 23 49 51 49zM178 493v-493h-77v493h77z" />
    <glyph glyph-name="germandbls.case" horiz-adv-x="1233" 
d="M311 683c132 0 228 -72 251 -184l-79 -18c-15 81 -82 133 -174 133c-91 0 -152 -49 -152 -121c0 -57 34 -87 101 -100l146 -33c113 -24 169 -82 169 -174c0 -61 -23 -109 -68 -145s-106 -54 -181 -54c-73 0 -134 18 -185 53c-50 36 -79 85 -87 147l83 17
c15 -93 91 -147 196 -147c101 0 163 50 163 125c0 61 -32 88 -109 105l-151 33c-107 24 -161 81 -161 171c0 57 22 104 65 139c44 35 102 53 173 53zM918 683c132 0 228 -72 251 -184l-79 -18c-15 81 -82 133 -174 133c-91 0 -152 -49 -152 -121c0 -57 34 -87 101 -100
l146 -33c113 -24 169 -82 169 -174c0 -61 -23 -109 -68 -145s-106 -54 -181 -54c-73 0 -134 18 -185 53c-50 36 -79 85 -87 147l83 17c15 -93 91 -147 196 -147c101 0 163 50 163 125c0 61 -32 88 -109 105l-151 33c-107 24 -161 81 -161 171c0 57 22 104 65 139
c44 35 102 53 173 53z" />
    <glyph glyph-name="a.ss01" horiz-adv-x="545" 
d="M277 505c125 0 204 -68 204 -185v-320h-74v75c-44 -59 -106 -88 -185 -88c-108 0 -179 62 -179 151c0 92 73 154 198 154h166v23c0 76 -49 123 -126 123c-75 0 -127 -38 -138 -99l-73 16c16 89 99 150 207 150zM233 50c49 0 90 15 123 45c34 30 51 67 51 111v26h-167
c-79 0 -124 -37 -124 -93c0 -52 46 -89 117 -89z" />
    <glyph glyph-name="aacute.ss01" horiz-adv-x="545" 
d="M421 707l-102 -140h-67l80 140h89zM277 505c125 0 204 -68 204 -185v-320h-74v75c-44 -59 -106 -88 -185 -88c-108 0 -179 62 -179 151c0 92 73 154 198 154h166v23c0 76 -49 123 -126 123c-75 0 -127 -38 -138 -99l-73 16c16 89 99 150 207 150zM233 50
c49 0 90 15 123 45c34 30 51 67 51 111v26h-167c-79 0 -124 -37 -124 -93c0 -52 46 -89 117 -89z" />
    <glyph glyph-name="abreve.ss01" horiz-adv-x="545" 
d="M135 690h64c0 -48 34 -80 81 -80s81 32 81 80h64c0 -81 -58 -135 -145 -135s-145 54 -145 135zM277 505c125 0 204 -68 204 -185v-320h-74v75c-44 -59 -106 -88 -185 -88c-108 0 -179 62 -179 151c0 92 73 154 198 154h166v23c0 76 -49 123 -126 123
c-75 0 -127 -38 -138 -99l-73 16c16 89 99 150 207 150zM233 50c49 0 90 15 123 45c34 30 51 67 51 111v26h-167c-79 0 -124 -37 -124 -93c0 -52 46 -89 117 -89z" />
    <glyph glyph-name="acircumflex.ss01" horiz-adv-x="545" 
d="M281 652l-76 -93h-77l116 142h73l117 -142h-78zM277 505c125 0 204 -68 204 -185v-320h-74v75c-44 -59 -106 -88 -185 -88c-108 0 -179 62 -179 151c0 92 73 154 198 154h166v23c0 76 -49 123 -126 123c-75 0 -127 -38 -138 -99l-73 16c16 89 99 150 207 150zM233 50
c49 0 90 15 123 45c34 30 51 67 51 111v26h-167c-79 0 -124 -37 -124 -93c0 -52 46 -89 117 -89z" />
    <glyph glyph-name="adieresis.ss01" horiz-adv-x="545" 
d="M181 577c-29 0 -52 22 -52 51c0 28 23 51 52 51s53 -23 53 -51c0 -29 -22 -51 -53 -51zM379 577c-29 0 -52 22 -52 51c0 28 23 51 52 51s53 -23 53 -51c0 -29 -22 -51 -53 -51zM277 505c125 0 204 -68 204 -185v-320h-74v75c-44 -59 -106 -88 -185 -88
c-108 0 -179 62 -179 151c0 92 73 154 198 154h166v23c0 76 -49 123 -126 123c-75 0 -127 -38 -138 -99l-73 16c16 89 99 150 207 150zM233 50c49 0 90 15 123 45c34 30 51 67 51 111v26h-167c-79 0 -124 -37 -124 -93c0 -52 46 -89 117 -89z" />
    <glyph glyph-name="agrave.ss01" horiz-adv-x="545" 
d="M311 567h-66l-102 140h89zM277 505c125 0 204 -68 204 -185v-320h-74v75c-44 -59 -106 -88 -185 -88c-108 0 -179 62 -179 151c0 92 73 154 198 154h166v23c0 76 -49 123 -126 123c-75 0 -127 -38 -138 -99l-73 16c16 89 99 150 207 150zM233 50c49 0 90 15 123 45
c34 30 51 67 51 111v26h-167c-79 0 -124 -37 -124 -93c0 -52 46 -89 117 -89z" />
    <glyph glyph-name="amacron.ss01" horiz-adv-x="545" 
d="M422 646v-62h-284v62h284zM277 505c125 0 204 -68 204 -185v-320h-74v75c-44 -59 -106 -88 -185 -88c-108 0 -179 62 -179 151c0 92 73 154 198 154h166v23c0 76 -49 123 -126 123c-75 0 -127 -38 -138 -99l-73 16c16 89 99 150 207 150zM233 50c49 0 90 15 123 45
c34 30 51 67 51 111v26h-167c-79 0 -124 -37 -124 -93c0 -52 46 -89 117 -89z" />
    <glyph glyph-name="aogonek.ss01" horiz-adv-x="545" 
d="M502 -135l6 -50c-26 -10 -49 -15 -68 -15c-47 0 -84 26 -84 83c0 37 23 76 70 117h-19v75c-44 -59 -106 -88 -185 -88c-108 0 -179 62 -179 151c0 92 73 154 198 154h166v23c0 76 -49 123 -126 123c-75 0 -127 -38 -138 -99l-73 16c16 89 99 150 207 150
c125 0 204 -68 204 -185v-320h2c-27 -29 -46 -50 -55 -63s-14 -27 -14 -42c0 -27 14 -40 42 -40c9 0 24 3 46 10zM233 50c49 0 90 15 123 45c34 30 51 67 51 111v26h-167c-79 0 -124 -37 -124 -93c0 -52 46 -89 117 -89z" />
    <glyph glyph-name="aring.ss01" horiz-adv-x="545" 
d="M177 651c0 55 46 100 103 100c29 0 53 -10 73 -30c21 -19 31 -43 31 -70c0 -56 -47 -101 -104 -101s-103 45 -103 101zM280 705c-31 0 -56 -25 -56 -54s25 -54 56 -54c32 0 56 23 56 54c0 29 -24 54 -56 54zM277 505c125 0 204 -68 204 -185v-320h-74v75
c-44 -59 -106 -88 -185 -88c-108 0 -179 62 -179 151c0 92 73 154 198 154h166v23c0 76 -49 123 -126 123c-75 0 -127 -38 -138 -99l-73 16c16 89 99 150 207 150zM233 50c49 0 90 15 123 45c34 30 51 67 51 111v26h-167c-79 0 -124 -37 -124 -93c0 -52 46 -89 117 -89z" />
    <glyph glyph-name="atilde.ss01" horiz-adv-x="545" 
d="M223 637c-23 0 -37 -18 -37 -45h-54c0 69 39 102 87 102c21 0 43 -8 66 -24s42 -24 56 -24c23 0 37 19 37 47h54c0 -71 -39 -104 -87 -104c-21 0 -44 8 -67 24s-41 24 -55 24zM277 505c125 0 204 -68 204 -185v-320h-74v75c-44 -59 -106 -88 -185 -88
c-108 0 -179 62 -179 151c0 92 73 154 198 154h166v23c0 76 -49 123 -126 123c-75 0 -127 -38 -138 -99l-73 16c16 89 99 150 207 150zM233 50c49 0 90 15 123 45c34 30 51 67 51 111v26h-167c-79 0 -124 -37 -124 -93c0 -52 46 -89 117 -89z" />
    <glyph glyph-name="l.ss02" horiz-adv-x="312" 
d="M78 720h76v-594c0 -40 27 -66 70 -66c19 0 39 5 59 16l16 -64c-29 -17 -58 -25 -87 -25c-81 0 -134 54 -134 135v598z" />
    <glyph glyph-name="lacute.ss02" horiz-adv-x="312" 
d="M255 935l-102 -140h-67l80 140h89zM78 720h76v-594c0 -40 27 -66 70 -66c19 0 39 5 59 16l16 -64c-29 -17 -58 -25 -87 -25c-81 0 -134 54 -134 135v598z" />
    <glyph glyph-name="lcaron.ss02" horiz-adv-x="312" 
d="M78 720h76v-594c0 -40 27 -66 70 -66c19 0 39 5 59 16l16 -64c-29 -17 -58 -25 -87 -25c-81 0 -134 54 -134 135v598zM302 720l-16 -172h-61v172h77z" />
    <glyph glyph-name="lcommaaccent.ss02" horiz-adv-x="312" 
d="M78 720h76v-594c0 -40 27 -66 70 -66c19 0 39 5 59 16l16 -64c-29 -17 -58 -25 -87 -25c-81 0 -134 54 -134 135v598zM157 -188h-60l48 143h83z" />
    <glyph glyph-name="ldot.ss02" horiz-adv-x="358" 
d="M88 720h76v-594c0 -40 27 -66 70 -66c19 0 39 5 59 16l16 -64c-29 -17 -58 -25 -87 -25c-81 0 -134 54 -134 135v598zM298 388c29 0 52 -22 52 -49c0 -29 -21 -50 -52 -50c-29 0 -51 21 -51 50c0 27 23 49 51 49z" />
    <glyph glyph-name="lslash.ss02" horiz-adv-x="339" 
d="M311 76l16 -64c-29 -17 -58 -25 -88 -25c-80 0 -134 54 -134 135v163l-75 -47v75l75 47v360h77v-312l89 55v-75l-89 -55v-207c0 -40 27 -66 70 -66c19 0 39 5 59 16z" />
    <glyph glyph-name="k.ss03" horiz-adv-x="599" 
d="M334 286l255 -286h-97l-210 232l-118 -124v-108h-76v720h76v-510l275 283h92z" />
    <glyph glyph-name="kcommaaccent.ss03" horiz-adv-x="599" 
d="M334 286l255 -286h-97l-210 232l-118 -124v-108h-76v720h76v-510l275 283h92zM227 -188l48 143h83l-71 -143h-60z" />
    <glyph glyph-name="f_j" horiz-adv-x="647" 
d="M182 493h369v-549c0 -75 -49 -124 -124 -124c-28 0 -55 6 -81 17l17 66c17 -7 32 -11 47 -11c39 0 65 24 65 61v476h-293v-429h-76v429h-86v64h86v73c0 104 66 171 170 171c33 0 64 -8 92 -24l-20 -62c-21 11 -44 17 -67 17c-61 0 -99 -39 -99 -102v-73zM512 591
c-29 0 -52 22 -52 51c0 28 23 51 52 51s53 -23 53 -51c0 -29 -22 -51 -53 -51z" />
    <glyph glyph-name="f_t" horiz-adv-x="750" 
d="M715 89l25 -63c-37 -26 -75 -39 -114 -39c-100 0 -163 60 -163 167v275h-281v-429h-76v429h-86v64h86v73c0 104 66 171 170 171c33 0 64 -8 92 -24l-20 -62c-21 11 -44 17 -67 17c-61 0 -99 -39 -99 -102v-73h281v157h77v-157h176v-64h-176v-270c-5 -94 90 -131 175 -70z
" />
    <glyph glyph-name="fl.ss02" horiz-adv-x="668" 
d="M182 566v-73h179v-64h-179v-429h-76v429h-86v64h86v73c0 104 66 171 169 171c29 0 56 -6 80 -18l-19 -62c-19 7 -37 11 -56 11c-60 0 -98 -39 -98 -102zM640 76l16 -64c-29 -17 -58 -25 -88 -25c-80 0 -134 54 -134 135v598h77v-594c0 -40 27 -66 70 -66c19 0 39 5 59 16
z" />
    <glyph glyph-name="zero.tf" 
d="M35 335c0 103 25 187 74 251c50 65 115 97 196 97s146 -32 195 -96c50 -64 75 -148 75 -252s-25 -188 -75 -252c-49 -64 -114 -96 -195 -96s-146 32 -196 96c-49 64 -74 148 -74 252zM167 136c35 -50 81 -75 138 -75s103 25 138 75c35 51 52 117 52 199s-17 148 -52 199
s-81 76 -138 76s-103 -25 -138 -76s-52 -117 -52 -199s17 -148 52 -199z" />
    <glyph glyph-name="one.tf" 
d="M365 72h184v-72h-469v72h208v502l-198 -101v73l226 124h49v-598z" />
    <glyph glyph-name="two.tf" 
d="M217 72h326v-72h-451v51l239 223c32 29 55 52 69 67c29 31 59 83 59 136c0 81 -58 137 -145 137c-92 0 -150 -59 -153 -160l-73 15c2 65 24 116 65 155s95 59 162 59c65 0 118 -19 159 -57c41 -37 61 -87 61 -148c0 -46 -12 -87 -35 -122s-64 -80 -122 -134z" />
    <glyph glyph-name="three.tf" 
d="M440 343c72 -20 114 -75 114 -151c0 -61 -21 -111 -63 -149c-42 -37 -97 -56 -165 -56c-71 0 -128 20 -172 60s-68 93 -72 158l74 15c7 -100 70 -163 170 -163c92 0 156 54 156 134c0 75 -56 120 -149 120h-68v63h63c85 0 140 45 140 114c0 75 -58 125 -146 125
c-92 0 -153 -56 -158 -155l-73 14c5 63 28 114 69 153c42 39 96 58 163 58c65 0 118 -18 158 -54s60 -83 60 -141c0 -71 -38 -124 -101 -145z" />
    <glyph glyph-name="four.tf" 
d="M576 226v-65h-100v-161h-77v161h-357v76l334 433h100v-444h100zM120 226h279v360z" />
    <glyph glyph-name="five.tf" 
d="M190 599l-9 -194h138c136 0 221 -73 221 -201c0 -64 -22 -116 -65 -157c-43 -40 -100 -60 -171 -60c-70 0 -128 21 -173 62s-68 97 -69 168l77 15c0 -108 67 -173 167 -173c95 0 158 57 158 144c0 85 -57 131 -150 131h-211l15 336h396v-71h-324z" />
    <glyph glyph-name="six.tf" 
d="M335 433c69 0 125 -21 166 -62c42 -41 63 -94 63 -158c0 -65 -22 -119 -65 -162s-100 -64 -170 -64c-167 0 -264 122 -264 330c0 134 30 232 91 293c47 49 106 73 177 73c105 0 187 -54 212 -147l-76 -15c-17 61 -64 92 -139 92c-50 0 -91 -18 -123 -53
c-50 -54 -72 -132 -67 -233c35 64 112 106 195 106zM327 59c46 0 84 15 113 44c30 30 45 67 45 111s-15 80 -45 109c-29 29 -67 44 -113 44c-47 0 -86 -15 -116 -46c-30 -30 -45 -67 -45 -110c0 -44 16 -80 47 -109s69 -43 114 -43z" />
    <glyph glyph-name="seven.tf" 
d="M48 670h504v-54l-314 -616h-89l309 599h-410v71z" />
    <glyph glyph-name="eight.tf" 
d="M414 343c96 -24 145 -91 145 -166c0 -57 -23 -103 -68 -138s-104 -52 -177 -52c-74 0 -134 17 -179 52s-68 81 -68 138c0 75 50 141 145 166c-84 25 -126 87 -126 163c0 53 21 96 62 128c42 33 97 49 166 49s124 -16 165 -49c41 -32 62 -75 62 -128
c0 -75 -43 -138 -127 -163zM164 500c-1 -71 58 -118 149 -118s150 48 150 119s-62 117 -150 117s-149 -46 -149 -118zM313 55c93 0 160 50 160 126c0 75 -64 126 -160 126c-95 0 -159 -51 -159 -127c0 -77 64 -125 159 -125z" />
    <glyph glyph-name="nine.tf" 
d="M282 682c167 0 264 -122 264 -330c0 -132 -30 -230 -91 -293c-47 -49 -106 -73 -177 -73c-105 0 -186 55 -213 148l76 14c19 -61 65 -92 140 -92c49 0 90 18 123 53c49 53 71 132 67 235c-33 -65 -112 -108 -195 -108c-70 0 -126 21 -167 62s-62 94 -62 159
s22 119 65 161c43 43 100 64 170 64zM283 302c47 0 86 15 116 45c30 31 45 68 45 111c0 45 -16 81 -47 110s-69 43 -114 43s-83 -15 -113 -45c-30 -29 -45 -66 -45 -110s15 -81 44 -110c30 -29 68 -44 114 -44z" />
    <glyph glyph-name="zero.zero.tf" 
d="M35 335c0 103 25 187 74 251c50 65 115 97 196 97s146 -32 195 -96c50 -64 75 -148 75 -252s-25 -188 -75 -252c-49 -64 -114 -96 -195 -96s-146 32 -196 96c-49 64 -74 148 -74 252zM305 610c-57 0 -103 -25 -138 -76s-52 -117 -52 -199c0 -59 9 -109 27 -151l286 369
c-33 38 -74 57 -123 57zM305 61c57 0 103 25 138 75c35 51 52 117 52 199c0 64 -11 119 -32 165l-289 -372c34 -45 78 -67 131 -67z" />
    <glyph glyph-name="zero.zero" horiz-adv-x="650" 
d="M333 -13c-83 0 -151 32 -202 96s-76 148 -76 252c0 103 26 187 77 251c51 65 118 97 201 97s149 -32 200 -96s77 -148 77 -252s-26 -188 -77 -252s-117 -96 -200 -96zM333 610c-60 0 -108 -25 -144 -76s-54 -117 -54 -199c0 -55 9 -104 26 -146l290 374
c-33 31 -73 47 -118 47zM333 61c59 0 107 25 143 75c36 51 54 117 54 199c0 71 -14 131 -42 179l-296 -382c36 -47 83 -71 141 -71z" />
    <glyph glyph-name="zero.dnom" horiz-adv-x="392" 
d="M196 372c96 0 158 -76 158 -191c0 -116 -62 -192 -158 -192c-95 0 -157 77 -157 192s62 191 157 191zM196 42c59 0 97 54 97 139s-38 139 -97 139c-57 0 -95 -55 -95 -139c0 -85 38 -139 95 -139z" />
    <glyph glyph-name="one.dnom" horiz-adv-x="231" 
d="M165 369v-370h-58v293l-83 -51v62l103 66h38z" />
    <glyph glyph-name="two.dnom" horiz-adv-x="330" 
d="M121 51h175v-52h-268v39l140 120c52 44 70 65 70 101c0 40 -30 68 -75 68c-49 0 -79 -33 -80 -86l-51 11c0 73 51 124 131 124c79 0 131 -45 131 -117c0 -51 -28 -86 -89 -137z" />
    <glyph glyph-name="three.dnom" horiz-adv-x="337" 
d="M244 188c42 -15 63 -43 63 -84c0 -65 -56 -114 -135 -114c-80 0 -140 48 -141 124l49 11c1 -55 39 -86 92 -86c48 0 80 27 80 66c0 37 -31 60 -79 60h-37v42h33c45 0 77 21 77 56c0 37 -32 62 -77 62c-48 0 -82 -29 -83 -80l-51 11c4 71 58 116 134 116s130 -44 130 -107
c0 -36 -18 -62 -55 -77z" />
    <glyph glyph-name="four.dnom" horiz-adv-x="366" 
d="M341 131v-48h-58v-83h-55v83h-203v54l191 232h67v-238h58zM82 131h146v176z" />
    <glyph glyph-name="five.dnom" horiz-adv-x="340" 
d="M108 315l-4 -87h83c73 0 125 -45 125 -114c0 -75 -56 -124 -140 -124c-75 0 -134 46 -142 109l56 9c7 -41 42 -68 86 -68c51 0 85 28 85 72c0 41 -35 67 -84 67h-124l9 187h236v-51h-186z" />
    <glyph glyph-name="six.dnom" horiz-adv-x="355" 
d="M196 238c76 0 127 -51 127 -123c0 -73 -55 -125 -135 -125c-97 0 -153 67 -153 179c0 73 18 128 53 163c27 27 61 40 102 40c65 0 114 -33 126 -92l-57 -9c-7 35 -31 53 -71 53c-25 0 -45 -9 -61 -26c-20 -23 -31 -57 -34 -103c24 29 58 43 103 43zM186 37
c49 0 83 35 83 80c0 44 -35 79 -83 79c-51 0 -85 -36 -85 -80c0 -45 37 -79 85 -79z" />
    <glyph glyph-name="seven.dnom" horiz-adv-x="282" 
d="M7 369h265v-44l-156 -325h-64l156 318h-201v51z" />
    <glyph glyph-name="eight.dnom" horiz-adv-x="355" 
d="M242 191c54 -15 81 -47 81 -95c0 -63 -58 -106 -145 -106c-88 0 -146 43 -146 106c0 49 27 80 81 95c-45 15 -67 43 -67 83c0 56 57 98 133 98c75 0 131 -42 131 -98c0 -40 -23 -68 -68 -83zM98 268c0 -32 35 -57 80 -57s78 24 79 57c1 37 -32 61 -79 61s-80 -24 -80 -61
zM178 37c51 0 85 26 85 65c0 37 -33 64 -85 64c-53 0 -87 -27 -87 -64c0 -39 35 -65 87 -65z" />
    <glyph glyph-name="nine.dnom" horiz-adv-x="355" 
d="M167 372c97 0 153 -66 153 -179c0 -73 -18 -128 -53 -163c-27 -27 -60 -40 -101 -40c-67 0 -115 34 -126 93l56 8c7 -35 31 -53 72 -53c25 0 45 9 61 27c20 23 31 57 34 102c-25 -28 -59 -42 -103 -42c-76 0 -127 51 -127 123s54 124 134 124zM169 167c51 0 85 36 85 80
c6 69 -98 104 -144 55c-49 -44 -15 -141 59 -135z" />
    <glyph glyph-name="zero.numr" horiz-adv-x="392" 
d="M196 680c96 0 158 -76 158 -191s-62 -191 -158 -191c-95 0 -157 76 -157 191s62 191 157 191zM196 350c59 0 97 54 97 139s-38 139 -97 139c-57 0 -95 -55 -95 -139c0 -85 38 -139 95 -139z" />
    <glyph glyph-name="one.numr" horiz-adv-x="231" 
d="M165 670v-369h-58v292l-83 -51v62l103 66h38z" />
    <glyph glyph-name="two.numr" horiz-adv-x="330" 
d="M120 355h176v-51h-268v38l140 120c52 44 70 65 70 101c0 40 -30 68 -75 68c-49 0 -79 -33 -80 -86l-51 11c0 73 51 124 131 124c79 0 131 -45 131 -117c0 -51 -28 -86 -89 -137z" />
    <glyph glyph-name="three.numr" horiz-adv-x="337" 
d="M244 496c42 -15 63 -43 63 -84c0 -65 -56 -114 -135 -114c-80 0 -140 48 -141 124l49 11c1 -55 39 -86 92 -86c48 0 80 27 80 66c0 37 -31 60 -79 60h-37v42h33c45 0 77 21 77 56c0 37 -32 62 -77 62c-48 0 -82 -29 -83 -80l-51 11c4 71 58 116 134 116s130 -44 130 -107
c0 -36 -18 -62 -55 -77z" />
    <glyph glyph-name="four.numr" horiz-adv-x="366" 
d="M341 432v-48h-58v-83h-55v83h-203v54l191 232h67v-238h58zM82 432h146v176z" />
    <glyph glyph-name="five.numr" horiz-adv-x="340" 
d="M108 619l-4 -87h83c73 0 125 -45 125 -114c0 -75 -56 -124 -140 -124c-75 0 -134 46 -142 109l56 9c7 -41 42 -68 86 -68c51 0 85 28 85 72c0 41 -35 67 -84 67h-124l9 187h236v-51h-186z" />
    <glyph glyph-name="six.numr" horiz-adv-x="355" 
d="M196 546c76 0 127 -51 127 -123c0 -73 -55 -125 -135 -125c-97 0 -153 67 -153 179c0 73 18 128 53 163c27 27 61 40 102 40c65 0 114 -33 126 -92l-57 -9c-7 35 -31 53 -71 53c-25 0 -45 -9 -61 -26c-20 -23 -31 -57 -34 -103c24 29 58 43 103 43zM186 345
c49 0 83 35 83 80c0 44 -35 79 -83 79c-51 0 -85 -36 -85 -80c0 -45 37 -79 85 -79z" />
    <glyph glyph-name="seven.numr" horiz-adv-x="282" 
d="M7 670h265v-44l-156 -325h-64l156 318h-201v51z" />
    <glyph glyph-name="eight.numr" horiz-adv-x="355" 
d="M242 499c54 -15 81 -47 81 -95c0 -63 -58 -106 -145 -106c-88 0 -146 43 -146 106c0 49 27 80 81 95c-45 15 -67 43 -67 83c0 56 57 98 133 98c75 0 131 -42 131 -98c0 -40 -23 -68 -68 -83zM98 576c0 -32 35 -57 80 -57s78 24 79 57c1 37 -32 61 -79 61s-80 -24 -80 -61
zM178 345c51 0 85 26 85 65c0 37 -33 64 -85 64c-53 0 -87 -27 -87 -64c0 -39 35 -65 87 -65z" />
    <glyph glyph-name="nine.numr" horiz-adv-x="355" 
d="M167 680c97 0 153 -66 153 -179c0 -73 -18 -128 -53 -163c-27 -27 -60 -40 -101 -40c-67 0 -115 34 -126 93l56 8c7 -35 31 -53 72 -53c25 0 45 9 61 27c20 23 31 57 34 102c-25 -28 -59 -42 -103 -42c-76 0 -127 51 -127 123s54 124 134 124zM169 475c51 0 85 36 85 80
c6 69 -98 104 -144 55c-49 -44 -15 -141 59 -135z" />
    <glyph glyph-name="backslash.case" horiz-adv-x="368" 
d="M103 670l237 -670h-75l-237 670h75z" />
    <glyph glyph-name="periodcentered.case" horiz-adv-x="204" 
d="M65 364c20 20 54 20 74 0s20 -52 0 -72c-20 -19 -54 -19 -74 0c-20 20 -20 52 0 72z" />
    <glyph glyph-name="bullet.case" horiz-adv-x="398" 
d="M348 331c0 -41 -14 -75 -43 -102c-28 -27 -63 -41 -106 -41s-78 14 -107 41c-28 27 -42 61 -42 102c0 39 14 73 43 101c29 29 64 43 106 43s77 -14 106 -43c29 -28 43 -62 43 -101z" />
    <glyph glyph-name="colon.case" horiz-adv-x="204" 
d="M65 527c20 20 54 20 74 0s20 -52 0 -72c-20 -19 -54 -19 -74 0c-20 20 -20 52 0 72zM65 188c20 20 54 20 74 0s20 -52 0 -72c-20 -19 -54 -19 -74 0c-20 20 -20 52 0 72z" />
    <glyph glyph-name="exclamdown.case" horiz-adv-x="269" 
d="M83 623c-6 65 110 65 104 0c0 -28 -23 -50 -52 -50s-52 22 -52 50zM94 0v31l2 440h78l3 -440v-31h-83z" />
    <glyph glyph-name="questiondown.case" horiz-adv-x="522" 
d="M306 590c-20 -20 -54 -20 -74 0s-20 52 0 71c20 20 54 20 74 0c20 -19 20 -51 0 -71zM414 216l73 -14c-2 -61 -25 -111 -68 -152c-43 -40 -97 -60 -164 -60s-120 19 -161 57c-41 39 -61 89 -61 152c0 53 18 98 55 133c37 36 85 57 144 62v77h72v-138h-44
c-43 0 -80 -13 -109 -38s-44 -57 -44 -96c0 -84 60 -140 148 -140c92 0 152 62 159 157z" />
    <glyph glyph-name="semicolon.case" horiz-adv-x="231" 
d="M92 527c20 20 54 20 74 0s20 -52 0 -72c-20 -19 -54 -19 -74 0c-20 20 -20 52 0 72zM171 129l-96 -261h-60l66 263h90v-2z" />
    <glyph glyph-name="slash.case" horiz-adv-x="408" 
d="M368 670l-258 -670h-70l257 670h71z" />
    <glyph glyph-name="braceleft.case" horiz-adv-x="430" 
d="M227 537v-94c0 -54 -22 -91 -67 -110c45 -19 67 -57 67 -112v-87c0 -41 26 -68 65 -68h83v-66h-92c-79 0 -130 50 -130 127v86c0 49 -33 78 -85 85l-23 5v59l23 5c57 8 85 36 85 84v93c0 76 51 126 130 126h92v-65h-83c-39 0 -65 -27 -65 -68z" />
    <glyph glyph-name="braceright.case" horiz-adv-x="430" 
d="M362 367l23 -5v-59l-23 -5c-52 -7 -85 -36 -85 -85v-86c0 -77 -51 -127 -130 -127h-92v66h83c39 0 65 27 65 68v87c0 55 22 93 67 112c-45 19 -67 56 -67 110v94c0 41 -26 68 -65 68h-83v65h92c79 0 130 -50 130 -126v-93c0 -48 28 -76 85 -84z" />
    <glyph glyph-name="bracketleft.case" horiz-adv-x="391" 
d="M336 604h-174v-537h174v-67h-248v670h248v-66z" />
    <glyph glyph-name="bracketright.case" horiz-adv-x="391" 
d="M55 670h249v-670h-249v67h174v537h-174v66z" />
    <glyph glyph-name="parenleft.case" horiz-adv-x="326" 
d="M224 683l47 -46c-89 -90 -134 -191 -134 -302s45 -212 134 -302l-47 -46c-113 97 -169 213 -169 348s56 251 169 348z" />
    <glyph glyph-name="parenright.case" horiz-adv-x="326" 
d="M55 637l47 46c113 -96 169 -212 169 -348s-56 -252 -169 -348l-47 46c89 89 134 190 134 302s-45 213 -134 302z" />
    <glyph glyph-name="emdash.case" horiz-adv-x="1040" 
d="M980 363v-60h-920v60h920z" />
    <glyph glyph-name="endash.case" horiz-adv-x="620" 
d="M560 363v-60h-500v60h500z" />
    <glyph glyph-name="hyphen.case" horiz-adv-x="443" 
d="M383 366v-67h-323v67h323z" />
    <glyph glyph-name="guillemotleft.case" horiz-adv-x="415" 
d="M147 144l-122 178l122 178h78l-122 -178l122 -178h-78zM312 144l-122 178l122 178h78l-122 -178l122 -178h-78z" />
    <glyph glyph-name="guillemotright.case" horiz-adv-x="415" 
d="M103 144h-77l122 178l-122 178h77l122 -178zM268 144h-77l122 178l-122 178h77l122 -178z" />
    <glyph glyph-name="guilsinglleft.case" horiz-adv-x="250" 
d="M147 144l-122 178l122 178h78l-122 -178l122 -178h-78z" />
    <glyph glyph-name="guilsinglright.case" horiz-adv-x="250" 
d="M103 144h-78l122 178l-122 178h78l122 -178z" />
    <glyph glyph-name="cent.tf" 
d="M325 433v-374c65 8 118 47 138 110l70 -19c-24 -91 -106 -151 -206 -162v-118h-66v120c-63 9 -115 36 -156 82c-41 47 -62 105 -62 174c0 68 21 125 62 172c42 47 94 75 156 84v128h66v-126c99 -11 180 -72 207 -163l-73 -22c-19 65 -71 106 -136 114zM117 246
c0 -99 60 -169 147 -185v371c-85 -16 -147 -89 -147 -186z" />
    <glyph glyph-name="dollar.tf" 
d="M544 197c0 -105 -82 -176 -203 -183v-114h-67v116c-58 7 -107 28 -146 62s-61 77 -66 130l77 16c8 -79 62 -128 138 -140v226l-45 10c-101 21 -152 73 -152 157c0 101 78 171 194 180v113h67v-115c109 -13 184 -84 193 -180l-76 -15c-5 71 -53 116 -120 128v-218l50 -11
c104 -22 156 -76 156 -162zM253 390l24 -6v207c-72 -8 -118 -49 -118 -109c0 -52 33 -77 94 -92zM369 289l-31 7v-215c80 5 131 50 131 113c0 53 -33 82 -100 95z" />
    <glyph glyph-name="Euro.tf" 
d="M330 61c80 0 140 61 171 169l78 -16c-32 -137 -125 -227 -249 -227c-131 0 -225 90 -254 243h-56v58h49c-1 20 -2 36 -2 47c0 19 0 33 1 42h-48v58h55c28 156 123 248 255 248c124 0 217 -90 249 -230l-78 -15c-25 109 -90 172 -171 172c-88 0 -151 -63 -174 -175h238
l-15 -58h-230c-1 -17 -2 -31 -2 -42s1 -27 2 -47h209l-13 -58h-188c24 -108 88 -169 173 -169z" />
    <glyph glyph-name="florin.tf" 
d="M474 614c-63 0 -108 -42 -120 -110l-25 -139h188v-64h-200l-59 -327c-16 -85 -78 -139 -159 -139c-30 0 -57 8 -82 25l27 61c17 -9 36 -14 56 -14c41 0 75 27 82 67l59 327h-120v64h132l25 139c19 109 94 178 201 178c44 0 81 -13 112 -38l-29 -61c-24 21 -53 31 -88 31z
" />
    <glyph glyph-name="sterling.tf" 
d="M199 72h367v-72h-530v49l84 17v206h-84v71h84v123c0 65 20 117 61 157s94 60 160 60c131 0 216 -84 221 -215l-72 -13c-7 100 -61 152 -149 152c-85 0 -142 -56 -142 -141v-123h227v-71h-227v-200z" />
    <glyph glyph-name="yen.tf" 
d="M593 670l-219 -357h151v-60h-182v-75h182v-60h-182v-118h-79v118h-178v60h178v75h-178v60h147l-216 357h88l199 -338l198 338h91z" />
    <glyph glyph-name="approxequal.tf" 
d="M525 433v-68c-26 -14 -59 -21 -98 -21c-34 0 -73 9 -117 27c-43 18 -81 27 -112 27c-51 0 -88 -11 -113 -33v66c27 21 64 32 113 32c33 0 71 -9 116 -28c45 -18 83 -27 114 -27c40 0 72 8 97 25zM525 274v-67c-27 -15 -60 -22 -98 -22c-34 0 -73 9 -117 27
c-43 19 -81 28 -112 28c-49 0 -87 -11 -113 -33v66c27 21 64 32 113 32c33 0 71 -9 116 -28c45 -18 83 -27 114 -27c40 0 72 8 97 24z" />
    <glyph glyph-name="divide.tf" 
d="M355 480c6 -65 -110 -65 -104 0c0 28 23 50 52 50s52 -22 52 -50zM525 339v-68h-440v68h440zM355 121c6 -65 -110 -65 -104 0c0 28 23 50 52 50s52 -22 52 -50z" />
    <glyph glyph-name="equal.tf" 
d="M525 447v-68h-440v68h440zM525 258v-68h-440v68h440z" />
    <glyph glyph-name="greater.tf" 
d="M135 200l274 117l-274 116v82l366 -160v-76l-366 -159v80z" />
    <glyph glyph-name="greaterequal.tf" 
d="M135 269l263 92l-263 90v79l352 -134v-70l-352 -134v77zM485 157v-68h-350v68h350z" />
    <glyph glyph-name="less.tf" 
d="M476 200v-80l-367 159v76l367 160v-82l-274 -116z" />
    <glyph glyph-name="lessequal.tf" 
d="M476 269v-77l-351 134v70l351 134v-79l-263 -90zM127 157h349v-68h-349v68z" />
    <glyph glyph-name="minus.tf" 
d="M525 339v-68h-440v68h440z" />
    <glyph glyph-name="multiply.tf" 
d="M495 446l-141 -141l141 -141l-49 -49l-141 141l-142 -141l-49 49l141 141l-141 141l49 50l142 -141l141 141z" />
    <glyph glyph-name="notequal.tf" 
d="M525 379h-147l-74 -121h221v-68h-262l-54 -89h-71l54 89h-107v68h148l73 121h-221v68h262l55 91h72l-55 -91h106v-68z" />
    <glyph glyph-name="plus.tf" 
d="M525 339v-68h-186v-188h-68v188h-186v68h186v188h68v-188h186z" />
    <glyph glyph-name="plusminus.tf" 
d="M339 394h186v-68h-186v-168h-68v168h-186v68h186v178h68v-178zM85 0v68h440v-68h-440z" />
    <glyph glyph-name="bar.case" horiz-adv-x="250" 
d="M162 711v-752h-74v752h74z" />
    <glyph glyph-name="at.case" horiz-adv-x="959" 
d="M610 513h53v-295c0 -40 31 -66 72 -66c35 0 61 18 79 55c19 37 28 81 28 131c0 98 -34 179 -103 242s-154 95 -256 95c-105 0 -192 -34 -261 -101s-104 -152 -104 -255c0 -102 34 -187 102 -255c69 -67 152 -101 251 -101c81 0 175 26 239 71l27 -44
c-33 -24 -74 -43 -123 -56c-49 -14 -96 -21 -142 -21c-113 0 -210 38 -289 115s-118 173 -118 290s40 213 119 290c80 77 180 115 299 115c116 0 213 -36 292 -109c79 -72 119 -163 119 -274c0 -63 -14 -118 -41 -165c-27 -46 -69 -69 -125 -69c-63 0 -104 31 -115 80
c-35 -51 -86 -76 -153 -76c-57 0 -105 19 -143 57s-57 87 -57 148s19 111 57 149c39 38 86 57 142 57c65 0 115 -25 151 -75v67zM610 316c0 45 -14 82 -42 109c-28 28 -62 42 -102 42s-74 -14 -103 -42c-28 -27 -42 -64 -42 -109c0 -46 14 -83 42 -112
c29 -28 63 -42 103 -42s74 14 102 42c28 29 42 66 42 112z" />
    <glyph glyph-name="caron.alt" horiz-adv-x="600" 
d="M344 650l-16 -172h-61v172h77z" />
    </font>
</defs>
</svg>
