<?xml version="1.0" standalone="no"?>
<!DOCTYPE svg PUBLIC "-//W3C//DTD SVG 1.1//EN" "http://www.w3.org/Graphics/SVG/1.1/DTD/svg11.dtd" >
<svg xmlns="http://www.w3.org/2000/svg" xmlns:xlink="http://www.w3.org/1999/xlink" version="1.1">
<metadata>
Created by FontForge 20161116 at Sat Nov 22 18:45:45 2014
 By Jimmy Wärting
Copyright \\u00A9  2014 by Ren\\u00E9  Bieder. All rights reserved.
</metadata>
<defs>
<font id="GalanoGrotesque-AltExtraBold" horiz-adv-x="610" >
  <font-face 
    font-family="Galano Grotesque"
    font-weight="800"
    font-stretch="normal"
    units-per-em="1000"
    panose-1="0 0 9 0 0 0 0 0 0 0"
    ascent="800"
    descent="-200"
    x-height="505"
    cap-height="670"
    bbox="-167 -250 1270 992"
    underline-thickness="50"
    underline-position="-100"
    unicode-range="U+0020-FB02"
  />
<missing-glyph horiz-adv-x="774" 
d="M388 684c96 0 178 -33 246 -100s102 -150 102 -250c0 -101 -34 -184 -102 -250s-150 -99 -246 -99c-97 0 -179 33 -247 99c-68 67 -102 150 -102 250s34 183 102 250s150 100 247 100zM99 334c0 -84 28 -154 84 -210c57 -56 125 -84 205 -84c79 0 147 28 203 84
c57 56 85 126 85 210s-28 154 -84 210c-56 57 -124 85 -204 85s-148 -28 -205 -84c-56 -56 -84 -126 -84 -211zM529 401c0 -52 -37 -89 -98 -104v-25h-102v92h47c42 0 62 35 36 56c-23 23 -66 6 -70 -30l-104 20c12 64 66 111 154 111c81 0 137 -52 137 -120zM378 248
c33 0 58 -26 58 -55c0 -32 -25 -57 -58 -57s-57 25 -57 57c0 29 25 55 57 55z" />
    <glyph glyph-name="fi" unicode="fi" horiz-adv-x="667" 
d="M265 505h346v-505h-187v359h-159v-359h-188v359h-67v146h67v78c0 60 19 108 57 143c39 36 89 54 151 54c33 0 64 -5 94 -16l-28 -145c-15 3 -24 4 -29 4c-35 0 -57 -20 -57 -53v-65zM517 551c-60 0 -104 43 -104 102c0 56 44 102 104 102s106 -47 106 -102
c0 -59 -45 -102 -106 -102z" />
    <glyph glyph-name="fl" unicode="fl" horiz-adv-x="734" 
d="M321 623c-33 0 -56 -21 -56 -53v-65h123v-146h-123v-359h-188v359h-67v146h67v78c0 59 19 107 57 143s88 54 150 54c39 0 76 -7 109 -22l-37 -141c-13 4 -25 6 -35 6zM708 158l27 -137c-43 -24 -85 -36 -127 -36c-109 0 -181 73 -181 184v601h188v-586
c4 -34 24 -51 93 -26z" />
    <glyph glyph-name=".notdef" horiz-adv-x="774" 
d="M388 684c96 0 178 -33 246 -100s102 -150 102 -250c0 -101 -34 -184 -102 -250s-150 -99 -246 -99c-97 0 -179 33 -247 99c-68 67 -102 150 -102 250s34 183 102 250s150 100 247 100zM99 334c0 -84 28 -154 84 -210c57 -56 125 -84 205 -84c79 0 147 28 203 84
c57 56 85 126 85 210s-28 154 -84 210c-56 57 -124 85 -204 85s-148 -28 -205 -84c-56 -56 -84 -126 -84 -211zM529 401c0 -52 -37 -89 -98 -104v-25h-102v92h47c42 0 62 35 36 56c-23 23 -66 6 -70 -30l-104 20c12 64 66 111 154 111c81 0 137 -52 137 -120zM378 248
c33 0 58 -26 58 -55c0 -32 -25 -57 -58 -57s-57 25 -57 57c0 29 25 55 57 55z" />
    <glyph glyph-name="NULL" horiz-adv-x="0" 
 />
    <glyph glyph-name="CR" horiz-adv-x="333" 
 />
    <glyph glyph-name="space" unicode=" " horiz-adv-x="221" 
 />
    <glyph glyph-name="exclam" unicode="!" horiz-adv-x="306" 
d="M47 670h212v-31l-15 -400h-182l-15 400v31zM157 195c60 0 105 -46 105 -101c0 -56 -45 -99 -105 -99s-103 43 -103 99c0 55 44 101 103 101z" />
    <glyph glyph-name="quotedbl" unicode="&#x22;" horiz-adv-x="471" 
d="M211 339h-168v331h168v-331zM428 339h-168v331h168v-331z" />
    <glyph glyph-name="numbersign" unicode="#" horiz-adv-x="730" 
d="M674 383h-96l-26 -108h99l-37 -135h-96l-34 -140h-148l34 140h-104l-35 -140h-148l35 140h-99l37 135h95l27 108h-99l36 135h96l38 152h148l-38 -152h105l37 152h148l-37 -152h98zM404 275l26 108h-104l-27 -108h105z" />
    <glyph glyph-name="dollar" unicode="$" horiz-adv-x="612" 
d="M582 217c0 -113 -81 -182 -193 -203v-114h-155v117c-54 13 -100 36 -137 71s-60 76 -67 123l178 34c13 -61 49 -92 110 -92c43 0 74 20 74 48c0 22 -14 36 -43 43l-129 32c-116 27 -174 88 -174 181c0 108 75 179 188 200v113h155v-116c105 -23 175 -92 187 -188
l-172 -30c-9 58 -42 87 -98 87c-40 0 -67 -19 -67 -50c0 -21 12 -35 37 -40l126 -30c120 -29 180 -87 180 -186z" />
    <glyph glyph-name="percent" unicode="%" horiz-adv-x="896" 
d="M220 685c49 0 91 -16 126 -48s52 -74 52 -125s-17 -93 -52 -125s-77 -48 -126 -48c-50 0 -93 16 -128 48s-52 74 -52 125s17 93 52 125s78 48 128 48zM258 0h-101l478 670h100zM220 578c-35 0 -64 -26 -64 -66c0 -39 31 -66 64 -66s62 27 62 66c0 40 -29 66 -62 66z
M678 331c49 0 91 -16 126 -48s52 -74 52 -125s-17 -93 -52 -125s-77 -48 -126 -48c-50 0 -93 16 -128 48s-52 74 -52 125s17 93 52 125s78 48 128 48zM678 224c-35 0 -64 -26 -64 -66c0 -39 31 -66 64 -66s62 27 62 66c0 40 -29 66 -62 66z" />
    <glyph glyph-name="ampersand" unicode="&#x26;" horiz-adv-x="696" 
d="M689 91l-107 -118l-81 70c-59 -39 -127 -58 -204 -58c-79 0 -143 19 -193 57c-49 38 -74 88 -74 151c0 74 38 132 113 173c-31 43 -46 86 -46 129c0 57 21 102 64 137s98 53 165 53c139 0 216 -76 232 -188l-170 -32c-5 55 -25 75 -61 75c-31 0 -51 -19 -51 -48
c0 -28 22 -61 65 -100l124 -107c3 13 4 28 4 46v37h172v-37c0 -63 -12 -119 -36 -168zM309 133c22 0 44 6 67 18l-128 111c-21 -17 -32 -36 -32 -57c0 -43 34 -72 93 -72z" />
    <glyph glyph-name="quotesingle" unicode="'" horiz-adv-x="255" 
d="M211 339h-168v331h168v-331z" />
    <glyph glyph-name="parenleft" unicode="(" horiz-adv-x="393" 
d="M225 336c0 -61 11 -113 34 -158s57 -93 104 -144l-131 -116c-128 121 -202 250 -202 418c0 169 73 296 202 419l126 -118c-45 -51 -78 -99 -100 -143s-33 -97 -33 -158z" />
    <glyph glyph-name="parenright" unicode=")" horiz-adv-x="393" 
d="M35 637l127 118c128 -124 201 -250 201 -419c0 -168 -73 -295 -201 -418l-132 116c47 51 81 98 104 143s34 98 34 159s-11 114 -33 158c-22 45 -55 92 -100 143z" />
    <glyph glyph-name="asterisk" unicode="*" horiz-adv-x="447" 
d="M415 591l-96 -55l96 -55l-48 -83l-91 52v-98h-105v99l-91 -52l-48 82l95 55l-95 54l48 84l91 -52v98h105v-98l91 52z" />
    <glyph glyph-name="plus" unicode="+" horiz-adv-x="567" 
d="M527 374v-145h-171v-172h-145v172h-171v145h171v172h145v-172h171z" />
    <glyph glyph-name="comma" unicode="," horiz-adv-x="277" 
d="M257 172l-117 -304h-143l58 308h202v-4z" />
    <glyph glyph-name="hyphen" unicode="-" horiz-adv-x="455" 
d="M395 348v-155h-335v155h335z" />
    <glyph glyph-name="period" unicode="." horiz-adv-x="255" 
d="M231 97c0 -59 -44 -102 -104 -102s-104 43 -104 102c0 56 44 104 104 104s104 -48 104 -104z" />
    <glyph glyph-name="slash" unicode="/" horiz-adv-x="451" 
d="M308 741h123l-288 -813h-123z" />
    <glyph glyph-name="zero" unicode="0" horiz-adv-x="663" 
d="M332 -15c-91 0 -165 32 -221 96c-55 65 -83 149 -83 254s28 189 84 253c56 65 129 97 220 97s164 -32 219 -97c55 -64 83 -148 83 -253s-28 -189 -83 -254c-55 -64 -128 -96 -219 -96zM332 149c67 0 108 69 108 186s-41 185 -108 185c-68 0 -110 -68 -110 -185
s42 -186 110 -186z" />
    <glyph glyph-name="one" unicode="1" horiz-adv-x="408" 
d="M226 670h124v-670h-189v448l-155 -79v177z" />
    <glyph glyph-name="two" unicode="2" horiz-adv-x="573" 
d="M310 165h231v-165h-515h-1v127l238 212c21 19 35 32 43 41c17 17 40 50 40 81c0 39 -27 66 -66 66c-50 0 -77 -32 -81 -95l-182 34c3 68 28 121 75 160s109 59 185 59s137 -20 184 -60s70 -95 70 -164c0 -43 -11 -81 -32 -112s-55 -67 -102 -109z" />
    <glyph glyph-name="three" unicode="3" horiz-adv-x="584" 
d="M475 342c53 -30 80 -76 80 -138c0 -64 -25 -117 -74 -158s-111 -61 -188 -61c-72 0 -133 19 -183 57c-49 38 -79 90 -88 156l185 33c11 -61 40 -91 88 -91c47 0 80 27 80 67c0 39 -31 64 -83 64h-76v136h71c49 0 81 24 81 60c0 40 -29 66 -76 66s-79 -32 -84 -96l-179 34
c21 135 122 214 262 214c74 0 135 -20 182 -60c48 -40 72 -91 72 -153c0 -57 -23 -100 -70 -130z" />
    <glyph glyph-name="four" unicode="4" horiz-adv-x="636" 
d="M614 265v-155h-79v-110h-179v110h-339v173l290 388h228v-406h79zM203 265h153v216z" />
    <glyph glyph-name="five" unicode="5" horiz-adv-x="582" 
d="M231 507l-3 -70h84c156 0 243 -82 243 -217c0 -70 -24 -127 -72 -170s-111 -65 -189 -65c-75 0 -137 20 -188 60c-51 41 -78 97 -82 169l182 34c1 -72 41 -104 90 -104c48 0 80 29 80 74c0 41 -33 70 -84 70h-237l15 383h457v-164h-296z" />
    <glyph glyph-name="six" unicode="6" 
d="M349 435c70 0 126 -20 169 -61s64 -94 64 -160c0 -67 -25 -122 -74 -165s-111 -64 -186 -64c-90 0 -162 30 -215 89s-79 142 -79 248c0 123 32 217 96 283c55 53 121 80 200 80c127 0 218 -61 246 -169l-180 -36c-9 33 -34 50 -73 50c-27 0 -50 -11 -70 -33
c-25 -29 -38 -68 -39 -117c38 37 85 55 141 55zM405 220c0 49 -41 86 -89 86c-47 0 -87 -37 -87 -86c0 -48 40 -85 87 -85s89 37 89 85z" />
    <glyph glyph-name="seven" unicode="7" horiz-adv-x="523" 
d="M10 671h493v-141l-209 -530h-203l205 506h-286v165z" />
    <glyph glyph-name="eight" unicode="8" horiz-adv-x="579" 
d="M447 347c77 -32 116 -86 116 -162c0 -58 -25 -106 -76 -144c-51 -37 -117 -56 -198 -56s-146 19 -197 56c-50 38 -75 86 -75 145c0 76 39 129 116 160c-62 31 -93 80 -93 148c0 54 24 99 71 136s107 55 179 55c71 0 131 -18 178 -55s71 -82 71 -136
c0 -69 -31 -118 -92 -147zM368 478c0 40 -36 67 -79 67s-77 -27 -77 -68c-6 -89 160 -90 156 1zM289 275c-44 0 -80 -28 -80 -72s35 -72 80 -72s82 28 82 72s-37 72 -82 72z" />
    <glyph glyph-name="nine" unicode="9" 
d="M288 685c90 0 161 -30 214 -89s80 -142 80 -248c0 -124 -32 -218 -96 -283c-53 -53 -120 -80 -200 -80c-127 0 -218 61 -246 169l180 36c10 -33 34 -50 73 -50c27 0 50 11 70 33c26 30 39 69 40 118c-37 -37 -85 -56 -142 -56c-70 0 -126 20 -169 61s-64 94 -64 160
c0 67 24 122 73 165s112 64 187 64zM294 364c47 0 87 37 87 86c0 48 -40 85 -87 85s-88 -37 -88 -85c0 -49 40 -86 88 -86z" />
    <glyph glyph-name="colon" unicode=":" horiz-adv-x="255" 
d="M231 403c0 -59 -44 -102 -104 -102s-104 43 -104 102c0 56 44 104 104 104s104 -48 104 -104zM231 97c0 -59 -44 -102 -104 -102s-104 43 -104 102c0 56 44 104 104 104s104 -48 104 -104z" />
    <glyph glyph-name="semicolon" unicode=";" horiz-adv-x="290" 
d="M162 507c60 0 105 -48 105 -104c0 -59 -44 -102 -105 -102c-60 0 -103 43 -103 102c0 56 44 104 103 104zM257 172l-117 -304h-143l58 308h202v-4z" />
    <glyph glyph-name="less" unicode="&#x3c;" horiz-adv-x="486" 
d="M447 265v-167l-416 143v170l416 143v-168l-231 -60z" />
    <glyph glyph-name="equal" unicode="=" horiz-adv-x="567" 
d="M527 478v-138h-487v138h487zM527 280v-138h-487v138h487z" />
    <glyph glyph-name="greater" unicode="&#x3e;" horiz-adv-x="486" 
d="M40 265l231 61l-231 60v168l416 -143v-170l-416 -143v167z" />
    <glyph glyph-name="question" unicode="?" horiz-adv-x="551" 
d="M294 685c71 0 128 -20 172 -61c45 -41 67 -92 67 -153c0 -95 -64 -163 -169 -188v-46h-184l1 166h84c48 0 80 23 80 58c0 37 -26 62 -63 62c-39 0 -65 -30 -72 -74l-187 38c23 116 118 198 271 198zM269 195c60 0 105 -46 105 -101c0 -56 -45 -99 -105 -99
s-103 43 -103 99c0 55 44 101 103 101z" />
    <glyph glyph-name="at" unicode="@" horiz-adv-x="928" 
d="M543 466h136v-275c0 -25 18 -39 43 -39c23 0 40 15 53 46s19 68 19 110c0 87 -31 158 -92 212s-136 81 -227 81c-97 0 -178 -31 -243 -94c-65 -62 -97 -141 -97 -236s32 -172 95 -233c64 -60 145 -90 242 -90c84 0 163 28 237 84l45 -72c-75 -64 -169 -96 -281 -96
c-125 0 -228 38 -309 114s-121 173 -121 290c0 120 41 219 124 298s186 119 308 119c115 0 212 -35 291 -106c79 -70 119 -160 119 -269c0 -59 -13 -110 -42 -161c-28 -49 -84 -81 -159 -81c-62 0 -104 20 -126 61c-30 -40 -74 -60 -132 -60c-55 0 -101 18 -138 55
c-36 37 -54 86 -54 148s18 111 55 148s82 55 137 55c49 0 88 -15 117 -44v35zM543 274c0 48 -34 80 -77 80s-78 -32 -78 -80c0 -49 35 -82 78 -82s77 33 77 82z" />
    <glyph glyph-name="A" unicode="A" horiz-adv-x="752" 
d="M482 670l270 -670h-207l-37 102h-264l-38 -102h-206l270 670h212zM303 263h147l-73 201z" />
    <glyph glyph-name="B" unicode="B" horiz-adv-x="665" 
d="M496 346v-4c79 -3 142 -52 142 -153c0 -115 -87 -189 -227 -189h-364v670h364c125 0 207 -71 207 -179c0 -45 -13 -81 -39 -106c-25 -25 -53 -38 -83 -39zM361 521h-122v-124h119c43 0 72 26 72 63c0 36 -29 61 -69 61zM239 278v-129h129c45 0 73 27 73 67
c0 37 -28 62 -71 62h-131z" />
    <glyph glyph-name="C" unicode="C" horiz-adv-x="765" 
d="M391 158c79 0 133 46 152 134l192 -44c-15 -81 -53 -146 -115 -193c-61 -47 -138 -70 -229 -70c-101 0 -187 34 -257 101c-69 68 -104 151 -104 249s35 181 104 248c70 68 156 102 257 102c85 0 160 -23 224 -70c65 -47 105 -109 120 -186l-192 -46
c-19 84 -73 129 -152 129c-47 0 -87 -17 -119 -51s-48 -76 -48 -126s16 -92 48 -126s72 -51 119 -51z" />
    <glyph glyph-name="D" unicode="D" horiz-adv-x="725" 
d="M47 0v670h283c109 0 197 -31 264 -93c67 -61 101 -142 101 -242s-34 -181 -101 -243c-67 -61 -155 -92 -264 -92h-283zM239 508v-346h77c55 0 100 16 134 48s51 74 51 125s-17 93 -51 125s-79 48 -134 48h-77z" />
    <glyph glyph-name="E" unicode="E" horiz-adv-x="617" 
d="M239 162h341v-162h-533v670h529v-162h-337v-99h310v-147h-310v-100z" />
    <glyph glyph-name="F" unicode="F" horiz-adv-x="600" 
d="M582 504h-343v-118h304v-167h-304v-219h-192v670h535v-166z" />
    <glyph glyph-name="G" unicode="G" horiz-adv-x="780" 
d="M373 242v158h373c3 -36 4 -58 4 -66c0 -103 -33 -187 -100 -252c-66 -65 -151 -97 -255 -97c-103 0 -189 34 -260 101c-70 68 -105 151 -105 249s35 181 105 248c71 68 157 102 259 102c79 0 149 -18 209 -53s101 -85 123 -148l-195 -49c-27 51 -72 77 -137 77
c-49 0 -90 -17 -122 -51c-32 -33 -48 -75 -48 -126s16 -93 49 -127c33 -33 74 -50 124 -50c71 0 121 28 148 84h-172z" />
    <glyph glyph-name="H" unicode="H" horiz-adv-x="723" 
d="M484 670h193v-670h-193v255h-245v-255h-192v670h192v-250h245v250z" />
    <glyph glyph-name="I" unicode="I" horiz-adv-x="459" 
d="M439 505h-113v-340h113v-165h-419v165h113v340h-113v165h419v-165z" />
    <glyph glyph-name="J" unicode="J" horiz-adv-x="620" 
d="M170 670h402v-425c0 -77 -26 -140 -78 -188c-51 -48 -119 -72 -203 -72c-156 0 -258 89 -278 232l190 37c7 -65 37 -98 88 -98c52 0 88 36 88 89v260h-209v165z" />
    <glyph glyph-name="K" unicode="K" horiz-adv-x="718" 
d="M463 382l262 -382h-232l-155 231l-99 -119v-112h-192v670h192v-289l244 289h218z" />
    <glyph glyph-name="L" unicode="L" horiz-adv-x="581" 
d="M239 165h316v-165h-508v670h192v-505z" />
    <glyph glyph-name="M" unicode="M" horiz-adv-x="893" 
d="M643 670h203v-670h-188v303l-149 -303h-125l-149 301v-301h-188v670h203l196 -366z" />
    <glyph glyph-name="N" unicode="N" horiz-adv-x="752" 
d="M513 670h193v-670h-159l-308 345v-345h-192v670h158l308 -357v357z" />
    <glyph glyph-name="O" unicode="O" horiz-adv-x="782" 
d="M134 583c70 68 156 102 257 102s187 -34 256 -102c70 -67 105 -150 105 -248s-35 -181 -105 -249c-69 -67 -155 -101 -256 -101s-187 34 -257 101c-69 68 -104 151 -104 249s35 181 104 248zM558 335c0 50 -16 92 -48 126c-31 34 -71 51 -119 51s-88 -17 -120 -51
c-31 -34 -47 -76 -47 -126c0 -51 16 -93 47 -127c32 -33 72 -50 120 -50s88 17 119 50c32 34 48 76 48 127z" />
    <glyph glyph-name="P" unicode="P" horiz-adv-x="664" 
d="M47 0v670h347c74 0 133 -22 178 -65s67 -100 67 -171c0 -73 -24 -132 -71 -177c-47 -44 -109 -66 -188 -66h-141v-191h-192zM239 511v-168h118c53 0 93 35 93 86c0 48 -40 82 -93 82h-118z" />
    <glyph glyph-name="Q" unicode="Q" horiz-adv-x="782" 
d="M795 -170h-244l-117 157c-19 -1 -33 -2 -43 -2c-101 0 -187 34 -257 101c-69 68 -104 151 -104 249s35 181 104 248c70 68 156 102 257 102s187 -34 256 -102c70 -67 105 -150 105 -248c0 -111 -49 -209 -133 -274zM224 335c0 -51 16 -93 47 -127c32 -33 72 -50 120 -50
s88 17 119 50c32 34 48 76 48 127c0 50 -16 92 -48 126c-31 34 -71 51 -119 51s-88 -17 -120 -51c-31 -34 -47 -76 -47 -126z" />
    <glyph glyph-name="R" unicode="R" horiz-adv-x="683" 
d="M484 227l196 -227h-231l-184 214h-26v-214h-192v670h357c72 0 130 -21 174 -62c45 -41 67 -96 67 -163c0 -107 -61 -187 -161 -218zM239 511v-145h129c53 0 88 30 88 74c0 43 -35 71 -88 71h-129z" />
    <glyph glyph-name="S" unicode="S" horiz-adv-x="651" 
d="M326 685c159 0 265 -71 289 -195l-188 -38c-12 59 -56 84 -101 84c-43 0 -71 -21 -71 -54c0 -23 13 -37 39 -43l136 -32c127 -32 191 -98 191 -199c0 -50 -15 -92 -44 -127c-57 -69 -142 -96 -241 -96c-83 0 -152 19 -208 56s-89 88 -98 151l196 37
c15 -59 53 -89 114 -89c47 0 79 19 79 54c0 23 -15 38 -46 45l-139 33c-123 29 -184 93 -184 194c0 69 26 122 77 161s118 58 199 58z" />
    <glyph glyph-name="T" unicode="T" horiz-adv-x="653" 
d="M633 670v-165h-210v-505h-193v505h-210v165h613z" />
    <glyph glyph-name="U" unicode="U" horiz-adv-x="715" 
d="M474 670h193v-367c0 -97 -28 -174 -84 -232c-55 -57 -129 -86 -221 -86c-95 0 -171 29 -228 86s-86 135 -86 232v367h193v-367c0 -91 48 -144 121 -144c68 0 112 55 112 144v367z" />
    <glyph glyph-name="V" unicode="V" horiz-adv-x="757" 
d="M540 670h214l-281 -670h-189l-281 670h214l162 -400z" />
    <glyph glyph-name="W" unicode="W" horiz-adv-x="985" 
d="M784 670h197l-187 -670h-207l-95 376l-95 -376h-207l-187 670h197l105 -382l96 382h182l96 -382z" />
    <glyph glyph-name="X" unicode="X" horiz-adv-x="704" 
d="M701 0h-224l-125 209l-125 -209h-224l203 335l-197 335h223l120 -206l120 206h223l-198 -335z" />
    <glyph glyph-name="Y" unicode="Y" horiz-adv-x="721" 
d="M505 670h213l-262 -465v-205h-200v205l-253 465h211l146 -272z" />
    <glyph glyph-name="Z" unicode="Z" horiz-adv-x="644" 
d="M312 162h300v-162h-576v124l318 384h-310v162h557v-149z" />
    <glyph glyph-name="bracketleft" unicode="[" horiz-adv-x="415" 
d="M382 592h-166v-526h166v-148h-335v823h335v-149z" />
    <glyph glyph-name="backslash" unicode="\" horiz-adv-x="451" 
d="M143 741l288 -813h-123l-288 813h123z" />
    <glyph glyph-name="bracketright" unicode="]" horiz-adv-x="415" 
d="M33 741h335v-823h-335v148h166v526h-166v149z" />
    <glyph glyph-name="asciicircum" unicode="^" horiz-adv-x="484" 
d="M242 531l-70 -120h-159l159 259h140l159 -259h-159z" />
    <glyph glyph-name="underscore" unicode="_" horiz-adv-x="540" 
d="M520 -56v-129h-500v129h500z" />
    <glyph glyph-name="grave" unicode="`" horiz-adv-x="600" 
d="M117 727h225l75 -160h-173z" />
    <glyph glyph-name="a" unicode="a" horiz-adv-x="565" 
d="M289 520c151 0 240 -76 240 -209v-311h-181v35c-39 -33 -88 -50 -147 -50c-111 0 -184 66 -184 165c0 103 80 163 220 163h111v13c0 33 -23 56 -56 56c-37 0 -58 -17 -65 -52l-177 36c25 97 112 154 239 154zM268 119c44 0 80 29 80 74v16h-75c-36 0 -60 -18 -60 -45
c0 -28 23 -45 55 -45z" />
    <glyph glyph-name="b" unicode="b" horiz-adv-x="646" 
d="M382 520c70 0 128 -25 174 -75c47 -49 70 -114 70 -193s-23 -143 -70 -193c-46 -49 -104 -74 -174 -74c-61 0 -111 19 -148 58v-43h-187v770h187v-308c37 39 87 58 148 58zM337 141c61 0 102 47 102 111c0 65 -41 112 -102 112c-57 0 -103 -48 -103 -112
c0 -63 46 -111 103 -111z" />
    <glyph glyph-name="c" unicode="c" horiz-adv-x="583" 
d="M392 223l171 -33c-11 -61 -41 -111 -90 -149c-49 -37 -106 -56 -173 -56c-78 0 -144 25 -199 75c-54 50 -81 114 -81 192c0 79 27 143 81 193c55 50 121 75 199 75c66 0 123 -19 172 -56s79 -85 90 -146l-172 -36c-11 52 -45 80 -90 80c-59 0 -100 -47 -100 -110
s41 -109 100 -109c48 0 79 27 92 80z" />
    <glyph glyph-name="d" unicode="d" horiz-adv-x="646" 
d="M412 770h187v-770h-187v43c-37 -39 -87 -58 -148 -58c-70 0 -128 25 -175 74c-46 50 -69 114 -69 193s23 144 69 193c47 50 105 75 175 75c61 0 111 -19 148 -58v308zM309 141c57 0 103 48 103 111c0 64 -46 112 -103 112c-61 0 -102 -47 -102 -112
c0 -64 41 -111 102 -111z" />
    <glyph glyph-name="e" unicode="e" horiz-adv-x="578" 
d="M558 242v-35h-355c12 -49 45 -78 92 -78c43 0 72 16 89 49l167 -33c-41 -105 -135 -160 -256 -160c-77 0 -143 25 -196 75s-79 114 -79 192c0 79 26 143 79 193s119 75 196 75s140 -25 189 -74s73 -117 74 -204zM295 374c-43 0 -77 -24 -90 -64h172c-13 43 -40 64 -82 64
z" />
    <glyph glyph-name="f" unicode="f" horiz-adv-x="385" 
d="M265 570v-65h123v-146h-123v-359h-188v359h-67v146h67v78c0 59 19 107 57 143s88 54 150 54c39 0 76 -7 109 -22l-37 -141c-13 4 -25 6 -35 6c-33 0 -56 -21 -56 -53z" />
    <glyph glyph-name="g" unicode="g" horiz-adv-x="646" 
d="M412 505h187v-514c0 -75 -30 -133 -89 -176s-131 -65 -218 -65c-122 0 -209 44 -260 133l158 72c36 -40 60 -51 100 -51c68 0 122 33 122 101v38c-37 -39 -87 -58 -148 -58c-70 0 -128 25 -175 74c-46 50 -69 114 -69 193s23 144 69 193c47 50 105 75 175 75
c61 0 111 -19 148 -58v43zM309 141c57 0 103 48 103 111c0 64 -46 112 -103 112c-61 0 -102 -47 -102 -112c0 -64 41 -111 102 -111z" />
    <glyph glyph-name="h" unicode="h" horiz-adv-x="620" 
d="M386 520c115 0 190 -80 190 -207v-313h-188v273c0 48 -28 80 -71 80c-51 0 -83 -39 -83 -108v-245h-187v770h187v-316c41 44 91 66 152 66z" />
    <glyph glyph-name="i" unicode="i" horiz-adv-x="299" 
d="M254 653c0 -59 -44 -102 -105 -102s-105 43 -105 102c0 56 45 102 105 102s105 -47 105 -102zM243 505v-505h-187v505h187z" />
    <glyph glyph-name="j" unicode="j" horiz-adv-x="310" 
d="M265 653c0 -59 -44 -102 -105 -102s-105 43 -105 102c0 56 45 102 105 102s105 -47 105 -102zM-29 -226l26 135c17 -3 28 -5 34 -5c21 0 36 16 36 40v561h188v-578c0 -105 -70 -177 -174 -177c-37 0 -74 8 -110 24z" />
    <glyph glyph-name="k" unicode="k" horiz-adv-x="626" 
d="M428 298l205 -298h-229l-103 149l-67 -79v-70h-187v770h187v-438l151 173h220z" />
    <glyph glyph-name="l" unicode="l" horiz-adv-x="348" 
d="M42 770h187v-586c0 -23 16 -38 40 -38c13 0 30 4 53 12l28 -137l-34 -18c-15 -7 -53 -18 -93 -18c-109 0 -181 73 -181 184v601z" />
    <glyph glyph-name="m" unicode="m" horiz-adv-x="954" 
d="M720 520c55 0 101 -19 136 -57c35 -37 53 -87 53 -148v-315h-187v276c0 47 -30 77 -70 77c-49 0 -81 -39 -81 -102v-251h-187v276c0 47 -30 77 -71 77c-48 0 -79 -38 -79 -102v-251h-187v505h187v-50c37 43 86 65 148 65c71 0 130 -32 162 -88c43 59 101 88 176 88z" />
    <glyph glyph-name="n" unicode="n" horiz-adv-x="620" 
d="M386 520c115 0 190 -80 190 -207v-313h-188v273c0 48 -28 80 -71 80c-51 0 -83 -39 -83 -108v-245h-187v505h187v-51c41 44 91 66 152 66z" />
    <glyph glyph-name="o" unicode="o" horiz-adv-x="606" 
d="M102 444c55 50 122 75 201 75s145 -25 200 -75s83 -114 83 -192s-28 -142 -83 -192c-55 -49 -121 -74 -200 -74s-146 25 -201 74c-55 50 -82 114 -82 192s27 142 82 192zM230 173c41 -43 105 -43 145 0c21 21 31 48 31 79s-10 58 -30 79c-40 43 -106 43 -146 0
c-20 -21 -30 -48 -30 -79s10 -58 30 -79z" />
    <glyph glyph-name="p" unicode="p" horiz-adv-x="646" 
d="M382 520c70 0 128 -25 174 -75c47 -49 70 -114 70 -193s-23 -143 -70 -193c-46 -49 -104 -74 -174 -74c-61 0 -111 19 -148 58v-283h-187v745h187v-43c37 39 87 58 148 58zM337 141c61 0 102 47 102 111c0 65 -41 112 -102 112c-57 0 -103 -48 -103 -112
c0 -63 46 -111 103 -111z" />
    <glyph glyph-name="q" unicode="q" horiz-adv-x="646" 
d="M412 505h187v-745h-187v283c-37 -39 -87 -58 -148 -58c-70 0 -128 25 -175 74c-46 50 -69 114 -69 193s23 144 69 193c47 50 105 75 175 75c61 0 111 -19 148 -58v43zM309 141c57 0 103 48 103 111c0 64 -46 112 -103 112c-61 0 -102 -47 -102 -112
c0 -64 41 -111 102 -111z" />
    <glyph glyph-name="r" unicode="r" horiz-adv-x="444" 
d="M402 511c15 0 27 -1 36 -3l-7 -193h-30c-108 0 -167 -46 -167 -162v-153h-187v505h187v-100c37 71 93 106 168 106z" />
    <glyph glyph-name="s" unicode="s" horiz-adv-x="526" 
d="M19 131l179 35c9 -33 34 -49 75 -49c33 0 53 13 53 30c0 15 -15 25 -46 30l-101 17c-100 18 -150 68 -150 150c0 54 21 97 64 128c43 32 97 48 162 48c132 0 217 -52 241 -141l-168 -33c-4 25 -32 50 -72 50c-31 0 -47 -10 -47 -30c0 -13 11 -22 33 -27l115 -23
c100 -19 149 -76 149 -160c0 -54 -22 -96 -67 -126c-44 -30 -101 -45 -170 -45c-133 0 -229 49 -250 146z" />
    <glyph glyph-name="t" unicode="t" horiz-adv-x="431" 
d="M391 163l37 -141c-46 -25 -94 -37 -144 -37c-131 0 -204 74 -204 202v172h-77v146h77v165h187v-165h134v-146h-134v-151c0 -41 20 -61 60 -61c23 0 44 5 64 16z" />
    <glyph glyph-name="u" unicode="u" horiz-adv-x="620" 
d="M386 505h187v-505h-187v51c-41 -44 -91 -66 -152 -66c-115 0 -190 80 -190 207v313h188v-273c0 -48 28 -80 71 -80c51 0 83 39 83 108v245z" />
    <glyph glyph-name="v" unicode="v" 
d="M411 505h196l-208 -505h-188l-208 505h196l106 -278z" />
    <glyph glyph-name="w" unicode="w" horiz-adv-x="803" 
d="M616 505h184l-158 -505h-159l-81 249l-82 -249h-159l-158 505h184l67 -232l86 232h123l86 -232z" />
    <glyph glyph-name="x" unicode="x" horiz-adv-x="616" 
d="M603 505l-163 -262l163 -243h-210l-85 130l-84 -130h-211l164 243l-164 262h211l84 -141l85 141h210z" />
    <glyph glyph-name="y" unicode="y" horiz-adv-x="624" 
d="M423 505h198l-322 -745h-197l111 258l-210 487h198l107 -267z" />
    <glyph glyph-name="z" unicode="z" horiz-adv-x="553" 
d="M281 146h239v-146h-487v120l233 239h-227v146h474v-123z" />
    <glyph glyph-name="braceleft" unicode="{" horiz-adv-x="417" 
d="M276 567v-133c0 -52 -19 -87 -57 -105c38 -18 57 -53 57 -105v-133c0 -15 9 -25 24 -25h84v-148h-144c-80 0 -133 52 -133 131v150c0 24 -17 41 -51 50l-36 10v140l36 10c34 9 51 26 51 50v150c0 79 53 132 133 132h144v-148h-84c-13 0 -24 -11 -24 -26z" />
    <glyph glyph-name="bar" unicode="|" horiz-adv-x="263" 
d="M216 741v-813h-169v813h169z" />
    <glyph glyph-name="braceright" unicode="}" horiz-adv-x="417" 
d="M361 409l36 -10v-140l-36 -10c-33 -9 -50 -26 -50 -50v-150c0 -79 -54 -131 -134 -131h-144v148h85c15 0 23 8 23 25v133c0 52 19 87 58 105c-39 18 -58 53 -58 105v133c0 17 -8 26 -23 26h-85v148h144c80 0 134 -53 134 -132v-150c0 -24 17 -41 50 -50z" />
    <glyph glyph-name="asciitilde" unicode="~" horiz-adv-x="513" 
d="M169 226h-134c0 62 14 108 42 137c29 30 60 45 94 45c27 0 55 -7 83 -21s46 -21 54 -21c20 0 34 15 34 35h137c0 -62 -15 -108 -44 -138s-61 -45 -96 -45c-27 0 -55 6 -82 19s-45 20 -53 20c-19 0 -30 -10 -35 -31z" />
    <glyph glyph-name="Adieresis" unicode="&#xc4;" horiz-adv-x="752" 
d="M258 714c-57 0 -99 41 -99 98c0 52 42 96 99 96s100 -44 100 -96c0 -57 -41 -98 -100 -98zM496 714c-57 0 -99 41 -99 98c0 52 42 96 99 96s100 -44 100 -96c0 -57 -41 -98 -100 -98zM482 670l270 -670h-207l-37 102h-264l-38 -102h-206l270 670h212zM303 263h147
l-73 201z" />
    <glyph glyph-name="Aring" unicode="&#xc5;" horiz-adv-x="752" 
d="M472 745c-26 -25 -58 -37 -95 -37s-69 12 -95 37s-39 56 -39 92s13 66 39 91s58 38 95 38s69 -13 95 -38s39 -55 39 -91s-13 -67 -39 -92zM406 864c-35 39 -97 -21 -58 -55c16 -15 42 -15 58 0c16 16 16 40 0 55zM482 670l270 -670h-207l-37 102h-264l-38 -102h-206
l270 670h212zM303 263h147l-73 201z" />
    <glyph glyph-name="Ccedilla" unicode="&#xc7;" horiz-adv-x="765" 
d="M391 158c79 0 133 46 152 134l192 -44c-13 -73 -45 -132 -96 -178c-51 -45 -115 -73 -192 -82l-40 -148h-193l98 153c-82 17 -150 58 -203 121s-79 137 -79 221c0 98 35 181 104 248c70 68 156 102 257 102c85 0 160 -23 224 -70c65 -47 105 -109 120 -186l-192 -46
c-19 84 -73 129 -152 129c-47 0 -87 -17 -119 -51s-48 -76 -48 -126s16 -92 48 -126s72 -51 119 -51z" />
    <glyph glyph-name="Eacute" unicode="&#xc9;" horiz-adv-x="617" 
d="M529 892l-127 -160h-173l75 160h225zM239 162h341v-162h-533v670h529v-162h-337v-99h310v-147h-310v-100z" />
    <glyph glyph-name="Ntilde" unicode="&#xd1;" horiz-adv-x="752" 
d="M334 768c-19 0 -26 -7 -34 -30h-105c0 109 52 174 123 174c23 0 45 -6 68 -19c23 -12 41 -18 52 -18c19 0 26 9 34 33h105c0 -109 -52 -174 -123 -174c-23 0 -46 6 -69 17s-40 17 -51 17zM513 670h193v-670h-159l-308 345v-345h-192v670h158l308 -357v357z" />
    <glyph glyph-name="Odieresis" unicode="&#xd6;" horiz-adv-x="782" 
d="M272 714c-57 0 -99 41 -99 98c0 52 42 96 99 96s100 -44 100 -96c0 -57 -41 -98 -100 -98zM510 714c-57 0 -99 41 -99 98c0 52 42 96 99 96s100 -44 100 -96c0 -57 -41 -98 -100 -98zM134 583c70 68 156 102 257 102s187 -34 256 -102c70 -67 105 -150 105 -248
s-35 -181 -105 -249c-69 -67 -155 -101 -256 -101s-187 34 -257 101c-69 68 -104 151 -104 249s35 181 104 248zM558 335c0 50 -16 92 -48 126c-31 34 -71 51 -119 51s-88 -17 -120 -51c-31 -34 -47 -76 -47 -126c0 -51 16 -93 47 -127c32 -33 72 -50 120 -50s88 17 119 50
c32 34 48 76 48 127z" />
    <glyph glyph-name="Udieresis" unicode="&#xdc;" horiz-adv-x="715" 
d="M238 714c-57 0 -99 41 -99 98c0 52 42 96 99 96s100 -44 100 -96c0 -57 -41 -98 -100 -98zM476 714c-57 0 -99 41 -99 98c0 52 42 96 99 96s100 -44 100 -96c0 -57 -41 -98 -100 -98zM474 670h193v-367c0 -97 -28 -174 -84 -232c-55 -57 -129 -86 -221 -86
c-95 0 -171 29 -228 86s-86 135 -86 232v367h193v-367c0 -91 48 -144 121 -144c68 0 112 55 112 144v367z" />
    <glyph glyph-name="aacute" unicode="&#xe1;" horiz-adv-x="565" 
d="M501 727l-127 -160h-173l75 160h225zM289 520c151 0 240 -76 240 -209v-311h-181v35c-39 -33 -88 -50 -147 -50c-111 0 -184 66 -184 165c0 103 80 163 220 163h111v13c0 33 -23 56 -56 56c-37 0 -58 -17 -65 -52l-177 36c25 97 112 154 239 154zM268 119
c44 0 80 29 80 74v16h-75c-36 0 -60 -18 -60 -45c0 -28 23 -45 55 -45z" />
    <glyph glyph-name="agrave" unicode="&#xe0;" horiz-adv-x="565" 
d="M380 567h-173l-127 160h225zM289 520c151 0 240 -76 240 -209v-311h-181v35c-39 -33 -88 -50 -147 -50c-111 0 -184 66 -184 165c0 103 80 163 220 163h111v13c0 33 -23 56 -56 56c-37 0 -58 -17 -65 -52l-177 36c25 97 112 154 239 154zM268 119c44 0 80 29 80 74v16
h-75c-36 0 -60 -18 -60 -45c0 -28 23 -45 55 -45z" />
    <glyph glyph-name="acircumflex" unicode="&#xe2;" horiz-adv-x="565" 
d="M288 614l-36 -50h-177l117 162h191l118 -162h-178zM289 520c151 0 240 -76 240 -209v-311h-181v35c-39 -33 -88 -50 -147 -50c-111 0 -184 66 -184 165c0 103 80 163 220 163h111v13c0 33 -23 56 -56 56c-37 0 -58 -17 -65 -52l-177 36c25 97 112 154 239 154zM268 119
c44 0 80 29 80 74v16h-75c-36 0 -60 -18 -60 -45c0 -28 23 -45 55 -45z" />
    <glyph glyph-name="adieresis" unicode="&#xe4;" horiz-adv-x="565" 
d="M169 549c-57 0 -99 41 -99 98c0 52 42 96 99 96s100 -44 100 -96c0 -57 -41 -98 -100 -98zM407 549c-57 0 -99 41 -99 98c0 52 42 96 99 96s100 -44 100 -96c0 -57 -41 -98 -100 -98zM289 520c151 0 240 -76 240 -209v-311h-181v35c-39 -33 -88 -50 -147 -50
c-111 0 -184 66 -184 165c0 103 80 163 220 163h111v13c0 33 -23 56 -56 56c-37 0 -58 -17 -65 -52l-177 36c25 97 112 154 239 154zM268 119c44 0 80 29 80 74v16h-75c-36 0 -60 -18 -60 -45c0 -28 23 -45 55 -45z" />
    <glyph glyph-name="atilde" unicode="&#xe3;" horiz-adv-x="565" 
d="M244 603c-19 0 -26 -7 -34 -30h-105c0 109 52 174 123 174c23 0 45 -6 68 -19c23 -12 41 -18 52 -18c19 0 26 9 34 33h105c0 -109 -52 -174 -123 -174c-23 0 -46 6 -69 17s-40 17 -51 17zM289 520c151 0 240 -76 240 -209v-311h-181v35c-39 -33 -88 -50 -147 -50
c-111 0 -184 66 -184 165c0 103 80 163 220 163h111v13c0 33 -23 56 -56 56c-37 0 -58 -17 -65 -52l-177 36c25 97 112 154 239 154zM268 119c44 0 80 29 80 74v16h-75c-36 0 -60 -18 -60 -45c0 -28 23 -45 55 -45z" />
    <glyph glyph-name="aring" unicode="&#xe5;" horiz-adv-x="565" 
d="M383 580c-26 -25 -58 -37 -95 -37s-69 12 -95 37s-39 56 -39 92s13 66 39 91s58 38 95 38s69 -13 95 -38s39 -55 39 -91s-13 -67 -39 -92zM317 699c-35 39 -97 -21 -58 -55c16 -15 42 -15 58 0c16 16 16 40 0 55zM289 520c151 0 240 -76 240 -209v-311h-181v35
c-39 -33 -88 -50 -147 -50c-111 0 -184 66 -184 165c0 103 80 163 220 163h111v13c0 33 -23 56 -56 56c-37 0 -58 -17 -65 -52l-177 36c25 97 112 154 239 154zM268 119c44 0 80 29 80 74v16h-75c-36 0 -60 -18 -60 -45c0 -28 23 -45 55 -45z" />
    <glyph glyph-name="ccedilla" unicode="&#xe7;" horiz-adv-x="583" 
d="M392 223l171 -33c-17 -103 -97 -178 -202 -199l-41 -151h-193l99 154c-61 15 -110 45 -149 91c-38 47 -57 102 -57 167c0 79 27 143 81 193c55 50 121 75 199 75c66 0 123 -19 172 -56s79 -85 90 -146l-172 -36c-11 52 -45 80 -90 80c-59 0 -100 -47 -100 -110
s41 -109 100 -109c48 0 79 27 92 80z" />
    <glyph glyph-name="eacute" unicode="&#xe9;" horiz-adv-x="578" 
d="M509 727l-127 -160h-173l75 160h225zM558 242v-35h-355c12 -49 45 -78 92 -78c43 0 72 16 89 49l167 -33c-41 -105 -135 -160 -256 -160c-77 0 -143 25 -196 75s-79 114 -79 192c0 79 26 143 79 193s119 75 196 75s140 -25 189 -74s73 -117 74 -204zM295 374
c-43 0 -77 -24 -90 -64h172c-13 43 -40 64 -82 64z" />
    <glyph glyph-name="egrave" unicode="&#xe8;" horiz-adv-x="578" 
d="M388 567h-173l-127 160h225zM558 242v-35h-355c12 -49 45 -78 92 -78c43 0 72 16 89 49l167 -33c-41 -105 -135 -160 -256 -160c-77 0 -143 25 -196 75s-79 114 -79 192c0 79 26 143 79 193s119 75 196 75s140 -25 189 -74s73 -117 74 -204zM295 374
c-43 0 -77 -24 -90 -64h172c-13 43 -40 64 -82 64z" />
    <glyph glyph-name="ecircumflex" unicode="&#xea;" horiz-adv-x="578" 
d="M296 614l-36 -50h-177l117 162h191l118 -162h-178zM558 242v-35h-355c12 -49 45 -78 92 -78c43 0 72 16 89 49l167 -33c-41 -105 -135 -160 -256 -160c-77 0 -143 25 -196 75s-79 114 -79 192c0 79 26 143 79 193s119 75 196 75s140 -25 189 -74s73 -117 74 -204z
M295 374c-43 0 -77 -24 -90 -64h172c-13 43 -40 64 -82 64z" />
    <glyph glyph-name="edieresis" unicode="&#xeb;" horiz-adv-x="578" 
d="M177 549c-57 0 -99 41 -99 98c0 52 42 96 99 96s100 -44 100 -96c0 -57 -41 -98 -100 -98zM415 549c-57 0 -99 41 -99 98c0 52 42 96 99 96s100 -44 100 -96c0 -57 -41 -98 -100 -98zM558 242v-35h-355c12 -49 45 -78 92 -78c43 0 72 16 89 49l167 -33
c-41 -105 -135 -160 -256 -160c-77 0 -143 25 -196 75s-79 114 -79 192c0 79 26 143 79 193s119 75 196 75s140 -25 189 -74s73 -117 74 -204zM295 374c-43 0 -77 -24 -90 -64h172c-13 43 -40 64 -82 64z" />
    <glyph glyph-name="iacute" unicode="&#xed;" horiz-adv-x="298" 
d="M362 727l-127 -160h-173l75 160h225zM243 505v-505h-188v505h188z" />
    <glyph glyph-name="igrave" unicode="&#xec;" horiz-adv-x="298" 
d="M-59 727h225l75 -160h-173zM243 505v-505h-188v505h188z" />
    <glyph glyph-name="icircumflex" unicode="&#xee;" horiz-adv-x="298" 
d="M150 614l-36 -50h-177l117 162h191l118 -162h-178zM55 0v505h188v-505h-188z" />
    <glyph glyph-name="idieresis" unicode="&#xef;" horiz-adv-x="298" 
d="M130 647c0 -57 -41 -98 -100 -98c-57 0 -99 41 -99 98c0 52 42 96 99 96s100 -44 100 -96zM368 647c0 -57 -41 -98 -100 -98c-57 0 -99 41 -99 98c0 52 42 96 99 96s100 -44 100 -96zM243 505v-505h-188v505h188z" />
    <glyph glyph-name="ntilde" unicode="&#xf1;" horiz-adv-x="620" 
d="M267 603c-19 0 -26 -7 -34 -30h-105c0 109 52 174 123 174c23 0 45 -6 68 -19c23 -12 41 -18 52 -18c19 0 26 9 34 33h105c0 -109 -52 -174 -123 -174c-23 0 -46 6 -69 17s-40 17 -51 17zM386 520c115 0 190 -80 190 -207v-313h-188v273c0 48 -28 80 -71 80
c-51 0 -83 -39 -83 -108v-245h-187v505h187v-51c41 44 91 66 152 66z" />
    <glyph glyph-name="oacute" unicode="&#xf3;" horiz-adv-x="606" 
d="M516 727l-127 -160h-173l75 160h225zM102 444c55 50 122 75 201 75s145 -25 200 -75s83 -114 83 -192s-28 -142 -83 -192c-55 -49 -121 -74 -200 -74s-146 25 -201 74c-55 50 -82 114 -82 192s27 142 82 192zM230 173c41 -43 105 -43 145 0c21 21 31 48 31 79
s-10 58 -30 79c-40 43 -106 43 -146 0c-20 -21 -30 -48 -30 -79s10 -58 30 -79z" />
    <glyph glyph-name="ograve" unicode="&#xf2;" horiz-adv-x="606" 
d="M395 567h-173l-127 160h225zM102 444c55 50 122 75 201 75s145 -25 200 -75s83 -114 83 -192s-28 -142 -83 -192c-55 -49 -121 -74 -200 -74s-146 25 -201 74c-55 50 -82 114 -82 192s27 142 82 192zM230 173c41 -43 105 -43 145 0c21 21 31 48 31 79s-10 58 -30 79
c-40 43 -106 43 -146 0c-20 -21 -30 -48 -30 -79s10 -58 30 -79z" />
    <glyph glyph-name="ocircumflex" unicode="&#xf4;" horiz-adv-x="606" 
d="M304 614l-36 -50h-177l117 162h191l118 -162h-178zM102 444c55 50 122 75 201 75s145 -25 200 -75s83 -114 83 -192s-28 -142 -83 -192c-55 -49 -121 -74 -200 -74s-146 25 -201 74c-55 50 -82 114 -82 192s27 142 82 192zM230 173c41 -43 105 -43 145 0
c21 21 31 48 31 79s-10 58 -30 79c-40 43 -106 43 -146 0c-20 -21 -30 -48 -30 -79s10 -58 30 -79z" />
    <glyph glyph-name="odieresis" unicode="&#xf6;" horiz-adv-x="606" 
d="M184 549c-57 0 -99 41 -99 98c0 52 42 96 99 96s100 -44 100 -96c0 -57 -41 -98 -100 -98zM422 549c-57 0 -99 41 -99 98c0 52 42 96 99 96s100 -44 100 -96c0 -57 -41 -98 -100 -98zM102 444c55 50 122 75 201 75s145 -25 200 -75s83 -114 83 -192s-28 -142 -83 -192
c-55 -49 -121 -74 -200 -74s-146 25 -201 74c-55 50 -82 114 -82 192s27 142 82 192zM230 173c41 -43 105 -43 145 0c21 21 31 48 31 79s-10 58 -30 79c-40 43 -106 43 -146 0c-20 -21 -30 -48 -30 -79s10 -58 30 -79z" />
    <glyph glyph-name="otilde" unicode="&#xf5;" horiz-adv-x="606" 
d="M259 603c-19 0 -26 -7 -34 -30h-105c0 109 52 174 123 174c23 0 45 -6 68 -19c23 -12 41 -18 52 -18c19 0 26 9 34 33h105c0 -109 -52 -174 -123 -174c-23 0 -46 6 -69 17s-40 17 -51 17zM102 444c55 50 122 75 201 75s145 -25 200 -75s83 -114 83 -192
s-28 -142 -83 -192c-55 -49 -121 -74 -200 -74s-146 25 -201 74c-55 50 -82 114 -82 192s27 142 82 192zM230 173c41 -43 105 -43 145 0c21 21 31 48 31 79s-10 58 -30 79c-40 43 -106 43 -146 0c-20 -21 -30 -48 -30 -79s10 -58 30 -79z" />
    <glyph glyph-name="uacute" unicode="&#xfa;" horiz-adv-x="620" 
d="M522 727l-127 -160h-173l75 160h225zM386 505h187v-505h-187v51c-41 -44 -91 -66 -152 -66c-115 0 -190 80 -190 207v313h188v-273c0 -48 28 -80 71 -80c51 0 83 39 83 108v245z" />
    <glyph glyph-name="ugrave" unicode="&#xf9;" horiz-adv-x="620" 
d="M402 567h-173l-127 160h225zM386 505h187v-505h-187v51c-41 -44 -91 -66 -152 -66c-115 0 -190 80 -190 207v313h188v-273c0 -48 28 -80 71 -80c51 0 83 39 83 108v245z" />
    <glyph glyph-name="ucircumflex" unicode="&#xfb;" horiz-adv-x="620" 
d="M310 614l-36 -50h-177l117 162h191l118 -162h-178zM386 505h187v-505h-187v51c-41 -44 -91 -66 -152 -66c-115 0 -190 80 -190 207v313h188v-273c0 -48 28 -80 71 -80c51 0 83 39 83 108v245z" />
    <glyph glyph-name="udieresis" unicode="&#xfc;" horiz-adv-x="620" 
d="M191 549c-57 0 -99 41 -99 98c0 52 42 96 99 96s100 -44 100 -96c0 -57 -41 -98 -100 -98zM429 549c-57 0 -99 41 -99 98c0 52 42 96 99 96s100 -44 100 -96c0 -57 -41 -98 -100 -98zM386 505h187v-505h-187v51c-41 -44 -91 -66 -152 -66c-115 0 -190 80 -190 207v313
h188v-273c0 -48 28 -80 71 -80c51 0 83 39 83 108v245z" />
    <glyph glyph-name="dagger" unicode="&#x2020;" horiz-adv-x="395" 
d="M253 650h110v-102h-110v-249h-111v249h-110v102h110v90h111v-90z" />
    <glyph glyph-name="degree" unicode="&#xb0;" horiz-adv-x="440" 
d="M383 527c0 -46 -16 -84 -48 -113c-31 -29 -70 -44 -115 -44s-84 15 -116 44c-31 29 -47 67 -47 113c0 47 16 85 47 114c32 29 71 44 116 44s84 -15 115 -44c32 -29 48 -67 48 -114zM180 484c23 -21 57 -21 80 0s23 65 0 86c-23 23 -57 23 -80 0c-23 -21 -23 -65 0 -86z
" />
    <glyph glyph-name="cent" unicode="&#xa2;" horiz-adv-x="583" 
d="M392 223l171 -33c-17 -99 -89 -171 -186 -195v-125h-154v125c-59 15 -108 45 -146 91c-38 47 -57 102 -57 166c0 65 19 120 57 166c38 47 87 77 146 92v120h154v-120c96 -24 168 -96 185 -192l-172 -36c-11 52 -45 80 -90 80c-59 0 -100 -47 -100 -110s41 -109 100 -109
c48 0 79 27 92 80z" />
    <glyph glyph-name="sterling" unicode="&#xa3;" horiz-adv-x="598" 
d="M283 162h294v-162h-544v122l63 20v85h-63v152h63v82c0 67 22 121 66 162s102 62 174 62c67 0 123 -20 166 -60c44 -39 69 -91 74 -155l-180 -32c-6 53 -26 80 -60 80c-32 0 -53 -22 -53 -57v-82h161v-152h-161v-65z" />
    <glyph glyph-name="section" unicode="&#xa7;" horiz-adv-x="562" 
d="M539 262c0 -62 -27 -110 -81 -144c17 -25 25 -55 25 -89c0 -113 -87 -172 -208 -172c-137 0 -216 69 -224 180l155 29c3 -49 23 -74 60 -74c25 0 45 17 45 41c0 18 -15 33 -44 45l-118 45c-86 31 -129 83 -129 158c0 62 27 110 81 143c-17 26 -25 56 -25 90
c0 113 85 171 208 171c132 0 211 -70 218 -174l-156 -28c-3 45 -20 67 -53 67c-25 0 -45 -16 -45 -41c0 -19 15 -33 44 -44l118 -45c86 -31 129 -84 129 -158zM221 255l123 -53l9 -4c17 13 25 27 25 42c0 19 -13 35 -40 48l-123 52l-10 4c-16 -12 -24 -26 -24 -41
c0 -21 13 -37 40 -48z" />
    <glyph glyph-name="bullet" unicode="&#x2022;" horiz-adv-x="407" 
d="M204 442c51 0 93 -18 128 -54c35 -35 52 -77 52 -125c0 -51 -17 -93 -51 -127s-77 -51 -129 -51s-95 17 -129 51s-51 76 -51 127c0 48 17 90 51 125c35 36 78 54 129 54z" />
    <glyph glyph-name="paragraph" unicode="&#xb6;" horiz-adv-x="615" 
d="M400 670v-670h-121v299h-50c-61 0 -111 17 -150 51c-39 35 -59 81 -59 138c0 117 75 182 195 182h185zM569 670v-670h-122v670h122z" />
    <glyph glyph-name="germandbls" unicode="&#xdf;" horiz-adv-x="669" 
d="M509 381c84 -21 138 -87 138 -179c0 -62 -21 -113 -63 -154c-41 -40 -96 -60 -163 -60c-47 0 -93 4 -138 12l18 153c33 -6 60 -9 80 -9c48 0 83 32 83 72c0 48 -39 78 -103 78h-45v150h25c47 0 78 28 78 67c0 45 -33 73 -82 73c-61 0 -103 -43 -103 -110v-474h-187v460
c0 83 27 150 80 201s123 76 210 76c78 0 142 -19 192 -58c51 -38 76 -87 76 -148c0 -73 -39 -130 -96 -150z" />
    <glyph glyph-name="registered" unicode="&#xae;" horiz-adv-x="473" 
d="M437 484c0 -57 -19 -105 -58 -143s-86 -57 -142 -57s-103 19 -142 57s-58 86 -58 143c0 58 19 106 58 144s86 57 142 57s103 -19 142 -57s58 -86 58 -144zM391 484c0 45 -15 82 -45 112s-66 45 -109 45s-79 -15 -109 -45c-29 -30 -44 -67 -44 -112c0 -44 15 -81 44 -111
c30 -29 66 -44 109 -44s79 15 109 44c30 30 45 67 45 111zM324 518c0 -27 -13 -47 -38 -58l48 -59h-61l-40 52h-20v-52h-51v179h91c45 0 71 -25 71 -62zM213 538v-43h36c16 0 27 10 27 22c0 14 -9 21 -27 21h-36z" />
    <glyph glyph-name="copyright" unicode="&#xa9;" horiz-adv-x="757" 
d="M378 685c97 0 179 -33 247 -100c69 -67 103 -150 103 -251s-34 -184 -102 -250s-151 -99 -248 -99s-180 33 -249 99c-68 66 -102 149 -102 250c0 100 34 183 102 250c69 67 152 101 249 101zM89 334c0 -84 28 -154 84 -209c57 -55 125 -83 205 -83s148 28 204 83
s84 125 84 209s-28 154 -84 210c-56 57 -124 85 -204 85s-148 -28 -205 -84c-56 -56 -84 -126 -84 -211zM384 522c49 0 90 -14 123 -42c33 -27 51 -61 54 -102l-105 -20c-7 36 -36 58 -75 58c-44 0 -78 -34 -78 -82s34 -82 78 -82c40 0 70 23 75 63l107 -18
c-3 -43 -22 -79 -55 -108s-74 -43 -124 -43c-53 0 -99 17 -137 52c-37 35 -56 81 -56 136s19 100 56 135c38 35 84 53 137 53z" />
    <glyph glyph-name="trademark" unicode="&#x2122;" horiz-adv-x="710" 
d="M303 670v-83h-85v-200h-98v200h-84v83h267zM665 670v-283h-95v128l-51 -125h-43l-51 125v-128h-94v283h103l63 -149l64 149h104z" />
    <glyph glyph-name="acute" unicode="&#xb4;" horiz-adv-x="600" 
d="M473 727l-127 -160h-173l75 160h225z" />
    <glyph glyph-name="dieresis" unicode="&#xa8;" horiz-adv-x="600" 
d="M281 647c0 -57 -41 -98 -100 -98c-57 0 -99 41 -99 98c0 52 42 96 99 96s100 -44 100 -96zM519 647c0 -57 -41 -98 -100 -98c-57 0 -99 41 -99 98c0 52 42 96 99 96s100 -44 100 -96z" />
    <glyph glyph-name="notequal" unicode="&#x2260;" horiz-adv-x="567" 
d="M527 340h-159l-32 -60h191v-138h-266l-47 -87h-130l47 87h-91v138h166l32 60h-198v138h273l41 76h130l-41 -76h84v-138z" />
    <glyph glyph-name="AE" unicode="&#xc6;" horiz-adv-x="1051" 
d="M677 162h341v-162h-534v95h-206l-52 -95h-226l409 670h605v-162h-337v-99h309v-147h-309v-100zM366 255h118v214z" />
    <glyph glyph-name="Oslash" unicode="&#xd8;" horiz-adv-x="782" 
d="M658 675l83 -83l-54 -54c43 -60 65 -128 65 -203c0 -98 -35 -181 -105 -249c-69 -67 -155 -101 -256 -101c-73 0 -140 19 -200 57l-67 -67l-83 83l63 63c-49 61 -74 132 -74 214c0 98 35 181 104 248c70 68 156 102 257 102c79 0 149 -22 212 -65zM224 335
c0 -27 5 -53 16 -78l234 234c-26 14 -54 21 -83 21c-48 0 -88 -17 -120 -51c-31 -34 -47 -76 -47 -126zM391 158c48 0 88 17 119 50c32 34 48 76 48 127c0 23 -3 45 -10 64l-226 -226c21 -10 44 -15 69 -15z" />
    <glyph glyph-name="plusminus" unicode="&#xb1;" horiz-adv-x="567" 
d="M356 482h171v-145h-171v-135h-145v135h-171v145h171v156h145v-156zM40 0v145h487v-145h-487z" />
    <glyph glyph-name="lessequal" unicode="&#x2264;" horiz-adv-x="486" 
d="M447 369v-148l-415 106v172l415 108v-152l-247 -42zM31 203h416v-145h-416v145z" />
    <glyph glyph-name="greaterequal" unicode="&#x2265;" horiz-adv-x="486" 
d="M40 369l247 44l-247 42v152l415 -108v-172l-415 -106v148zM456 203v-145h-416v145h416z" />
    <glyph glyph-name="yen" unicode="&#xa5;" horiz-adv-x="704" 
d="M691 670l-194 -345h118v-107h-171v-37h171v-106h-171v-75h-192v75h-162v106h162v37h-162v107h110l-187 345h201l134 -261l134 261h209z" />
    <glyph glyph-name="ordfeminine" unicode="&#xaa;" horiz-adv-x="390" 
d="M202 675c101 0 169 -48 169 -143v-203h-131v20c-25 -20 -56 -30 -93 -30s-68 10 -91 30c-23 21 -34 48 -34 81c0 67 57 107 153 107h65v10c0 20 -14 33 -35 33c-19 0 -32 -9 -39 -27l-122 21c19 67 71 101 158 101zM191 405c29 0 49 18 49 47v14h-45
c-52 5 -50 -65 -4 -61z" />
    <glyph glyph-name="ordmasculine" unicode="&#xba;" horiz-adv-x="418" 
d="M208 675c53 0 98 -17 135 -50s56 -76 56 -128s-19 -95 -56 -128s-82 -50 -135 -50c-52 0 -97 17 -134 50s-55 76 -55 128s18 95 55 128s82 50 134 50zM208 434c36 0 61 27 61 63s-25 63 -61 63c-33 0 -59 -28 -59 -63s26 -63 59 -63z" />
    <glyph glyph-name="ae" unicode="&#xe6;" horiz-adv-x="890" 
d="M870 239v-36h-354c13 -49 44 -74 93 -74c41 0 69 17 85 50l162 -34c-13 -47 -43 -86 -89 -116c-45 -29 -98 -44 -159 -44c-69 0 -129 20 -179 61c-50 -41 -116 -61 -197 -61c-137 0 -215 61 -215 162c0 99 76 153 216 153h115v26c0 33 -25 57 -60 57
c-36 0 -57 -18 -63 -53l-173 36c9 45 33 82 74 111s96 43 163 43s121 -15 162 -45c47 30 99 45 156 45c77 0 140 -25 189 -75c49 -49 74 -118 74 -206zM515 300h174c-11 50 -38 75 -83 75c-49 0 -79 -25 -91 -75zM347 183v18h-79c-41 0 -62 -14 -62 -42c0 -27 23 -44 58 -44
c44 0 83 28 83 68z" />
    <glyph glyph-name="oslash" unicode="&#xf8;" horiz-adv-x="606" 
d="M513 526l64 -64l-47 -47c37 -46 56 -100 56 -163c0 -78 -28 -142 -83 -192c-55 -49 -121 -74 -200 -74c-59 0 -112 14 -159 43l-55 -55l-64 64l51 51c-37 46 -56 100 -56 163c0 78 27 142 82 192s122 75 201 75c59 0 112 -15 159 -44zM200 252c0 -11 2 -22 5 -34l137 137
c-13 5 -26 8 -39 8c-57 0 -103 -48 -103 -111zM303 141c56 0 103 48 103 111c0 11 -2 23 -5 34l-137 -137c13 -5 26 -8 39 -8z" />
    <glyph glyph-name="questiondown" unicode="&#xbf;" horiz-adv-x="551" 
d="M178 420c0 57 44 100 104 100s104 -43 104 -100c0 -55 -44 -100 -104 -100s-104 45 -104 100zM342 66l186 -38c-23 -116 -117 -198 -270 -198c-71 0 -129 20 -174 61c-44 41 -66 92 -66 153c0 95 64 163 169 188v46h184l-1 -166h-84c-48 0 -80 -23 -80 -58
c0 -37 26 -62 63 -62c40 0 66 29 73 74z" />
    <glyph glyph-name="exclamdown" unicode="&#xa1;" horiz-adv-x="306" 
d="M157 319c-59 0 -103 46 -103 101c0 56 43 99 103 99s105 -43 105 -99c0 -55 -45 -101 -105 -101zM47 -156v31l15 400h182l15 -400v-31h-212z" />
    <glyph glyph-name="florin" unicode="&#x192;" horiz-adv-x="591" 
d="M459 528c-35 0 -62 -22 -67 -59l-13 -69h121v-146h-147l-42 -231c-21 -115 -104 -188 -216 -188c-40 0 -79 12 -118 37l52 136c63 -25 87 -8 97 28l40 218h-88v146h114l15 82c11 61 38 110 82 147s97 56 158 56c48 0 92 -11 132 -34l-57 -142c-23 13 -44 19 -63 19z" />
    <glyph glyph-name="approxequal" unicode="&#x2248;" horiz-adv-x="564" 
d="M524 464v-133c-31 -15 -67 -22 -109 -22c-37 0 -80 8 -128 25s-89 26 -123 26c-55 0 -96 -10 -124 -29v129c29 22 71 33 124 33c35 0 77 -9 126 -26s92 -25 127 -25c44 0 80 7 107 22zM524 295v-133c-31 -15 -67 -22 -109 -22c-37 0 -80 8 -128 25s-89 26 -123 26
c-55 0 -96 -10 -124 -29v130c29 21 70 32 124 32c35 0 77 -9 126 -26s92 -25 127 -25c44 0 80 7 107 22z" />
    <glyph glyph-name="guillemotleft" unicode="&#xab;" horiz-adv-x="539" 
d="M124 84l-99 178l99 178h170l-99 -178l99 -178h-170zM344 84l-99 178l99 178h170l-99 -178l99 -178h-170z" />
    <glyph glyph-name="guillemotright" unicode="&#xbb;" horiz-adv-x="539" 
d="M195 84h-170l99 178l-99 178h170l99 -178zM415 84h-170l99 178l-99 178h170l99 -178z" />
    <glyph glyph-name="ellipsis" unicode="&#x2026;" horiz-adv-x="821" 
d="M231 97c0 -59 -44 -102 -104 -102s-104 43 -104 102c0 56 44 104 104 104s104 -48 104 -104zM410 201c60 0 105 -48 105 -104c0 -59 -44 -102 -105 -102c-60 0 -103 43 -103 102c0 56 44 104 103 104zM694 201c59 0 104 -48 104 -104c0 -59 -44 -102 -104 -102
s-104 43 -104 102c0 56 44 104 104 104z" />
    <glyph glyph-name="Agrave" unicode="&#xc0;" horiz-adv-x="752" 
d="M469 732h-173l-127 160h225zM482 670l270 -670h-207l-37 102h-264l-38 -102h-206l270 670h212zM303 263h147l-73 201z" />
    <glyph glyph-name="Atilde" unicode="&#xc3;" horiz-adv-x="752" 
d="M332 768c-19 0 -26 -7 -34 -30h-105c0 109 52 174 123 174c23 0 45 -6 68 -19c23 -12 41 -18 52 -18c19 0 26 9 34 33h105c0 -109 -52 -174 -123 -174c-23 0 -46 6 -69 17s-40 17 -51 17zM482 670l270 -670h-207l-37 102h-264l-38 -102h-206l270 670h212zM303 263h147
l-73 201z" />
    <glyph glyph-name="Otilde" unicode="&#xd5;" horiz-adv-x="782" 
d="M347 768c-19 0 -26 -7 -34 -30h-105c0 109 52 174 123 174c23 0 45 -6 68 -19c23 -12 41 -18 52 -18c19 0 26 9 34 33h105c0 -109 -52 -174 -123 -174c-23 0 -46 6 -69 17s-40 17 -51 17zM134 583c70 68 156 102 257 102s187 -34 256 -102c70 -67 105 -150 105 -248
s-35 -181 -105 -249c-69 -67 -155 -101 -256 -101s-187 34 -257 101c-69 68 -104 151 -104 249s35 181 104 248zM558 335c0 50 -16 92 -48 126c-31 34 -71 51 -119 51s-88 -17 -120 -51c-31 -34 -47 -76 -47 -126c0 -51 16 -93 47 -127c32 -33 72 -50 120 -50s88 17 119 50
c32 34 48 76 48 127z" />
    <glyph glyph-name="OE" unicode="&#x152;" horiz-adv-x="1029" 
d="M651 162h341v-162h-573c-116 0 -210 31 -282 93c-71 63 -107 143 -107 242s36 179 107 241c72 63 166 94 282 94h569v-162h-337v-99h310v-147h-310v-100zM419 162h40v346h-40c-125 0 -195 -69 -195 -173s70 -173 195 -173z" />
    <glyph glyph-name="oe" unicode="&#x153;" horiz-adv-x="964" 
d="M944 242v-35h-355c13 -52 43 -78 91 -78c43 0 73 16 90 49l166 -33c-41 -105 -133 -160 -256 -160c-73 0 -135 22 -186 67c-53 -44 -117 -66 -191 -66c-79 0 -146 25 -201 74c-55 50 -82 114 -82 192s27 142 82 192s122 75 201 75c74 0 138 -22 191 -66
c51 45 113 67 186 67c77 0 140 -25 189 -74s74 -117 75 -204zM680 374c-41 0 -76 -24 -89 -64h172c-12 41 -44 64 -83 64zM230 173c41 -43 105 -43 145 0c21 21 31 48 31 79s-10 58 -30 79c-40 43 -106 43 -146 0c-20 -21 -30 -48 -30 -79s10 -58 30 -79z" />
    <glyph glyph-name="endash" unicode="&#x2013;" horiz-adv-x="620" 
d="M560 344v-147h-500v147h500z" />
    <glyph glyph-name="emdash" unicode="&#x2014;" horiz-adv-x="1040" 
d="M980 344v-147h-920v147h920z" />
    <glyph glyph-name="quotedblleft" unicode="&#x201c;" horiz-adv-x="553" 
d="M28 366l117 304h143l-58 -308h-202v4zM265 366l117 304h143l-58 -308h-202v4z" />
    <glyph glyph-name="quotedblright" unicode="&#x201d;" horiz-adv-x="553" 
d="M288 666l-117 -304h-143l58 308h202v-4zM525 666l-117 -304h-143l58 308h202v-4z" />
    <glyph glyph-name="quoteleft" unicode="&#x2018;" horiz-adv-x="317" 
d="M28 366l117 304h143l-58 -308h-202v4z" />
    <glyph glyph-name="quoteright" unicode="&#x2019;" horiz-adv-x="317" 
d="M288 666l-117 -304h-143l58 308h202v-4z" />
    <glyph glyph-name="divide" unicode="&#xf7;" horiz-adv-x="567" 
d="M373 515c0 -51 -39 -89 -91 -89s-90 38 -90 89c0 49 38 91 90 91s91 -42 91 -91zM527 394v-145h-487v145h487zM373 129c0 -51 -39 -89 -91 -89s-90 38 -90 89c0 49 38 91 90 91s91 -42 91 -91z" />
    <glyph glyph-name="ydieresis" unicode="&#xff;" horiz-adv-x="624" 
d="M198 549c-57 0 -99 41 -99 98c0 52 42 96 99 96s100 -44 100 -96c0 -57 -41 -98 -100 -98zM436 549c-57 0 -99 41 -99 98c0 52 42 96 99 96s100 -44 100 -96c0 -57 -41 -98 -100 -98zM423 505h198l-322 -745h-197l111 258l-210 487h198l107 -267z" />
    <glyph glyph-name="Ydieresis" unicode="&#x178;" horiz-adv-x="721" 
d="M241 714c-57 0 -99 41 -99 98c0 52 42 96 99 96s100 -44 100 -96c0 -57 -41 -98 -100 -98zM479 714c-57 0 -99 41 -99 98c0 52 42 96 99 96s100 -44 100 -96c0 -57 -41 -98 -100 -98zM505 670h213l-262 -465v-205h-200v205l-253 465h211l146 -272z" />
    <glyph glyph-name="fraction" unicode="&#x2044;" horiz-adv-x="251" 
d="M-66 0h-101l478 670h100z" />
    <glyph glyph-name="Euro" unicode="&#x20ac;" horiz-adv-x="743" 
d="M527 286l186 -37c-11 -79 -44 -142 -98 -191c-53 -49 -120 -73 -199 -73c-144 0 -251 88 -290 232h-86v96h72v22v22h-72v95h86c37 144 146 233 290 233c79 0 144 -24 197 -72s86 -111 99 -189l-185 -35c-15 89 -52 134 -111 134c-42 0 -73 -24 -94 -71h147l-19 -95h-147
l-1 -22c0 -10 0 -17 1 -22h140l-19 -96h-102c21 -47 52 -70 94 -70c57 0 94 46 111 139z" />
    <glyph glyph-name="guilsinglleft" unicode="&#x2039;" horiz-adv-x="319" 
d="M124 84l-99 178l99 178h170l-99 -178l99 -178h-170z" />
    <glyph glyph-name="guilsinglright" unicode="&#x203a;" horiz-adv-x="319" 
d="M195 84h-170l99 178l-99 178h170l99 -178z" />
    <glyph glyph-name="daggerdbl" unicode="&#x2021;" horiz-adv-x="395" 
d="M363 548h-110v-57h110v-102h-110v-90h-111v90h-110v102h110v57h-110v102h110v90h111v-90h110v-102z" />
    <glyph glyph-name="middot" unicode="&#xb7;" horiz-adv-x="255" 
d="M231 263c0 -59 -44 -102 -104 -102s-104 43 -104 102c0 56 44 104 104 104s104 -48 104 -104z" />
    <glyph glyph-name="quotesinglbase" unicode="&#x201a;" horiz-adv-x="317" 
d="M288 172l-117 -304h-143l58 308h202v-4z" />
    <glyph glyph-name="quotedblbase" unicode="&#x201e;" horiz-adv-x="553" 
d="M288 172l-117 -304h-143l58 308h202v-4zM525 172l-117 -304h-143l58 308h202v-4z" />
    <glyph glyph-name="perthousand" unicode="&#x2030;" horiz-adv-x="1310" 
d="M220 685c49 0 91 -16 126 -48s52 -74 52 -125s-17 -93 -52 -125s-77 -48 -126 -48c-50 0 -93 16 -128 48s-52 74 -52 125s17 93 52 125s78 48 128 48zM261 0h-101l478 670h100zM220 578c-35 0 -64 -26 -64 -66c0 -39 31 -66 64 -66s62 27 62 66c0 40 -29 66 -62 66z
M678 331c49 0 91 -16 126 -48s52 -74 52 -125s-17 -93 -52 -125s-77 -48 -126 -48c-50 0 -93 16 -128 48s-52 74 -52 125s17 93 52 125s78 48 128 48zM1091 331c49 0 91 -16 126 -48s53 -74 53 -125s-18 -93 -53 -125s-77 -48 -126 -48c-50 0 -93 16 -128 48s-52 74 -52 125
s17 93 52 125s78 48 128 48zM678 224c-35 0 -64 -26 -64 -66c0 -39 31 -66 64 -66s62 27 62 66c0 40 -29 66 -62 66zM1028 158c0 -39 30 -66 63 -66s62 27 62 66c0 40 -29 66 -62 66s-63 -26 -63 -66z" />
    <glyph glyph-name="Acircumflex" unicode="&#xc2;" horiz-adv-x="752" 
d="M377 779l-36 -50h-177l117 162h191l118 -162h-178zM482 670l270 -670h-207l-37 102h-264l-38 -102h-206l270 670h212zM303 263h147l-73 201z" />
    <glyph glyph-name="Ecircumflex" unicode="&#xca;" horiz-adv-x="617" 
d="M316 779l-36 -50h-177l117 162h191l118 -162h-178zM239 162h341v-162h-533v670h529v-162h-337v-99h310v-147h-310v-100z" />
    <glyph glyph-name="Aacute" unicode="&#xc1;" horiz-adv-x="752" 
d="M589 892l-127 -160h-173l75 160h225zM482 670l270 -670h-207l-37 102h-264l-38 -102h-206l270 670h212zM303 263h147l-73 201z" />
    <glyph glyph-name="Edieresis" unicode="&#xcb;" horiz-adv-x="617" 
d="M197 714c-57 0 -99 41 -99 98c0 52 42 96 99 96s100 -44 100 -96c0 -57 -41 -98 -100 -98zM435 714c-57 0 -99 41 -99 98c0 52 42 96 99 96s100 -44 100 -96c0 -57 -41 -98 -100 -98zM239 162h341v-162h-533v670h529v-162h-337v-99h310v-147h-310v-100z" />
    <glyph glyph-name="Egrave" unicode="&#xc8;" horiz-adv-x="617" 
d="M408 732h-173l-127 160h225zM239 162h341v-162h-533v670h529v-162h-337v-99h310v-147h-310v-100z" />
    <glyph glyph-name="Iacute" unicode="&#xcd;" horiz-adv-x="459" 
d="M443 892l-127 -160h-173l75 160h225zM20 670h419v-165h-113v-340h113v-165h-419v165h113v340h-113v165z" />
    <glyph glyph-name="Icircumflex" unicode="&#xce;" horiz-adv-x="459" 
d="M230 779l-36 -50h-177l117 162h191l118 -162h-178zM20 670h419v-165h-113v-340h113v-165h-419v165h113v340h-113v165z" />
    <glyph glyph-name="Idieresis" unicode="&#xcf;" horiz-adv-x="459" 
d="M111 714c-57 0 -99 41 -99 98c0 52 42 96 99 96s100 -44 100 -96c0 -57 -41 -98 -100 -98zM349 714c-57 0 -99 41 -99 98c0 52 42 96 99 96s100 -44 100 -96c0 -57 -41 -98 -100 -98zM20 670h419v-165h-113v-340h113v-165h-419v165h113v340h-113v165z" />
    <glyph glyph-name="Igrave" unicode="&#xcc;" horiz-adv-x="459" 
d="M322 732h-173l-127 160h225zM439 505h-113v-340h113v-165h-419v165h113v340h-113v165h419v-165z" />
    <glyph glyph-name="Oacute" unicode="&#xd3;" horiz-adv-x="782" 
d="M604 892l-127 -160h-173l75 160h225zM134 583c70 68 156 102 257 102s187 -34 256 -102c70 -67 105 -150 105 -248s-35 -181 -105 -249c-69 -67 -155 -101 -256 -101s-187 34 -257 101c-69 68 -104 151 -104 249s35 181 104 248zM558 335c0 50 -16 92 -48 126
c-31 34 -71 51 -119 51s-88 -17 -120 -51c-31 -34 -47 -76 -47 -126c0 -51 16 -93 47 -127c32 -33 72 -50 120 -50s88 17 119 50c32 34 48 76 48 127z" />
    <glyph glyph-name="Ocircumflex" unicode="&#xd4;" horiz-adv-x="782" 
d="M391 779l-36 -50h-177l117 162h191l118 -162h-178zM134 583c70 68 156 102 257 102s187 -34 256 -102c70 -67 105 -150 105 -248s-35 -181 -105 -249c-69 -67 -155 -101 -256 -101s-187 34 -257 101c-69 68 -104 151 -104 249s35 181 104 248zM558 335
c0 50 -16 92 -48 126c-31 34 -71 51 -119 51s-88 -17 -120 -51c-31 -34 -47 -76 -47 -126c0 -51 16 -93 47 -127c32 -33 72 -50 120 -50s88 17 119 50c32 34 48 76 48 127z" />
    <glyph glyph-name="Ograve" unicode="&#xd2;" horiz-adv-x="782" 
d="M483 732h-173l-127 160h225zM134 583c70 68 156 102 257 102s187 -34 256 -102c70 -67 105 -150 105 -248s-35 -181 -105 -249c-69 -67 -155 -101 -256 -101s-187 34 -257 101c-69 68 -104 151 -104 249s35 181 104 248zM558 335c0 50 -16 92 -48 126
c-31 34 -71 51 -119 51s-88 -17 -120 -51c-31 -34 -47 -76 -47 -126c0 -51 16 -93 47 -127c32 -33 72 -50 120 -50s88 17 119 50c32 34 48 76 48 127z" />
    <glyph glyph-name="Uacute" unicode="&#xda;" horiz-adv-x="715" 
d="M570 892l-127 -160h-173l75 160h225zM474 670h193v-367c0 -97 -28 -174 -84 -232c-55 -57 -129 -86 -221 -86c-95 0 -171 29 -228 86s-86 135 -86 232v367h193v-367c0 -91 48 -144 121 -144c68 0 112 55 112 144v367z" />
    <glyph glyph-name="Ucircumflex" unicode="&#xdb;" horiz-adv-x="715" 
d="M357 779l-36 -50h-177l117 162h191l118 -162h-178zM474 670h193v-367c0 -97 -28 -174 -84 -232c-55 -57 -129 -86 -221 -86c-95 0 -171 29 -228 86s-86 135 -86 232v367h193v-367c0 -91 48 -144 121 -144c68 0 112 55 112 144v367z" />
    <glyph glyph-name="Ugrave" unicode="&#xd9;" horiz-adv-x="715" 
d="M449 732h-173l-127 160h225zM474 670h193v-367c0 -97 -28 -174 -84 -232c-55 -57 -129 -86 -221 -86c-95 0 -171 29 -228 86s-86 135 -86 232v367h193v-367c0 -91 48 -144 121 -144c68 0 112 55 112 144v367z" />
    <glyph glyph-name="dotlessi" unicode="&#x131;" horiz-adv-x="298" 
d="M243 505v-505h-188v505h188z" />
    <glyph glyph-name="circumflex" unicode="&#x2c6;" horiz-adv-x="600" 
d="M514 564h-178l-35 50l-36 -50h-177l117 162h191z" />
    <glyph glyph-name="tilde" unicode="&#x2dc;" horiz-adv-x="600" 
d="M222 573h-105c0 109 52 174 123 174c23 0 45 -6 68 -19c23 -12 41 -18 52 -18c19 0 26 9 34 33h105c0 -109 -52 -174 -123 -174c-23 0 -46 6 -69 17s-40 17 -51 17c-19 0 -26 -7 -34 -30z" />
    <glyph glyph-name="overscore" unicode="&#xaf;" horiz-adv-x="600" 
d="M472 709v-140h-344v140h344z" />
    <glyph glyph-name="breve" unicode="&#x2d8;" horiz-adv-x="600" 
d="M112 718h142c0 -24 18 -43 46 -43s47 19 47 43h141c0 -101 -76 -168 -188 -168s-188 67 -188 168z" />
    <glyph glyph-name="dotaccent" unicode="&#x2d9;" horiz-adv-x="600" 
d="M403 656c0 -59 -43 -100 -103 -100s-102 41 -102 100c0 55 43 100 102 100s103 -45 103 -100z" />
    <glyph glyph-name="ring" unicode="&#x2da;" horiz-adv-x="600" 
d="M395 763c26 -25 39 -55 39 -91s-13 -67 -39 -92s-58 -37 -95 -37s-69 12 -95 37s-39 56 -39 92s13 66 39 91s58 38 95 38s69 -13 95 -38zM329 644c39 34 -23 94 -58 55c-16 -15 -16 -39 0 -55c16 -15 42 -15 58 0z" />
    <glyph glyph-name="cedilla" unicode="&#xb8;" horiz-adv-x="600" 
d="M163 -160l103 160h133l-43 -160h-193z" />
    <glyph glyph-name="hungarumlaut" unicode="&#x2dd;" horiz-adv-x="600" 
d="M329 727l-125 -160h-154l82 160h197zM551 727l-131 -160h-155l82 160h204z" />
    <glyph glyph-name="ogonek" unicode="&#x2db;" horiz-adv-x="600" 
d="M217 7l110 -7c-32 -33 -50 -54 -53 -63c-2 -4 -3 -8 -3 -13c0 -16 9 -24 28 -24c11 0 28 3 51 10l7 -103c-32 -15 -66 -23 -102 -23c-65 0 -111 37 -111 97c0 47 24 89 73 126z" />
    <glyph glyph-name="caron" unicode="&#x2c7;" horiz-adv-x="600" 
d="M336 726h178l-118 -162h-191l-117 162h177l36 -50z" />
    <glyph glyph-name="onequarter" unicode="&#xbc;" horiz-adv-x="761" 
d="M97 283v237l-83 -45v119l124 76h81v-387h-122zM565 670h100l-478 -670h-100zM746 158v-99h-47v-59h-114v59h-196v110l167 218h143v-229h47zM505 158h80v108z" />
    <glyph glyph-name="onehalf" unicode="&#xbd;" horiz-adv-x="801" 
d="M97 283v237l-83 -45v119l124 76h81v-387h-122zM551 670h101l-478 -670h-100zM672 138l-42 -35h118v-103h-300v75l138 125l25 24c9 9 20 25 20 38c0 19 -13 31 -32 31c-26 0 -39 -17 -40 -52l-112 21c0 80 60 134 152 134c91 0 151 -50 151 -133c0 -51 -25 -81 -78 -125z
" />
    <glyph glyph-name="threequarters" unicode="&#xbe;" horiz-adv-x="829" 
d="M332 404c0 -36 -15 -66 -45 -91s-68 -37 -113 -37c-87 0 -149 50 -157 126l110 21c7 -31 24 -47 49 -47c26 0 39 10 39 31c0 19 -18 32 -43 32h-44v84h40c29 0 44 10 44 30c0 19 -15 31 -39 31c-25 0 -40 -15 -43 -46l-110 21c7 68 69 121 152 121c89 0 153 -52 153 -124
c0 -31 -15 -55 -45 -73c35 -18 52 -44 52 -79zM629 670h101l-478 -670h-100zM814 158v-99h-47v-59h-114v59h-196v110l167 218h143v-229h47zM573 158h80v108z" />
    <glyph glyph-name="Eth" unicode="&#xd0;" horiz-adv-x="732" 
d="M63 417v253h283c110 0 198 -31 265 -93c67 -61 101 -142 101 -242s-34 -181 -101 -243c-67 -61 -155 -92 -265 -92h-283v252h-46v165h46zM256 252v-90h77c111 0 184 70 184 173s-73 173 -184 173h-77v-91h93v-165h-93z" />
    <glyph glyph-name="multiply" unicode="&#xd7;" horiz-adv-x="535" 
d="M499 431l-130 -129l130 -130l-101 -102l-131 130l-130 -130l-102 102l130 130l-130 129l102 102l130 -130l131 130z" />
    <glyph glyph-name="Yacute" unicode="&#xdd;" horiz-adv-x="721" 
d="M573 892l-127 -160h-173l75 160h225zM505 670h213l-262 -465v-205h-200v205l-253 465h211l146 -272z" />
    <glyph glyph-name="Thorn" unicode="&#xde;" horiz-adv-x="652" 
d="M239 670v-102h138c75 0 135 -21 180 -63s68 -98 68 -167c0 -71 -24 -129 -72 -172s-111 -64 -190 -64h-124v-102h-192v670h192zM239 409v-155h112c52 0 85 32 85 79c0 45 -33 76 -85 76h-112z" />
    <glyph glyph-name="eth" unicode="&#xf0;" horiz-adv-x="606" 
d="M452 732l36 -85l-63 -24c107 -121 161 -244 161 -368c0 -92 -36 -167 -92 -208c-55 -41 -120 -62 -188 -62c-79 0 -147 25 -203 74c-55 50 -83 114 -83 193s24 143 72 193c48 51 108 76 181 75c19 0 36 -3 52 -8c-21 21 -39 38 -56 51l-131 -51l-36 84l71 28
c-28 15 -72 35 -133 60v36h278c9 -6 21 -15 35 -27zM304 141c60 0 102 53 102 113c0 61 -45 109 -102 109c-60 0 -104 -48 -104 -111c0 -61 45 -111 104 -111z" />
    <glyph glyph-name="yacute" unicode="&#xfd;" horiz-adv-x="624" 
d="M530 727l-127 -160h-173l75 160h225zM423 505h198l-322 -745h-197l111 258l-210 487h198l107 -267z" />
    <glyph glyph-name="thorn" unicode="&#xfe;" horiz-adv-x="646" 
d="M382 520c70 0 128 -25 174 -75c47 -49 70 -114 70 -193s-23 -143 -70 -193c-46 -49 -104 -74 -174 -74c-61 0 -111 19 -148 58v-283h-187v960h187v-258c37 39 87 58 148 58zM337 141c61 0 102 47 102 111c0 65 -41 112 -102 112c-57 0 -103 -48 -103 -112
c0 -63 46 -111 103 -111z" />
    <glyph glyph-name="Amacron" unicode="&#x100;" horiz-adv-x="752" 
d="M549 874v-140h-344v140h344zM482 670l270 -670h-207l-37 102h-264l-38 -102h-206l270 670h212zM303 263h147l-73 201z" />
    <glyph glyph-name="amacron" unicode="&#x101;" horiz-adv-x="565" 
d="M460 709v-140h-344v140h344zM289 520c151 0 240 -76 240 -209v-311h-181v35c-39 -33 -88 -50 -147 -50c-111 0 -184 66 -184 165c0 103 80 163 220 163h111v13c0 33 -23 56 -56 56c-37 0 -58 -17 -65 -52l-177 36c25 97 112 154 239 154zM268 119c44 0 80 29 80 74v16
h-75c-36 0 -60 -18 -60 -45c0 -28 23 -45 55 -45z" />
    <glyph glyph-name="Abreve" unicode="&#x102;" horiz-adv-x="752" 
d="M189 883h142c0 -24 18 -43 46 -43s47 19 47 43h141c0 -101 -76 -168 -188 -168s-188 67 -188 168zM482 670l270 -670h-207l-37 102h-264l-38 -102h-206l270 670h212zM303 263h147l-73 201z" />
    <glyph glyph-name="abreve" unicode="&#x103;" horiz-adv-x="565" 
d="M100 718h142c0 -24 18 -43 46 -43s47 19 47 43h141c0 -101 -76 -168 -188 -168s-188 67 -188 168zM289 520c151 0 240 -76 240 -209v-311h-181v35c-39 -33 -88 -50 -147 -50c-111 0 -184 66 -184 165c0 103 80 163 220 163h111v13c0 33 -23 56 -56 56
c-37 0 -58 -17 -65 -52l-177 36c25 97 112 154 239 154zM268 119c44 0 80 29 80 74v16h-75c-36 0 -60 -18 -60 -45c0 -28 23 -45 55 -45z" />
    <glyph glyph-name="Aogonek" unicode="&#x104;" horiz-adv-x="752" 
d="M775 -90l7 -103c-32 -15 -66 -23 -102 -23c-65 0 -111 37 -111 97c0 43 21 82 64 119h-88l-37 102h-264l-38 -102h-206l270 670h212l270 -670c-32 -33 -50 -54 -53 -63c-2 -4 -3 -8 -3 -13c0 -16 9 -24 28 -24c11 0 28 3 51 10zM303 263h147l-73 201z" />
    <glyph glyph-name="aogonek" unicode="&#x105;" horiz-adv-x="565" 
d="M553 -90l7 -103c-32 -15 -66 -23 -102 -23c-65 0 -111 37 -111 97c0 43 21 82 64 119h-63v35c-39 -33 -88 -50 -147 -50c-111 0 -184 66 -184 165c0 103 80 163 220 163h111v13c0 33 -23 56 -56 56c-37 0 -58 -17 -65 -52l-177 36c25 97 112 154 239 154
c151 0 240 -76 240 -209v-311h1c-32 -33 -50 -54 -53 -63c-2 -4 -3 -8 -3 -13c0 -16 9 -24 28 -24c11 0 28 3 51 10zM268 119c44 0 80 29 80 74v16h-75c-36 0 -60 -18 -60 -45c0 -28 23 -45 55 -45z" />
    <glyph glyph-name="Cacute" unicode="&#x106;" horiz-adv-x="765" 
d="M603 892l-127 -160h-173l75 160h225zM391 158c79 0 133 46 152 134l192 -44c-15 -81 -53 -146 -115 -193c-61 -47 -138 -70 -229 -70c-101 0 -187 34 -257 101c-69 68 -104 151 -104 249s35 181 104 248c70 68 156 102 257 102c85 0 160 -23 224 -70
c65 -47 105 -109 120 -186l-192 -46c-19 84 -73 129 -152 129c-47 0 -87 -17 -119 -51s-48 -76 -48 -126s16 -92 48 -126s72 -51 119 -51z" />
    <glyph glyph-name="cacute" unicode="&#x107;" horiz-adv-x="583" 
d="M513 727l-127 -160h-173l75 160h225zM392 223l171 -33c-11 -61 -41 -111 -90 -149c-49 -37 -106 -56 -173 -56c-78 0 -144 25 -199 75c-54 50 -81 114 -81 192c0 79 27 143 81 193c55 50 121 75 199 75c66 0 123 -19 172 -56s79 -85 90 -146l-172 -36
c-11 52 -45 80 -90 80c-59 0 -100 -47 -100 -110s41 -109 100 -109c48 0 79 27 92 80z" />
    <glyph glyph-name="Cdotaccent" unicode="&#x10a;" horiz-adv-x="765" 
d="M287 821c0 55 43 100 102 100s103 -45 103 -100c0 -59 -43 -100 -103 -100s-102 41 -102 100zM391 158c79 0 133 46 152 134l192 -44c-15 -81 -53 -146 -115 -193c-61 -47 -138 -70 -229 -70c-101 0 -187 34 -257 101c-69 68 -104 151 -104 249s35 181 104 248
c70 68 156 102 257 102c85 0 160 -23 224 -70c65 -47 105 -109 120 -186l-192 -46c-19 84 -73 129 -152 129c-47 0 -87 -17 -119 -51s-48 -76 -48 -126s16 -92 48 -126s72 -51 119 -51z" />
    <glyph glyph-name="cdotaccent" unicode="&#x10b;" horiz-adv-x="583" 
d="M197 656c0 55 43 100 102 100s103 -45 103 -100c0 -59 -43 -100 -103 -100s-102 41 -102 100zM392 223l171 -33c-11 -61 -41 -111 -90 -149c-49 -37 -106 -56 -173 -56c-78 0 -144 25 -199 75c-54 50 -81 114 -81 192c0 79 27 143 81 193c55 50 121 75 199 75
c66 0 123 -19 172 -56s79 -85 90 -146l-172 -36c-11 52 -45 80 -90 80c-59 0 -100 -47 -100 -110s41 -109 100 -109c48 0 79 27 92 80z" />
    <glyph glyph-name="Ccaron" unicode="&#x10c;" horiz-adv-x="765" 
d="M486 729h-191l-117 162h177l36 -50l35 50h178zM391 158c79 0 133 46 152 134l192 -44c-15 -81 -53 -146 -115 -193c-61 -47 -138 -70 -229 -70c-101 0 -187 34 -257 101c-69 68 -104 151 -104 249s35 181 104 248c70 68 156 102 257 102c85 0 160 -23 224 -70
c65 -47 105 -109 120 -186l-192 -46c-19 84 -73 129 -152 129c-47 0 -87 -17 -119 -51s-48 -76 -48 -126s16 -92 48 -126s72 -51 119 -51z" />
    <glyph glyph-name="ccaron" unicode="&#x10d;" horiz-adv-x="583" 
d="M396 564h-191l-117 162h177l36 -50l35 50h178zM392 223l171 -33c-11 -61 -41 -111 -90 -149c-49 -37 -106 -56 -173 -56c-78 0 -144 25 -199 75c-54 50 -81 114 -81 192c0 79 27 143 81 193c55 50 121 75 199 75c66 0 123 -19 172 -56s79 -85 90 -146l-172 -36
c-11 52 -45 80 -90 80c-59 0 -100 -47 -100 -110s41 -109 100 -109c48 0 79 27 92 80z" />
    <glyph glyph-name="Dcaron" unicode="&#x10e;" horiz-adv-x="725" 
d="M448 729h-191l-117 162h177l36 -50l35 50h178zM47 0v670h283c109 0 197 -31 264 -93c67 -61 101 -142 101 -242s-34 -181 -101 -243c-67 -61 -155 -92 -264 -92h-283zM239 508v-346h77c55 0 100 16 134 48s51 74 51 125s-17 93 -51 125s-79 48 -134 48h-77z" />
    <glyph glyph-name="dcaron" unicode="&#x10f;" horiz-adv-x="646" 
d="M412 462v308h187v-770h-187v43c-37 -39 -87 -58 -148 -58c-70 0 -128 25 -175 74c-46 50 -69 114 -69 193s23 144 69 193c47 50 105 75 175 75c61 0 111 -19 148 -58zM648 770h167l-41 -200h-126v200zM309 141c57 0 103 48 103 111c0 64 -46 112 -103 112
c-61 0 -102 -47 -102 -112c0 -64 41 -111 102 -111z" />
    <glyph glyph-name="Dcroat" unicode="&#x110;" horiz-adv-x="732" 
d="M63 417v253h283c110 0 198 -31 265 -93c67 -61 101 -142 101 -242s-34 -181 -101 -243c-67 -61 -155 -92 -265 -92h-283v252h-46v165h46zM256 252v-90h77c111 0 184 70 184 173s-73 173 -184 173h-77v-91h93v-165h-93z" />
    <glyph glyph-name="dslash" unicode="&#x111;" horiz-adv-x="661" 
d="M643 676v-133h-44v-543h-187v43c-37 -39 -87 -58 -148 -58c-70 0 -128 25 -175 74c-46 50 -69 114 -69 193s23 144 69 193c47 50 105 75 175 75c61 0 111 -19 148 -58v81h-121v133h121v94h187v-94h44zM309 141c57 0 103 48 103 111c0 64 -46 112 -103 112
c-61 0 -102 -47 -102 -112c0 -64 41 -111 102 -111z" />
    <glyph glyph-name="Emacron" unicode="&#x112;" horiz-adv-x="617" 
d="M488 874v-140h-344v140h344zM239 162h341v-162h-533v670h529v-162h-337v-99h310v-147h-310v-100z" />
    <glyph glyph-name="emacron" unicode="&#x113;" horiz-adv-x="578" 
d="M468 709v-140h-344v140h344zM558 242v-35h-355c12 -49 45 -78 92 -78c43 0 72 16 89 49l167 -33c-41 -105 -135 -160 -256 -160c-77 0 -143 25 -196 75s-79 114 -79 192c0 79 26 143 79 193s119 75 196 75s140 -25 189 -74s73 -117 74 -204zM295 374
c-43 0 -77 -24 -90 -64h172c-13 43 -40 64 -82 64z" />
    <glyph glyph-name="Edotaccent" unicode="&#x116;" horiz-adv-x="617" 
d="M213 821c0 55 43 100 102 100s103 -45 103 -100c0 -59 -43 -100 -103 -100s-102 41 -102 100zM239 162h341v-162h-533v670h529v-162h-337v-99h310v-147h-310v-100z" />
    <glyph glyph-name="edotaccent" unicode="&#x117;" horiz-adv-x="578" 
d="M193 656c0 55 43 100 102 100s103 -45 103 -100c0 -59 -43 -100 -103 -100s-102 41 -102 100zM558 242v-35h-355c12 -49 45 -78 92 -78c43 0 72 16 89 49l167 -33c-41 -105 -135 -160 -256 -160c-77 0 -143 25 -196 75s-79 114 -79 192c0 79 26 143 79 193s119 75 196 75
s140 -25 189 -74s73 -117 74 -204zM295 374c-43 0 -77 -24 -90 -64h172c-13 43 -40 64 -82 64z" />
    <glyph glyph-name="Eogonek" unicode="&#x118;" horiz-adv-x="617" 
d="M580 162v-162h-34c-32 -33 -50 -54 -53 -63c-2 -4 -3 -8 -3 -13c0 -16 9 -24 28 -24c11 0 28 3 51 10l7 -103c-32 -15 -66 -23 -102 -23c-65 0 -111 37 -111 97c0 43 21 82 64 119h-380v670h529v-162h-337v-99h310v-147h-310v-100h341z" />
    <glyph glyph-name="eogonek" unicode="&#x119;" horiz-adv-x="578" 
d="M558 239v-32h-355c12 -52 42 -78 91 -78c43 0 73 16 90 49l167 -33c-14 -28 -39 -60 -74 -95c-17 -17 -30 -31 -38 -40c-15 -17 -35 -51 -35 -79c0 -21 10 -31 31 -31c11 0 27 3 50 10l7 -99c-31 -19 -65 -28 -102 -28c-69 0 -116 37 -116 96c0 35 15 71 44 107l-23 -1
c-77 0 -143 25 -196 75s-79 114 -79 192c0 79 26 143 79 193s119 75 196 75s140 -25 189 -75c49 -49 74 -118 74 -206zM203 310h173c-10 43 -38 64 -84 64c-39 0 -76 -25 -89 -64z" />
    <glyph glyph-name="Ecaron" unicode="&#x11a;" horiz-adv-x="617" 
d="M411 729h-191l-117 162h177l36 -50l35 50h178zM239 162h341v-162h-533v670h529v-162h-337v-99h310v-147h-310v-100z" />
    <glyph glyph-name="ecaron" unicode="&#x11b;" horiz-adv-x="578" 
d="M391 564h-191l-117 162h177l36 -50l35 50h178zM558 242v-35h-355c12 -49 45 -78 92 -78c43 0 72 16 89 49l167 -33c-41 -105 -135 -160 -256 -160c-77 0 -143 25 -196 75s-79 114 -79 192c0 79 26 143 79 193s119 75 196 75s140 -25 189 -74s73 -117 74 -204zM295 374
c-43 0 -77 -24 -90 -64h172c-13 43 -40 64 -82 64z" />
    <glyph glyph-name="Gbreve" unicode="&#x11e;" horiz-adv-x="780" 
d="M208 883h142c0 -24 18 -43 46 -43s47 19 47 43h141c0 -101 -76 -168 -188 -168s-188 67 -188 168zM373 242v158h373c3 -36 4 -58 4 -66c0 -103 -33 -187 -100 -252c-66 -65 -151 -97 -255 -97c-103 0 -189 34 -260 101c-70 68 -105 151 -105 249s35 181 105 248
c71 68 157 102 259 102c79 0 149 -18 209 -53s101 -85 123 -148l-195 -49c-27 51 -72 77 -137 77c-49 0 -90 -17 -122 -51c-32 -33 -48 -75 -48 -126s16 -93 49 -127c33 -33 74 -50 124 -50c71 0 121 28 148 84h-172z" />
    <glyph glyph-name="gbreve" unicode="&#x11f;" horiz-adv-x="646" 
d="M136 718h142c0 -24 18 -43 46 -43s47 19 47 43h141c0 -101 -76 -168 -188 -168s-188 67 -188 168zM412 505h187v-514c0 -75 -30 -133 -89 -176s-131 -65 -218 -65c-122 0 -209 44 -260 133l158 72c36 -40 60 -51 100 -51c68 0 122 33 122 101v38
c-37 -39 -87 -58 -148 -58c-70 0 -128 25 -175 74c-46 50 -69 114 -69 193s23 144 69 193c47 50 105 75 175 75c61 0 111 -19 148 -58v43zM309 141c57 0 103 48 103 111c0 64 -46 112 -103 112c-61 0 -102 -47 -102 -112c0 -64 41 -111 102 -111z" />
    <glyph glyph-name="Gdotaccent" unicode="&#x120;" horiz-adv-x="780" 
d="M293 821c0 55 43 100 102 100s103 -45 103 -100c0 -59 -43 -100 -103 -100s-102 41 -102 100zM373 242v158h373c3 -36 4 -58 4 -66c0 -103 -33 -187 -100 -252c-66 -65 -151 -97 -255 -97c-103 0 -189 34 -260 101c-70 68 -105 151 -105 249s35 181 105 248
c71 68 157 102 259 102c79 0 149 -18 209 -53s101 -85 123 -148l-195 -49c-27 51 -72 77 -137 77c-49 0 -90 -17 -122 -51c-32 -33 -48 -75 -48 -126s16 -93 49 -127c33 -33 74 -50 124 -50c71 0 121 28 148 84h-172z" />
    <glyph glyph-name="gdotaccent" unicode="&#x121;" horiz-adv-x="646" 
d="M221 656c0 55 43 100 102 100s103 -45 103 -100c0 -59 -43 -100 -103 -100s-102 41 -102 100zM412 505h187v-514c0 -75 -30 -133 -89 -176s-131 -65 -218 -65c-122 0 -209 44 -260 133l158 72c36 -40 60 -51 100 -51c68 0 122 33 122 101v38c-37 -39 -87 -58 -148 -58
c-70 0 -128 25 -175 74c-46 50 -69 114 -69 193s23 144 69 193c47 50 105 75 175 75c61 0 111 -19 148 -58v43zM309 141c57 0 103 48 103 111c0 64 -46 112 -103 112c-61 0 -102 -47 -102 -112c0 -64 41 -111 102 -111z" />
    <glyph glyph-name="Gcommaaccent" unicode="&#x122;" horiz-adv-x="780" 
d="M373 242v158h373c3 -36 4 -58 4 -66c0 -103 -33 -187 -100 -252c-66 -65 -151 -97 -255 -97c-103 0 -189 34 -260 101c-70 68 -105 151 -105 249s35 181 105 248c71 68 157 102 259 102c79 0 149 -18 209 -53s101 -85 123 -148l-195 -49c-27 51 -72 77 -137 77
c-49 0 -90 -17 -122 -51c-32 -33 -48 -75 -48 -126s16 -93 49 -127c33 -33 74 -50 124 -50c71 0 121 28 148 84h-172zM251 -208l49 163h182l-101 -163h-130z" />
    <glyph glyph-name="gcommaaccent" unicode="&#x123;" horiz-adv-x="634" 
d="M463 727l-49 -163h-181l101 163h129zM412 505h187v-514c0 -75 -30 -133 -89 -176s-131 -65 -218 -65c-122 0 -209 44 -260 133l158 72c36 -40 60 -51 100 -51c68 0 122 33 122 101v38c-37 -39 -87 -58 -148 -58c-70 0 -128 25 -175 74c-46 50 -69 114 -69 193
s23 144 69 193c47 50 105 75 175 75c61 0 111 -19 148 -58v43zM309 141c57 0 103 48 103 111c0 64 -46 112 -103 112c-61 0 -102 -47 -102 -112c0 -64 41 -111 102 -111z" />
    <glyph glyph-name="Hbar" unicode="&#x126;" horiz-adv-x="757" 
d="M739 575v-142h-48v-433h-192v206h-242v-206h-193v433h-47v142h47v95h193v-95h242v95h192v-95h48zM499 358v75h-242v-75h242z" />
    <glyph glyph-name="hbar" unicode="&#x127;" horiz-adv-x="637" 
d="M403 520c57 0 102 -19 137 -56s52 -88 52 -151v-313h-187v273c0 48 -29 80 -72 80c-51 0 -82 -39 -82 -108v-245h-188v549h-46v123h46v98h188v-98h117v-123h-117v-95c41 44 91 66 152 66z" />
    <glyph glyph-name="Imacron" unicode="&#x12a;" horiz-adv-x="459" 
d="M402 874v-140h-344v140h344zM439 505h-113v-340h113v-165h-419v165h113v340h-113v165h419v-165z" />
    <glyph glyph-name="imacron" unicode="&#x12b;" horiz-adv-x="298" 
d="M321 709v-140h-344v140h344zM243 505v-505h-188v505h188z" />
    <glyph glyph-name="Iogonek" unicode="&#x12e;" horiz-adv-x="459" 
d="M439 505h-113v-340h113v-165h-113c-32 -33 -50 -54 -53 -63c-2 -4 -3 -8 -3 -13c0 -16 9 -24 28 -24c11 0 28 3 51 10l7 -103c-32 -15 -66 -23 -102 -23c-65 0 -111 37 -111 97c0 43 21 82 64 119h-187v165h113v340h-113v165h419v-165z" />
    <glyph glyph-name="iogonek" unicode="&#x12f;" horiz-adv-x="298" 
d="M46 656c0 55 43 100 102 100s103 -45 103 -100c0 -59 -43 -100 -103 -100s-102 41 -102 100zM266 -90l7 -103c-32 -15 -66 -23 -102 -23c-65 0 -111 37 -111 97c0 43 21 82 64 119h-69v505h188v-505c-2 -3 -5 -6 -10 -10c-27 -29 -42 -48 -45 -57c-1 -3 -1 -6 -1 -9
c0 -16 9 -24 28 -24c11 0 28 3 51 10z" />
    <glyph glyph-name="Idot" unicode="&#x130;" horiz-adv-x="459" 
d="M127 821c0 55 43 100 102 100s103 -45 103 -100c0 -59 -43 -100 -103 -100s-102 41 -102 100zM439 505h-113v-340h113v-165h-419v165h113v340h-113v165h419v-165z" />
    <glyph glyph-name="IJ" unicode="&#x132;" horiz-adv-x="1079" 
d="M20 670h419v-165h-113v-340h113v-165h-419v165h113v340h-113v165zM629 670h402v-425c0 -77 -26 -140 -78 -188c-51 -48 -119 -72 -203 -72c-156 0 -258 89 -278 232l190 37c7 -65 37 -98 88 -98c52 0 88 36 88 89v260h-209v165z" />
    <glyph glyph-name="ij" unicode="&#x133;" horiz-adv-x="608" 
d="M254 653c0 -59 -44 -102 -105 -102s-105 43 -105 102c0 56 45 102 105 102s105 -47 105 -102zM564 653c0 -59 -44 -102 -105 -102s-105 43 -105 102c0 56 45 102 105 102s105 -47 105 -102zM243 505v-505h-187v505h187zM270 -226l26 135c17 -3 28 -5 34 -5
c21 0 36 16 36 40v561h188v-578c0 -105 -70 -177 -174 -177c-37 0 -74 8 -110 24z" />
    <glyph glyph-name="Kcommaaccent" unicode="&#x136;" horiz-adv-x="718" 
d="M463 382l262 -382h-232l-155 231l-99 -119v-112h-192v670h192v-289l244 289h218zM226 -208l49 163h182l-101 -163h-130z" />
    <glyph glyph-name="kcommaaccent" unicode="&#x137;" horiz-adv-x="626" 
d="M428 298l205 -298h-229l-103 149l-67 -79v-70h-187v770h187v-438l151 173h220zM184 -208l49 163h182l-101 -163h-130z" />
    <glyph glyph-name="Lacute" unicode="&#x139;" horiz-adv-x="581" 
d="M360 892l-127 -160h-173l75 160h225zM239 165h316v-165h-508v670h192v-505z" />
    <glyph glyph-name="lacute" unicode="&#x13a;" horiz-adv-x="348" 
d="M353 992l-127 -160h-173l75 160h225zM42 770h187v-586c0 -23 16 -38 40 -38c13 0 30 4 53 12l28 -137l-34 -18c-15 -7 -53 -18 -93 -18c-109 0 -181 73 -181 184v601z" />
    <glyph glyph-name="Lcommaaccent" unicode="&#x13b;" horiz-adv-x="581" 
d="M239 165h316v-165h-508v670h192v-505zM165 -208l49 163h182l-101 -163h-130z" />
    <glyph glyph-name="lcommaaccent" unicode="&#x13c;" horiz-adv-x="348" 
d="M42 770h187v-586c0 -23 16 -38 40 -38c13 0 30 4 53 12l28 -137l-34 -18c-15 -7 -53 -18 -93 -18c-109 0 -181 73 -181 184v601zM186 -208h-130l49 163h182z" />
    <glyph glyph-name="Lcaron" unicode="&#x13d;" horiz-adv-x="581" 
d="M239 165h316v-165h-508v670h192v-505zM485 670l-41 -200h-127v200h168z" />
    <glyph glyph-name="lcaron" unicode="&#x13e;" horiz-adv-x="348" 
d="M42 770h187v-586c0 -23 16 -38 40 -38c13 0 30 4 53 12l28 -137l-34 -18c-15 -7 -53 -18 -93 -18c-109 0 -181 73 -181 184v601zM442 770l-41 -200h-127v200h168z" />
    <glyph glyph-name="Ldot" unicode="&#x13f;" horiz-adv-x="598" 
d="M239 165h316v-165h-508v670h192v-505zM421 267c-59 0 -101 41 -101 100c0 55 44 99 101 99c59 0 103 -44 103 -99c0 -59 -43 -100 -103 -100z" />
    <glyph glyph-name="ldot" unicode="&#x140;" horiz-adv-x="472" 
d="M45 770h188v-586c4 -34 24 -51 93 -26l27 -137c-43 -24 -85 -36 -127 -36c-109 0 -181 73 -181 184v601zM471 367c0 -59 -43 -100 -103 -100s-102 41 -102 100c0 55 43 99 102 99s103 -44 103 -99z" />
    <glyph glyph-name="Lslash" unicode="&#x141;" horiz-adv-x="608" 
d="M259 165h316v-165h-508v221l-50 -22v161l50 22v288h192v-202l94 42v-161l-94 -42v-142z" />
    <glyph glyph-name="lslash" unicode="&#x142;" horiz-adv-x="370" 
d="M344 158l27 -137c-43 -24 -85 -36 -127 -36c-109 0 -181 73 -181 184v61l-46 -24v174l46 24v366h188v-269l56 29v-174l-56 -29v-143c4 -34 24 -51 93 -26z" />
    <glyph glyph-name="Nacute" unicode="&#x143;" horiz-adv-x="752" 
d="M591 892l-127 -160h-173l75 160h225zM513 670h193v-670h-159l-308 345v-345h-192v670h158l308 -357v357z" />
    <glyph glyph-name="nacute" unicode="&#x144;" horiz-adv-x="620" 
d="M524 727l-127 -160h-173l75 160h225zM386 520c115 0 190 -80 190 -207v-313h-188v273c0 48 -28 80 -71 80c-51 0 -83 -39 -83 -108v-245h-187v505h187v-51c41 44 91 66 152 66z" />
    <glyph glyph-name="Ncommaaccent" unicode="&#x145;" horiz-adv-x="752" 
d="M513 670h193v-670h-159l-308 345v-345h-192v670h158l308 -357v357zM254 -208l49 163h182l-101 -163h-130z" />
    <glyph glyph-name="ncommaaccent" unicode="&#x146;" horiz-adv-x="620" 
d="M386 520c115 0 190 -80 190 -207v-313h-188v273c0 48 -28 80 -71 80c-51 0 -83 -39 -83 -108v-245h-187v505h187v-51c41 44 91 66 152 66zM170 -208l49 163h182l-101 -163h-130z" />
    <glyph glyph-name="Ncaron" unicode="&#x147;" horiz-adv-x="752" 
d="M473 729h-191l-117 162h177l36 -50l35 50h178zM513 670h193v-670h-159l-308 345v-345h-192v670h158l308 -357v357z" />
    <glyph glyph-name="ncaron" unicode="&#x148;" horiz-adv-x="620" 
d="M407 564h-191l-117 162h177l36 -50l35 50h178zM386 520c115 0 190 -80 190 -207v-313h-188v273c0 48 -28 80 -71 80c-51 0 -83 -39 -83 -108v-245h-187v505h187v-51c41 44 91 66 152 66z" />
    <glyph glyph-name="Eng" unicode="&#x14a;" horiz-adv-x="732" 
d="M513 670h193v-762c0 -97 -69 -158 -174 -158c-39 0 -83 7 -131 21l21 145c30 -6 50 -9 60 -9c24 0 36 11 36 34v91l-279 313v-345h-192v670h158l308 -357v357z" />
    <glyph glyph-name="eng" unicode="&#x14b;" horiz-adv-x="620" 
d="M386 520c115 0 190 -80 190 -207v-405c0 -97 -69 -158 -174 -158c-42 0 -86 7 -131 22l21 138c30 -6 50 -9 60 -9c24 0 36 11 36 34v338c0 48 -28 80 -71 80c-51 0 -83 -39 -83 -108v-245h-187v505h187v-51c41 44 91 66 152 66z" />
    <glyph glyph-name="Omacron" unicode="&#x14c;" horiz-adv-x="782" 
d="M563 874v-140h-344v140h344zM134 583c70 68 156 102 257 102s187 -34 256 -102c70 -67 105 -150 105 -248s-35 -181 -105 -249c-69 -67 -155 -101 -256 -101s-187 34 -257 101c-69 68 -104 151 -104 249s35 181 104 248zM558 335c0 50 -16 92 -48 126
c-31 34 -71 51 -119 51s-88 -17 -120 -51c-31 -34 -47 -76 -47 -126c0 -51 16 -93 47 -127c32 -33 72 -50 120 -50s88 17 119 50c32 34 48 76 48 127z" />
    <glyph glyph-name="omacron" unicode="&#x14d;" horiz-adv-x="606" 
d="M475 709v-140h-344v140h344zM102 444c55 50 122 75 201 75s145 -25 200 -75s83 -114 83 -192s-28 -142 -83 -192c-55 -49 -121 -74 -200 -74s-146 25 -201 74c-55 50 -82 114 -82 192s27 142 82 192zM230 173c41 -43 105 -43 145 0c21 21 31 48 31 79s-10 58 -30 79
c-40 43 -106 43 -146 0c-20 -21 -30 -48 -30 -79s10 -58 30 -79z" />
    <glyph glyph-name="Ohungarumlaut" unicode="&#x150;" horiz-adv-x="782" 
d="M480 892l-125 -160h-154l82 160h197zM571 732h-155l82 160h204zM134 583c70 68 156 102 257 102s187 -34 256 -102c70 -67 105 -150 105 -248s-35 -181 -105 -249c-69 -67 -155 -101 -256 -101s-187 34 -257 101c-69 68 -104 151 -104 249s35 181 104 248zM558 335
c0 50 -16 92 -48 126c-31 34 -71 51 -119 51s-88 -17 -120 -51c-31 -34 -47 -76 -47 -126c0 -51 16 -93 47 -127c32 -33 72 -50 120 -50s88 17 119 50c32 34 48 76 48 127z" />
    <glyph glyph-name="ohungarumlaut" unicode="&#x151;" horiz-adv-x="606" 
d="M392 727l-125 -160h-154l82 160h197zM483 567h-155l82 160h204zM102 444c55 50 122 75 201 75s145 -25 200 -75s83 -114 83 -192s-28 -142 -83 -192c-55 -49 -121 -74 -200 -74s-146 25 -201 74c-55 50 -82 114 -82 192s27 142 82 192zM230 173c41 -43 105 -43 145 0
c21 21 31 48 31 79s-10 58 -30 79c-40 43 -106 43 -146 0c-20 -21 -30 -48 -30 -79s10 -58 30 -79z" />
    <glyph glyph-name="Racute" unicode="&#x154;" horiz-adv-x="683" 
d="M540 892l-127 -160h-173l75 160h225zM484 227l196 -227h-231l-184 214h-26v-214h-192v670h357c72 0 130 -21 174 -62c45 -41 67 -96 67 -163c0 -107 -61 -187 -161 -218zM239 511v-145h129c53 0 88 30 88 74c0 43 -35 71 -88 71h-129z" />
    <glyph glyph-name="racute" unicode="&#x155;" horiz-adv-x="444" 
d="M452 727l-127 -160h-173l75 160h225zM47 505h187v-100c37 71 93 106 168 106c15 0 27 -1 36 -3l-7 -193h-30c-108 0 -167 -46 -167 -162v-153h-187v505z" />
    <glyph glyph-name="Rcommaaccent" unicode="&#x156;" horiz-adv-x="683" 
d="M484 227l196 -227h-231l-184 214h-26v-214h-192v670h357c72 0 130 -21 174 -62c45 -41 67 -96 67 -163c0 -107 -61 -187 -161 -218zM239 511v-145h129c53 0 88 30 88 74c0 43 -35 71 -88 71h-129zM206 -208l49 163h182l-101 -163h-130z" />
    <glyph glyph-name="rcommaaccent" unicode="&#x157;" horiz-adv-x="444" 
d="M402 511c15 0 27 -1 36 -3l-7 -193h-30c-108 0 -167 -46 -167 -162v-153h-187v505h187v-100c37 71 93 106 168 106zM3 -208l49 163h182l-101 -163h-130z" />
    <glyph glyph-name="Rcaron" unicode="&#x158;" horiz-adv-x="683" 
d="M422 729h-191l-117 162h177l36 -50l35 50h178zM484 227l196 -227h-231l-184 214h-26v-214h-192v670h357c72 0 130 -21 174 -62c45 -41 67 -96 67 -163c0 -107 -61 -187 -161 -218zM239 511v-145h129c53 0 88 30 88 74c0 43 -35 71 -88 71h-129z" />
    <glyph glyph-name="rcaron" unicode="&#x159;" horiz-adv-x="444" 
d="M335 564h-191l-117 162h177l36 -50l35 50h178zM47 505h187v-100c37 71 93 106 168 106c15 0 27 -1 36 -3l-7 -193h-30c-108 0 -167 -46 -167 -162v-153h-187v505z" />
    <glyph glyph-name="Sacute" unicode="&#x15a;" horiz-adv-x="651" 
d="M542 892l-127 -160h-173l75 160h225zM326 685c159 0 265 -71 289 -195l-188 -38c-12 59 -56 84 -101 84c-43 0 -71 -21 -71 -54c0 -23 13 -37 39 -43l136 -32c127 -32 191 -98 191 -199c0 -50 -15 -92 -44 -127c-57 -69 -142 -96 -241 -96c-83 0 -152 19 -208 56
s-89 88 -98 151l196 37c15 -59 53 -89 114 -89c47 0 79 19 79 54c0 23 -15 38 -46 45l-139 33c-123 29 -184 93 -184 194c0 69 26 122 77 161s118 58 199 58z" />
    <glyph glyph-name="sacute" unicode="&#x15b;" horiz-adv-x="526" 
d="M487 727l-127 -160h-173l75 160h225zM19 131l179 35c9 -33 34 -49 75 -49c33 0 53 13 53 30c0 15 -15 25 -46 30l-101 17c-100 18 -150 68 -150 150c0 54 21 97 64 128c43 32 97 48 162 48c132 0 217 -52 241 -141l-168 -33c-4 25 -32 50 -72 50c-31 0 -47 -10 -47 -30
c0 -13 11 -22 33 -27l115 -23c100 -19 149 -76 149 -160c0 -54 -22 -96 -67 -126c-44 -30 -101 -45 -170 -45c-133 0 -229 49 -250 146z" />
    <glyph glyph-name="Scedilla" unicode="&#x15e;" horiz-adv-x="651" 
d="M621 208c0 -63 -21 -113 -64 -150c-42 -37 -95 -60 -160 -69l-40 -149h-193l97 151c-127 20 -215 94 -231 201l196 37c15 -59 53 -89 114 -89c47 0 79 19 79 54c0 23 -15 38 -46 45l-139 33c-123 29 -184 93 -184 194c0 69 26 122 77 161s118 58 199 58
c159 0 265 -71 289 -195l-188 -38c-12 59 -56 84 -101 84c-43 0 -71 -21 -71 -54c0 -23 13 -37 39 -43l136 -32c127 -32 191 -98 191 -199z" />
    <glyph glyph-name="scedilla" unicode="&#x15f;" horiz-adv-x="526" 
d="M506 156c0 -88 -65 -146 -166 -165l-41 -151h-193l96 150c-105 15 -166 62 -183 141l179 35c9 -33 34 -49 75 -49c33 0 53 13 53 30c0 15 -15 25 -46 30l-101 17c-100 18 -150 68 -150 150c0 54 21 97 64 128c43 32 97 48 162 48c132 0 217 -52 241 -141l-168 -33
c-4 25 -32 50 -72 50c-31 0 -47 -10 -47 -30c0 -13 11 -22 33 -27l115 -23c100 -19 149 -76 149 -160z" />
    <glyph glyph-name="Scaron" unicode="&#x160;" horiz-adv-x="651" 
d="M425 729h-191l-117 162h177l36 -50l35 50h178zM294 439l136 -32c127 -32 191 -98 191 -199c0 -50 -15 -92 -44 -127c-57 -69 -142 -96 -241 -96c-83 0 -152 19 -208 56s-89 88 -98 151l196 37c15 -59 53 -89 114 -89c47 0 79 19 79 54c0 23 -15 38 -46 45l-139 33
c-123 29 -184 93 -184 194c0 69 26 122 77 161s118 58 199 58c159 0 265 -71 289 -195l-188 -38c-12 59 -56 84 -101 84c-43 0 -71 -21 -71 -54c0 -23 13 -37 39 -43z" />
    <glyph glyph-name="scaron" unicode="&#x161;" horiz-adv-x="526" 
d="M370 564h-191l-117 162h177l36 -50l35 50h178zM242 339l115 -23c100 -19 149 -76 149 -160c0 -54 -22 -96 -67 -126c-44 -30 -101 -45 -170 -45c-133 0 -229 49 -250 146l179 35c9 -33 34 -49 75 -49c33 0 53 13 53 30c0 15 -15 25 -46 30l-101 17
c-100 18 -150 68 -150 150c0 54 21 97 64 128c43 32 97 48 162 48c132 0 217 -52 241 -141l-168 -33c-4 25 -32 50 -72 50c-31 0 -47 -10 -47 -30c0 -13 11 -22 33 -27z" />
    <glyph glyph-name="tcedilla" unicode="&#x163;" horiz-adv-x="431" 
d="M391 163l37 -141c-31 -17 -65 -29 -102 -34l-39 -147h-193l102 158c-77 27 -116 90 -116 188v172h-77v146h77v165h187v-165h134v-146h-134v-151c0 -41 20 -61 60 -61c23 0 44 5 64 16z" />
    <glyph glyph-name="Tcaron" unicode="&#x164;" horiz-adv-x="653" 
d="M422 729h-191l-117 162h177l36 -50l35 50h178zM633 670v-165h-210v-505h-193v505h-210v165h613z" />
    <glyph glyph-name="tcaron" unicode="&#x165;" horiz-adv-x="431" 
d="M304 752h168l-41 -200h-127v200zM327 147c23 0 44 5 64 16l37 -141c-46 -25 -94 -37 -144 -37c-131 0 -204 74 -204 202v172h-77v146h77v165h187v-165h134v-146h-134v-151c0 -41 20 -61 60 -61z" />
    <glyph glyph-name="Tbar" unicode="&#x166;" horiz-adv-x="653" 
d="M633 505h-210v-115h106v-148h-106v-242h-193v242h-105v148h105v115h-210v165h613v-165z" />
    <glyph glyph-name="tbar" unicode="&#x167;" horiz-adv-x="431" 
d="M399 171l22 -151c-47 -23 -93 -35 -140 -35c-131 0 -204 74 -204 202v34h-49v119h49v39h-73v126h73v165h188v-165h133v-126h-133v-39h83v-119h-83v-13c0 -41 20 -61 60 -61c21 0 46 8 74 24z" />
    <glyph glyph-name="Umacron" unicode="&#x16a;" horiz-adv-x="715" 
d="M529 874v-140h-344v140h344zM474 670h193v-367c0 -97 -28 -174 -84 -232c-55 -57 -129 -86 -221 -86c-95 0 -171 29 -228 86s-86 135 -86 232v367h193v-367c0 -91 48 -144 121 -144c68 0 112 55 112 144v367z" />
    <glyph glyph-name="umacron" unicode="&#x16b;" horiz-adv-x="620" 
d="M482 709v-140h-344v140h344zM386 505h187v-505h-187v51c-41 -44 -91 -66 -152 -66c-115 0 -190 80 -190 207v313h188v-273c0 -48 28 -80 71 -80c51 0 83 39 83 108v245z" />
    <glyph glyph-name="Uring" unicode="&#x16e;" horiz-adv-x="715" 
d="M452 745c-26 -25 -58 -37 -95 -37s-69 12 -95 37s-39 56 -39 92s13 66 39 91s58 38 95 38s69 -13 95 -38s39 -55 39 -91s-13 -67 -39 -92zM386 864c-35 39 -97 -21 -58 -55c16 -15 42 -15 58 0c16 16 16 40 0 55zM474 670h193v-367c0 -97 -28 -174 -84 -232
c-55 -57 -129 -86 -221 -86c-95 0 -171 29 -228 86s-86 135 -86 232v367h193v-367c0 -91 48 -144 121 -144c68 0 112 55 112 144v367z" />
    <glyph glyph-name="uring" unicode="&#x16f;" horiz-adv-x="620" 
d="M405 580c-26 -25 -58 -37 -95 -37s-69 12 -95 37s-39 56 -39 92s13 66 39 91s58 38 95 38s69 -13 95 -38s39 -55 39 -91s-13 -67 -39 -92zM339 699c-35 39 -97 -21 -58 -55c16 -15 42 -15 58 0c16 16 16 40 0 55zM386 505h187v-505h-187v51c-41 -44 -91 -66 -152 -66
c-115 0 -190 80 -190 207v313h188v-273c0 -48 28 -80 71 -80c51 0 83 39 83 108v245z" />
    <glyph glyph-name="Uhungarumlaut" unicode="&#x170;" horiz-adv-x="715" 
d="M446 892l-125 -160h-154l82 160h197zM537 732h-155l82 160h204zM474 303v367h193v-367c0 -97 -28 -174 -84 -232c-55 -57 -129 -86 -221 -86c-95 0 -171 29 -228 86s-86 135 -86 232v367h193v-367c0 -91 48 -144 121 -144c68 0 112 55 112 144z" />
    <glyph glyph-name="uhungarumlaut" unicode="&#x171;" horiz-adv-x="620" 
d="M399 727l-125 -160h-154l82 160h197zM490 567h-155l82 160h204zM386 260v245h187v-505h-187v51c-41 -44 -91 -66 -152 -66c-115 0 -190 80 -190 207v313h188v-273c0 -48 28 -80 71 -80c51 0 83 39 83 108z" />
    <glyph glyph-name="Uogonek" unicode="&#x172;" horiz-adv-x="715" 
d="M566 54l-40 -38c-17 -19 -37 -52 -37 -83c0 -21 10 -31 30 -31c10 0 28 4 54 13l26 -105c-47 -22 -91 -33 -131 -33c-68 0 -117 42 -117 102c0 36 16 72 47 108c-16 -1 -28 -2 -36 -2c-95 0 -171 28 -228 84s-86 131 -86 225v376h193v-376c0 -84 48 -135 121 -135
c68 0 112 51 112 135v376h193v-376c0 -102 -34 -182 -101 -240z" />
    <glyph glyph-name="uogonek" unicode="&#x173;" horiz-adv-x="620" 
d="M597 -90l7 -103c-32 -15 -66 -23 -102 -23c-65 0 -111 37 -111 97c0 43 21 82 64 119h-69v51c-41 -44 -91 -66 -152 -66c-115 0 -190 80 -190 207v313h188v-273c0 -48 28 -80 71 -80c51 0 83 39 83 108v245h187v-505h1c-32 -33 -50 -54 -53 -63c-2 -4 -3 -8 -3 -13
c0 -16 9 -24 28 -24c11 0 28 3 51 10z" />
    <glyph glyph-name="Wcircumflex" unicode="&#x174;" horiz-adv-x="985" 
d="M493 779l-36 -50h-177l117 162h191l118 -162h-178zM784 670h197l-187 -670h-207l-95 376l-95 -376h-207l-187 670h197l105 -382l96 382h182l96 -382z" />
    <glyph glyph-name="wcircumflex" unicode="&#x175;" horiz-adv-x="803" 
d="M402 614l-36 -50h-177l117 162h191l118 -162h-178zM616 505h184l-158 -505h-159l-81 249l-82 -249h-159l-158 505h184l67 -232l86 232h123l86 -232z" />
    <glyph glyph-name="Ycircumflex" unicode="&#x176;" horiz-adv-x="721" 
d="M361 779l-36 -50h-177l117 162h191l118 -162h-178zM505 670h213l-262 -465v-205h-200v205l-253 465h211l146 -272z" />
    <glyph glyph-name="ycircumflex" unicode="&#x177;" horiz-adv-x="624" 
d="M318 614l-36 -50h-177l117 162h191l118 -162h-178zM423 505h198l-322 -745h-197l111 258l-210 487h198l107 -267z" />
    <glyph glyph-name="Zacute" unicode="&#x179;" horiz-adv-x="644" 
d="M537 892l-127 -160h-173l75 160h225zM312 162h300v-162h-576v124l318 384h-310v162h557v-149z" />
    <glyph glyph-name="zacute" unicode="&#x17a;" horiz-adv-x="553" 
d="M491 727l-127 -160h-173l75 160h225zM281 146h239v-146h-487v120l233 239h-227v146h474v-123z" />
    <glyph glyph-name="Zdotaccent" unicode="&#x17b;" horiz-adv-x="644" 
d="M221 821c0 55 43 100 102 100s103 -45 103 -100c0 -59 -43 -100 -103 -100s-102 41 -102 100zM312 162h300v-162h-576v124l318 384h-310v162h557v-149z" />
    <glyph glyph-name="zdotaccent" unicode="&#x17c;" horiz-adv-x="553" 
d="M175 656c0 55 43 100 102 100s103 -45 103 -100c0 -59 -43 -100 -103 -100s-102 41 -102 100zM281 146h239v-146h-487v120l233 239h-227v146h474v-123z" />
    <glyph glyph-name="Zcaron" unicode="&#x17d;" horiz-adv-x="644" 
d="M419 729h-191l-117 162h177l36 -50l35 50h178zM312 162h300v-162h-576v124l318 384h-310v162h557v-149z" />
    <glyph glyph-name="zcaron" unicode="&#x17e;" horiz-adv-x="553" 
d="M374 564h-191l-117 162h177l36 -50l35 50h178zM281 146h239v-146h-487v120l233 239h-227v146h474v-123z" />
    <glyph glyph-name="AEacute" unicode="&#x1fc;" horiz-adv-x="1051" 
d="M876 892l-127 -160h-173l75 160h225zM677 162h341v-162h-534v95h-206l-52 -95h-226l409 670h605v-162h-337v-99h309v-147h-309v-100zM366 255h118v214z" />
    <glyph glyph-name="aeacute" unicode="&#x1fd;" horiz-adv-x="890" 
d="M656 727l-127 -160h-173l75 160h225zM870 239v-36h-354c13 -49 44 -74 93 -74c41 0 69 17 85 50l162 -34c-13 -47 -43 -86 -89 -116c-45 -29 -98 -44 -159 -44c-69 0 -129 20 -179 61c-50 -41 -116 -61 -197 -61c-137 0 -215 61 -215 162c0 99 76 153 216 153h115v26
c0 33 -25 57 -60 57c-36 0 -57 -18 -63 -53l-173 36c9 45 33 82 74 111s96 43 163 43s121 -15 162 -45c47 30 99 45 156 45c77 0 140 -25 189 -75c49 -49 74 -118 74 -206zM515 300h174c-11 50 -38 75 -83 75c-49 0 -79 -25 -91 -75zM347 183v18h-79c-41 0 -62 -14 -62 -42
c0 -27 23 -44 58 -44c44 0 83 28 83 68z" />
    <glyph glyph-name="Scommaaccent" unicode="&#x218;" horiz-adv-x="651" 
d="M326 685c159 0 265 -71 289 -195l-188 -38c-12 59 -56 84 -101 84c-43 0 -71 -21 -71 -54c0 -23 13 -37 39 -43l136 -32c127 -32 191 -98 191 -199c0 -50 -15 -92 -44 -127c-57 -69 -142 -96 -241 -96c-83 0 -152 19 -208 56s-89 88 -98 151l196 37
c15 -59 53 -89 114 -89c47 0 79 19 79 54c0 23 -15 38 -46 45l-139 33c-123 29 -184 93 -184 194c0 69 26 122 77 161s118 58 199 58zM323 -208h-130l49 163h182z" />
    <glyph glyph-name="scommaaccent" unicode="&#x219;" horiz-adv-x="526" 
d="M19 131l179 35c9 -33 34 -49 75 -49c33 0 53 13 53 30c0 15 -15 25 -46 30l-101 17c-100 18 -150 68 -150 150c0 54 21 97 64 128c43 32 97 48 162 48c132 0 217 -52 241 -141l-168 -33c-4 25 -32 50 -72 50c-31 0 -47 -10 -47 -30c0 -13 11 -22 33 -27l115 -23
c100 -19 149 -76 149 -160c0 -54 -22 -96 -67 -126c-44 -30 -101 -45 -170 -45c-133 0 -229 49 -250 146zM265 -208h-130l49 163h182z" />
    <glyph glyph-name="uni021A" unicode="&#x21a;" horiz-adv-x="653" 
d="M633 670v-165h-210v-505h-193v505h-210v165h613zM190 -208l49 163h182l-101 -163h-130z" />
    <glyph glyph-name="uni021B" unicode="&#x21b;" horiz-adv-x="431" 
d="M284 -15c-131 0 -204 74 -204 202v172h-77v146h77v165h187v-165h134v-146h-134v-151c0 -41 20 -61 60 -61c23 0 44 5 64 16l37 -141c-46 -25 -94 -37 -144 -37zM123 -207l49 163h182l-101 -163h-130z" />
    <glyph glyph-name="uni0326" unicode="&#x326;" horiz-adv-x="0" 
d="M300 -208h-130l49 163h182z" />
    <glyph glyph-name="Wgrave" unicode="&#x1e80;" horiz-adv-x="985" 
d="M584 732h-173l-127 160h225zM784 670h197l-187 -670h-207l-95 376l-95 -376h-207l-187 670h197l105 -382l96 382h182l96 -382z" />
    <glyph glyph-name="wgrave" unicode="&#x1e81;" horiz-adv-x="803" 
d="M494 567h-173l-127 160h225zM616 505h184l-158 -505h-159l-81 249l-82 -249h-159l-158 505h184l67 -232l86 232h123l86 -232z" />
    <glyph glyph-name="Wacute" unicode="&#x1e82;" horiz-adv-x="985" 
d="M705 892l-127 -160h-173l75 160h225zM784 670h197l-187 -670h-207l-95 376l-95 -376h-207l-187 670h197l105 -382l96 382h182l96 -382z" />
    <glyph glyph-name="wacute" unicode="&#x1e83;" horiz-adv-x="803" 
d="M615 727l-127 -160h-173l75 160h225zM616 505h184l-158 -505h-159l-81 249l-82 -249h-159l-158 505h184l67 -232l86 232h123l86 -232z" />
    <glyph glyph-name="Wdieresis" unicode="&#x1e84;" horiz-adv-x="985" 
d="M373 714c-57 0 -99 41 -99 98c0 52 42 96 99 96s100 -44 100 -96c0 -57 -41 -98 -100 -98zM611 714c-57 0 -99 41 -99 98c0 52 42 96 99 96s100 -44 100 -96c0 -57 -41 -98 -100 -98zM784 670h197l-187 -670h-207l-95 376l-95 -376h-207l-187 670h197l105 -382l96 382
h182l96 -382z" />
    <glyph glyph-name="wdieresis" unicode="&#x1e85;" horiz-adv-x="803" 
d="M283 549c-57 0 -99 41 -99 98c0 52 42 96 99 96s100 -44 100 -96c0 -57 -41 -98 -100 -98zM521 549c-57 0 -99 41 -99 98c0 52 42 96 99 96s100 -44 100 -96c0 -57 -41 -98 -100 -98zM616 505h184l-158 -505h-159l-81 249l-82 -249h-159l-158 505h184l67 -232l86 232h123
l86 -232z" />
    <glyph glyph-name="Ygrave" unicode="&#x1ef2;" horiz-adv-x="721" 
d="M452 732h-173l-127 160h225zM505 670h213l-262 -465v-205h-200v205l-253 465h211l146 -272z" />
    <glyph glyph-name="ygrave" unicode="&#x1ef3;" horiz-adv-x="624" 
d="M409 567h-173l-127 160h225zM423 505h198l-322 -745h-197l111 258l-210 487h198l107 -267z" />
    <glyph glyph-name="uni2116" unicode="&#x2116;" horiz-adv-x="1196" 
d="M959 324c-52 0 -97 17 -134 50s-55 76 -55 128s18 95 55 128s82 50 134 50c53 0 98 -17 135 -50s56 -76 56 -128s-19 -95 -56 -128s-82 -50 -135 -50zM513 313v357h193v-670h-159l-308 345v-345h-192v670h158zM1001 545c-23 24 -62 24 -83 0c-21 -23 -21 -63 0 -87
c21 -23 60 -23 83 0c23 24 23 64 0 87zM776 150v134h368v-134h-368z" />
    <glyph glyph-name="uni2117" unicode="&#x2117;" horiz-adv-x="757" 
d="M378 685c97 0 179 -33 247 -100c69 -67 103 -150 103 -251s-34 -184 -102 -250s-151 -99 -248 -99s-180 33 -249 99c-68 66 -102 149 -102 250c0 100 34 183 102 250c69 67 152 101 249 101zM89 334c0 -84 28 -154 84 -209c57 -55 125 -83 205 -83s148 28 204 83
s84 125 84 209s-28 154 -84 210c-56 57 -124 85 -204 85s-148 -28 -205 -84c-56 -56 -84 -126 -84 -211zM242 153v364h177c91 0 143 -52 143 -127c0 -81 -59 -133 -151 -133h-61v-104h-108zM350 427v-83h56c32 0 51 18 51 43c0 24 -19 40 -51 40h-56z" />
    <glyph glyph-name="oneeighth" unicode="&#x215b;" horiz-adv-x="819" 
d="M97 283v237l-83 -45v119l124 76h81v-387h-122zM571 670h101l-478 -670h-100zM734 201c43 -17 65 -49 65 -94c0 -68 -67 -117 -167 -117c-99 0 -166 49 -166 117c0 45 21 76 64 94c-33 17 -49 45 -49 82c0 31 15 57 44 78c29 22 65 33 108 33s78 -11 107 -33
c29 -21 44 -47 44 -78c0 -37 -17 -65 -50 -82zM633 306c-57 5 -55 -75 0 -71c23 0 43 16 43 36c0 21 -19 35 -43 35zM633 83c25 0 44 16 44 37c0 49 -89 49 -89 0c0 -21 18 -37 45 -37z" />
    <glyph glyph-name="threeeighths" unicode="&#x215c;" horiz-adv-x="860" 
d="M332 404c0 -36 -15 -66 -45 -91s-68 -37 -113 -37c-87 0 -149 50 -157 126l110 21c7 -31 24 -47 49 -47c26 0 39 10 39 31c0 19 -18 32 -43 32h-44v84h40c29 0 44 10 44 30c0 19 -15 31 -39 31c-25 0 -40 -15 -43 -46l-110 21c7 68 69 121 152 121c89 0 153 -52 153 -124
c0 -31 -15 -55 -45 -73c35 -18 52 -44 52 -79zM613 670h100l-478 -670h-100zM768 201c43 -17 65 -49 65 -94c0 -68 -67 -117 -167 -117c-99 0 -166 49 -166 117c0 45 21 76 64 94c-33 17 -49 45 -49 82c0 31 15 57 44 78c29 22 65 33 108 33s78 -11 107 -33
c29 -21 44 -47 44 -78c0 -37 -17 -65 -50 -82zM667 306c-57 5 -55 -75 0 -71c23 0 43 16 43 36c0 21 -19 35 -43 35zM667 83c25 0 44 16 44 37c0 49 -89 49 -89 0c0 -21 18 -37 45 -37z" />
    <glyph glyph-name="fiveeighths" unicode="&#x215d;" horiz-adv-x="851" 
d="M339 412c0 -83 -61 -137 -156 -137c-91 0 -156 53 -164 125l114 19c6 -29 22 -43 49 -43c24 0 41 14 41 35c0 23 -15 34 -44 34h-147l11 225h276v-105h-173l-1 -28h53c89 0 141 -48 141 -125zM615 670h100l-478 -670h-100zM765 201c43 -17 65 -49 65 -94
c0 -68 -67 -117 -167 -117c-99 0 -166 49 -166 117c0 45 21 76 64 94c-33 17 -49 45 -49 82c0 31 15 57 44 78c29 22 65 33 108 33s78 -11 107 -33c29 -21 44 -47 44 -78c0 -37 -17 -65 -50 -82zM664 306c-57 5 -55 -75 0 -71c23 0 43 16 43 36c0 21 -19 35 -43 35zM664 83
c25 0 44 16 44 37c0 49 -89 49 -89 0c0 -21 18 -37 45 -37z" />
    <glyph glyph-name="seveneighths" unicode="&#x215e;" horiz-adv-x="782" 
d="M176 283h-131l131 282h-168v105h298v-93zM541 670h100l-478 -670h-100zM696 201c43 -17 65 -49 65 -94c0 -68 -67 -117 -167 -117c-99 0 -166 49 -166 117c0 45 21 76 64 94c-33 17 -49 45 -49 82c0 31 15 57 44 78c29 22 65 33 108 33s78 -11 107 -33
c29 -21 44 -47 44 -78c0 -37 -17 -65 -50 -82zM595 306c-57 5 -55 -75 0 -71c23 0 43 16 43 36c0 21 -19 35 -43 35zM595 83c25 0 44 16 44 37c0 49 -89 49 -89 0c0 -21 18 -37 45 -37z" />
    <glyph glyph-name="arrowleft" unicode="&#x2190;" horiz-adv-x="727" 
d="M687 403v-158h-373l142 -142l-112 -113l-334 334l334 334l112 -112l-142 -143h373z" />
    <glyph glyph-name="arrowup" unicode="&#x2191;" horiz-adv-x="748" 
d="M708 343l-113 -112l-142 142v-373h-158v373l-143 -142l-112 112l334 334z" />
    <glyph glyph-name="arrowright" unicode="&#x2192;" horiz-adv-x="727" 
d="M383 658l334 -334l-334 -334l-112 113l142 142h-373v158h373l-142 143z" />
    <glyph glyph-name="arrowdown" unicode="&#x2193;" horiz-adv-x="748" 
d="M595 439l113 -112l-334 -334l-334 334l112 112l143 -142v373h158v-373z" />
    <glyph glyph-name="uni2196" unicode="&#x2196;" horiz-adv-x="749" 
d="M709 111l-121 -121l-397 398v-210h-161v492h492l-1 -160h-210z" />
    <glyph glyph-name="uni2197" unicode="&#x2197;" horiz-adv-x="748" 
d="M226 670h492v-492h-161v210l-397 -398l-121 121l398 399h-210z" />
    <glyph glyph-name="uni2198" unicode="&#x2198;" horiz-adv-x="750" 
d="M559 492h161v-492h-492l1 160h210l-398 399l121 121l397 -398v210z" />
    <glyph glyph-name="uni2199" unicode="&#x2199;" horiz-adv-x="750" 
d="M311 160h210l1 -160h-492v492h161v-210l397 398l121 -121z" />
    <glyph glyph-name="minus" unicode="&#x2212;" horiz-adv-x="567" 
d="M527 374v-145h-487v145h487z" />
    <glyph glyph-name="K.ss03" horiz-adv-x="701" 
d="M428 333l280 -333h-248l-187 236h-34v-236h-192v670h192v-253h24l199 253h227z" />
    <glyph glyph-name="Kcommaaccent.ss03" horiz-adv-x="701" 
d="M428 333l280 -333h-248l-187 236h-34v-236h-192v670h192v-253h24l199 253h227zM204 -208l49 163h182l-101 -163h-130z" />
    <glyph glyph-name="Q.ss04" horiz-adv-x="782" 
d="M752 335c0 -104 -39 -190 -116 -259l102 -125l-143 -123l-134 163c-23 -4 -46 -6 -70 -6c-101 0 -187 34 -257 101c-69 68 -104 151 -104 249s35 181 104 248c70 68 156 102 257 102s187 -34 256 -102c70 -67 105 -150 105 -248zM224 335c0 -51 16 -93 47 -127
c32 -33 72 -50 120 -50s88 17 119 50c32 34 48 76 48 127c0 50 -16 92 -48 126c-31 34 -71 51 -119 51s-88 -17 -120 -51c-31 -34 -47 -76 -47 -126z" />
    <glyph glyph-name="I.ss05" horiz-adv-x="286" 
d="M239 670v-670h-192v670h192z" />
    <glyph glyph-name="IJ.ss05" horiz-adv-x="906" 
d="M47 0v670h192v-670h-192zM665 670h193v-425c0 -77 -26 -140 -78 -188c-51 -48 -119 -72 -203 -72c-156 0 -258 89 -278 232l190 37c7 -65 37 -98 88 -98c52 0 88 36 88 89v425z" />
    <glyph glyph-name="Iacute.ss05" horiz-adv-x="286" 
d="M356 892l-127 -160h-173l75 160h225zM239 670v-670h-192v670h192z" />
    <glyph glyph-name="Icircumflex.ss05" horiz-adv-x="286" 
d="M144 779l-36 -50h-177l117 162h191l118 -162h-178zM47 0v670h192v-670h-192z" />
    <glyph glyph-name="Idieresis.ss05" horiz-adv-x="286" 
d="M124 812c0 -57 -41 -98 -100 -98c-57 0 -99 41 -99 98c0 52 42 96 99 96s100 -44 100 -96zM362 812c0 -57 -41 -98 -100 -98c-57 0 -99 41 -99 98c0 52 42 96 99 96s100 -44 100 -96zM239 670v-670h-192v670h192z" />
    <glyph glyph-name="Idotaccent.ss05" horiz-adv-x="286" 
d="M245 821c0 -59 -43 -100 -103 -100s-102 41 -102 100c0 55 43 100 102 100s103 -45 103 -100zM239 670v-670h-192v670h192z" />
    <glyph glyph-name="Igrave.ss05" horiz-adv-x="286" 
d="M-65 892h225l75 -160h-173zM239 670v-670h-192v670h192z" />
    <glyph glyph-name="Imacron.ss05" horiz-adv-x="286" 
d="M315 874v-140h-344v140h344zM239 670v-670h-192v670h192z" />
    <glyph glyph-name="Iogonek.ss05" horiz-adv-x="286" 
d="M263 -90l7 -103c-32 -15 -66 -23 -102 -23c-65 0 -111 37 -111 97c0 43 21 82 64 119h-74v670h192v-670h1c-2 -3 -5 -6 -10 -10c-27 -29 -42 -48 -45 -57c-1 -3 -1 -6 -1 -9c0 -16 9 -24 28 -24c11 0 28 3 51 10z" />
    <glyph glyph-name="J.ss05" horiz-adv-x="620" 
d="M379 670h193v-425c0 -77 -26 -140 -78 -188c-51 -48 -119 -72 -203 -72c-156 0 -258 89 -278 232l190 37c7 -65 37 -98 88 -98c52 0 88 36 88 89v425z" />
    <glyph glyph-name="i.loclTRK" horiz-adv-x="298" 
d="M251 656c0 -59 -43 -100 -103 -100s-102 41 -102 100c0 55 43 100 102 100s103 -45 103 -100zM243 505v-505h-188v505h188z" />
    <glyph glyph-name="germandbls.case" horiz-adv-x="1288" 
d="M326 685c159 0 265 -71 289 -195l-188 -38c-12 59 -56 84 -101 84c-43 0 -71 -21 -71 -54c0 -23 13 -37 39 -43l136 -32c127 -32 191 -98 191 -199c0 -50 -15 -92 -44 -127c-57 -69 -142 -96 -241 -96c-83 0 -152 19 -208 56s-89 88 -98 151l196 37
c15 -59 53 -89 114 -89c47 0 79 19 79 54c0 23 -15 38 -46 45l-139 33c-123 29 -184 93 -184 194c0 69 26 122 77 161s118 58 199 58zM963 685c159 0 265 -71 289 -195l-188 -38c-12 59 -56 84 -101 84c-43 0 -71 -21 -71 -54c0 -23 13 -37 39 -43l136 -32
c127 -32 191 -98 191 -199c0 -50 -15 -92 -44 -127c-57 -69 -142 -96 -241 -96c-83 0 -152 19 -208 56s-89 88 -98 151l196 37c15 -59 53 -89 114 -89c47 0 79 19 79 54c0 23 -15 38 -46 45l-139 33c-123 29 -184 93 -184 194c0 69 26 122 77 161s118 58 199 58z" />
    <glyph glyph-name="a.ss01" horiz-adv-x="646" 
d="M412 505h187v-505h-187v43c-37 -39 -87 -58 -148 -58c-70 0 -128 25 -175 74c-46 50 -69 114 -69 193s23 144 69 193c47 50 105 75 175 75c61 0 111 -19 148 -58v43zM309 141c57 0 103 48 103 111c0 64 -46 112 -103 112c-61 0 -102 -47 -102 -112
c0 -64 41 -111 102 -111z" />
    <glyph glyph-name="aacute.ss01" horiz-adv-x="646" 
d="M544 727l-127 -160h-173l75 160h225zM412 505h187v-505h-187v43c-37 -39 -87 -58 -148 -58c-70 0 -128 25 -175 74c-46 50 -69 114 -69 193s23 144 69 193c47 50 105 75 175 75c61 0 111 -19 148 -58v43zM309 141c57 0 103 48 103 111c0 64 -46 112 -103 112
c-61 0 -102 -47 -102 -112c0 -64 41 -111 102 -111z" />
    <glyph glyph-name="abreve.ss01" horiz-adv-x="646" 
d="M144 718h142c0 -24 18 -43 46 -43s47 19 47 43h141c0 -101 -76 -168 -188 -168s-188 67 -188 168zM412 505h187v-505h-187v43c-37 -39 -87 -58 -148 -58c-70 0 -128 25 -175 74c-46 50 -69 114 -69 193s23 144 69 193c47 50 105 75 175 75c61 0 111 -19 148 -58v43z
M309 141c57 0 103 48 103 111c0 64 -46 112 -103 112c-61 0 -102 -47 -102 -112c0 -64 41 -111 102 -111z" />
    <glyph glyph-name="acircumflex.ss01" horiz-adv-x="646" 
d="M332 614l-36 -50h-177l117 162h191l118 -162h-178zM412 505h187v-505h-187v43c-37 -39 -87 -58 -148 -58c-70 0 -128 25 -175 74c-46 50 -69 114 -69 193s23 144 69 193c47 50 105 75 175 75c61 0 111 -19 148 -58v43zM309 141c57 0 103 48 103 111
c0 64 -46 112 -103 112c-61 0 -102 -47 -102 -112c0 -64 41 -111 102 -111z" />
    <glyph glyph-name="adieresis.ss01" horiz-adv-x="646" 
d="M213 549c-57 0 -99 41 -99 98c0 52 42 96 99 96s100 -44 100 -96c0 -57 -41 -98 -100 -98zM451 549c-57 0 -99 41 -99 98c0 52 42 96 99 96s100 -44 100 -96c0 -57 -41 -98 -100 -98zM412 505h187v-505h-187v43c-37 -39 -87 -58 -148 -58c-70 0 -128 25 -175 74
c-46 50 -69 114 -69 193s23 144 69 193c47 50 105 75 175 75c61 0 111 -19 148 -58v43zM309 141c57 0 103 48 103 111c0 64 -46 112 -103 112c-61 0 -102 -47 -102 -112c0 -64 41 -111 102 -111z" />
    <glyph glyph-name="agrave.ss01" horiz-adv-x="646" 
d="M424 567h-173l-127 160h225zM412 505h187v-505h-187v43c-37 -39 -87 -58 -148 -58c-70 0 -128 25 -175 74c-46 50 -69 114 -69 193s23 144 69 193c47 50 105 75 175 75c61 0 111 -19 148 -58v43zM309 141c57 0 103 48 103 111c0 64 -46 112 -103 112
c-61 0 -102 -47 -102 -112c0 -64 41 -111 102 -111z" />
    <glyph glyph-name="amacron.ss01" horiz-adv-x="646" 
d="M504 709v-140h-344v140h344zM412 505h187v-505h-187v43c-37 -39 -87 -58 -148 -58c-70 0 -128 25 -175 74c-46 50 -69 114 -69 193s23 144 69 193c47 50 105 75 175 75c61 0 111 -19 148 -58v43zM309 141c57 0 103 48 103 111c0 64 -46 112 -103 112
c-61 0 -102 -47 -102 -112c0 -64 41 -111 102 -111z" />
    <glyph glyph-name="aogonek.ss01" horiz-adv-x="646" 
d="M623 -90l7 -103c-32 -15 -66 -23 -102 -23c-65 0 -111 37 -111 97c0 43 21 82 64 119h-69v43c-37 -39 -87 -58 -148 -58c-70 0 -128 25 -175 74c-46 50 -69 114 -69 193s23 144 69 193c47 50 105 75 175 75c61 0 111 -19 148 -58v43h187v-505h1c-32 -33 -50 -54 -53 -63
c-2 -4 -3 -8 -3 -13c0 -16 9 -24 28 -24c11 0 28 3 51 10zM309 141c57 0 103 48 103 111c0 64 -46 112 -103 112c-61 0 -102 -47 -102 -112c0 -64 41 -111 102 -111z" />
    <glyph glyph-name="aring.ss01" horiz-adv-x="646" 
d="M427 580c-26 -25 -58 -37 -95 -37s-69 12 -95 37s-39 56 -39 92s13 66 39 91s58 38 95 38s69 -13 95 -38s39 -55 39 -91s-13 -67 -39 -92zM361 699c-35 39 -97 -21 -58 -55c16 -15 42 -15 58 0c16 16 16 40 0 55zM412 505h187v-505h-187v43c-37 -39 -87 -58 -148 -58
c-70 0 -128 25 -175 74c-46 50 -69 114 -69 193s23 144 69 193c47 50 105 75 175 75c61 0 111 -19 148 -58v43zM309 141c57 0 103 48 103 111c0 64 -46 112 -103 112c-61 0 -102 -47 -102 -112c0 -64 41 -111 102 -111z" />
    <glyph glyph-name="atilde.ss01" horiz-adv-x="646" 
d="M287 603c-19 0 -26 -7 -34 -30h-105c0 109 52 174 123 174c23 0 45 -6 68 -19c23 -12 41 -18 52 -18c19 0 26 9 34 33h105c0 -109 -52 -174 -123 -174c-23 0 -46 6 -69 17s-40 17 -51 17zM412 505h187v-505h-187v43c-37 -39 -87 -58 -148 -58c-70 0 -128 25 -175 74
c-46 50 -69 114 -69 193s23 144 69 193c47 50 105 75 175 75c61 0 111 -19 148 -58v43zM309 141c57 0 103 48 103 111c0 64 -46 112 -103 112c-61 0 -102 -47 -102 -112c0 -64 41 -111 102 -111z" />
    <glyph glyph-name="l.ss02" horiz-adv-x="281" 
d="M234 770v-770h-187v770h187z" />
    <glyph glyph-name="lacute.ss02" horiz-adv-x="281" 
d="M357 992l-127 -160h-173l75 160h225zM234 770v-770h-187v770h187z" />
    <glyph glyph-name="lcaron.ss02" horiz-adv-x="281" 
d="M234 770v-770h-187v770h187zM454 770l-41 -200h-127v200h168z" />
    <glyph glyph-name="lcommaaccent.ss02" horiz-adv-x="281" 
d="M234 770v-770h-187v770h187zM133 -208h-130l49 163h182z" />
    <glyph glyph-name="ldot.ss02" horiz-adv-x="472" 
d="M234 770v-770h-187v770h187zM365 466c57 0 102 -44 102 -99c0 -57 -43 -100 -102 -100c-60 0 -102 41 -102 100c0 55 43 99 102 99z" />
    <glyph glyph-name="lslash.ss02" horiz-adv-x="324" 
d="M307 530v-174l-51 -26v-330h-188v232l-51 -26v174l51 26v364h188v-266z" />
    <glyph glyph-name="k.ss03" horiz-adv-x="626" 
d="M413 265l220 -265h-233l-135 168h-31v-168h-187v770h187v-432h22l137 167h221z" />
    <glyph glyph-name="kcommaaccent.ss03" horiz-adv-x="626" 
d="M413 265l220 -265h-233l-135 168h-31v-168h-187v770h187v-432h22l137 167h221zM181 -208l49 163h182l-101 -163h-130z" />
    <glyph glyph-name="f_j" horiz-adv-x="692" 
d="M265 505h372v-578c0 -105 -70 -177 -174 -177c-37 0 -74 8 -110 24l26 135c17 -3 28 -5 34 -5c21 0 36 16 36 40v415h-184v-359h-188v359h-67v146h67v78c0 60 19 108 57 143c39 36 89 54 151 54c33 0 64 -5 94 -16l-28 -145c-15 3 -24 4 -29 4c-35 0 -57 -20 -57 -53v-65
zM437 653c0 56 45 102 105 102s105 -47 105 -102c0 -59 -44 -102 -105 -102s-105 43 -105 102z" />
    <glyph glyph-name="f_t" horiz-adv-x="800" 
d="M759 163l37 -141c-46 -25 -94 -37 -144 -37c-131 0 -204 74 -204 202v172h-183v-359h-188v359h-67v146h67v78c0 60 19 108 57 143c39 36 89 54 151 54c33 0 64 -5 94 -16l-28 -145c-15 3 -24 4 -29 4c-35 0 -57 -20 -57 -53v-65h183v165h187v-165h134v-146h-134v-151
c0 -41 20 -61 61 -61c23 0 44 5 63 16z" />
    <glyph glyph-name="fl.ss02" horiz-adv-x="666" 
d="M321 623c-33 0 -56 -21 -56 -53v-65h123v-146h-123v-359h-188v359h-67v146h67v78c0 59 19 107 57 143s88 54 150 54c39 0 76 -7 109 -22l-37 -141c-13 4 -25 6 -35 6zM432 770h187v-770h-187v770z" />
    <glyph glyph-name="zero.tf" 
d="M305 685c85 0 153 -32 205 -97c53 -64 79 -148 79 -253s-26 -189 -78 -254c-52 -64 -121 -96 -206 -96s-154 32 -207 96c-52 65 -78 149 -78 254s26 189 78 253c53 65 122 97 207 97zM305 149c56 0 90 63 90 186c0 121 -34 185 -90 185c-57 0 -91 -64 -91 -185
c0 -123 34 -186 91 -186z" />
    <glyph glyph-name="one.tf" 
d="M420 169h138v-169h-502v169h175v275l-162 -71v177l227 120h124v-501z" />
    <glyph glyph-name="two.tf" 
d="M337 165h232v-165h-516v127l237 212c21 18 35 31 44 40c17 19 40 51 40 82c0 39 -27 66 -66 66c-50 0 -77 -32 -82 -95l-182 34c4 68 29 121 76 160s109 59 184 59c76 0 137 -20 184 -60s71 -95 71 -164c0 -43 -11 -80 -32 -111s-55 -67 -103 -110z" />
    <glyph glyph-name="three.tf" 
d="M488 342c54 -30 81 -76 81 -138c0 -63 -25 -116 -74 -157s-111 -62 -188 -62c-72 0 -133 19 -183 57c-49 38 -79 90 -88 156l185 33c9 -57 41 -91 88 -91s79 27 79 67c0 39 -31 64 -82 64h-76v136h71c49 0 81 24 81 60c0 40 -29 66 -76 66c-50 0 -78 -32 -84 -96l-179 34
c20 135 122 214 262 214c74 0 135 -20 182 -60s71 -91 71 -153c0 -57 -23 -101 -70 -130z" />
    <glyph glyph-name="four.tf" 
d="M592 265v-155h-73v-110h-178v110h-320v173l270 387h228v-405h73zM201 265h140v215z" />
    <glyph glyph-name="five.tf" 
d="M250 507l-3 -70h84c156 0 243 -82 243 -217c0 -70 -24 -127 -72 -170s-111 -65 -189 -65c-75 0 -137 20 -188 60c-51 41 -78 97 -82 169l182 34c1 -72 41 -104 90 -104c47 0 79 29 79 74c0 43 -34 70 -83 70h-237l14 383h458v-164h-296z" />
    <glyph glyph-name="six.tf" 
d="M356 435c70 0 126 -20 169 -61s64 -94 64 -160c0 -67 -25 -122 -74 -165s-111 -64 -186 -64c-90 0 -162 30 -215 89s-79 142 -79 248c0 124 32 218 96 283c53 53 120 80 200 80c127 0 218 -61 246 -169l-180 -36c-10 33 -34 50 -73 50c-27 0 -50 -11 -70 -33
c-26 -30 -39 -69 -40 -118c37 37 85 56 142 56zM411 220c0 49 -40 86 -88 86c-47 0 -87 -37 -87 -86c0 -48 40 -85 87 -85s88 37 88 85z" />
    <glyph glyph-name="seven.tf" 
d="M35 670h529v-141l-248 -529h-205l245 505h-321v165z" />
    <glyph glyph-name="eight.tf" 
d="M461 346c77 -31 115 -84 115 -161c0 -58 -25 -106 -76 -144c-50 -37 -116 -56 -197 -56s-146 19 -197 56c-51 38 -76 86 -76 145c0 75 39 129 116 161c-61 29 -92 78 -92 147c0 54 24 99 71 136s107 55 179 55c71 0 131 -18 178 -55s71 -82 71 -136
c0 -68 -31 -117 -92 -148zM381 478c0 40 -35 67 -78 67s-77 -27 -77 -68c-6 -89 160 -90 155 1zM246 150c31 -25 83 -25 114 0c16 13 24 31 24 53s-8 39 -24 52c-31 27 -83 27 -114 0c-15 -13 -23 -30 -23 -52s8 -40 23 -53z" />
    <glyph glyph-name="nine.tf" 
d="M280 684c90 0 161 -30 214 -89s80 -142 80 -248c0 -123 -32 -217 -96 -283c-55 -53 -121 -80 -200 -80c-127 0 -218 61 -246 169l180 36c9 -33 34 -50 73 -50c27 0 50 11 70 33c25 29 38 68 39 117c-38 -37 -85 -55 -141 -55c-70 0 -126 20 -169 61s-64 94 -64 160
c0 67 24 122 73 165s112 64 187 64zM286 363c47 0 87 37 87 86c0 48 -40 85 -87 85s-89 -37 -89 -85c0 -49 41 -86 89 -86z" />
    <glyph glyph-name="zero.zero.tf" 
d="M305 685c85 0 153 -32 205 -97c53 -64 79 -148 79 -253s-26 -189 -78 -254c-52 -64 -121 -96 -206 -96s-154 32 -207 96c-52 65 -78 149 -78 254s26 189 78 253c53 65 122 97 207 97zM305 520c-57 0 -91 -64 -91 -185c0 -12 1 -27 2 -46l146 199c-15 21 -34 32 -57 32z
M305 149c56 0 90 63 90 186c0 19 0 33 -1 42l-146 -197c15 -21 34 -31 57 -31z" />
    <glyph glyph-name="zero.zero" horiz-adv-x="657" 
d="M332 -15c-91 0 -165 32 -221 96c-55 65 -83 149 -83 254s28 189 84 253c56 65 129 97 220 97s164 -32 219 -97c55 -64 83 -148 83 -253s-28 -189 -83 -254c-55 -64 -128 -96 -219 -96zM332 520c-68 0 -110 -68 -110 -185c0 -21 2 -42 5 -63l165 224c-17 16 -37 24 -60 24
zM332 149c67 0 108 69 108 186c0 23 -2 45 -5 67l-166 -226c17 -18 38 -27 63 -27z" />
    <glyph glyph-name="zero.dnom" horiz-adv-x="412" 
d="M207 394c54 0 97 -19 130 -56s50 -85 50 -146s-17 -110 -50 -147s-76 -55 -130 -55c-109 0 -181 81 -181 202s72 202 181 202zM207 95c35 0 53 32 53 97c0 64 -18 96 -53 96c-36 0 -54 -32 -54 -96c0 -65 18 -97 54 -97z" />
    <glyph glyph-name="one.dnom" horiz-adv-x="263" 
d="M219 387v-387h-122v237l-83 -45v119l124 76h81z" />
    <glyph glyph-name="two.dnom" horiz-adv-x="362" 
d="M254 138l-42 -35h118v-103h-300v75l138 125l25 24c9 9 20 25 20 38c0 19 -13 31 -32 31c-26 0 -39 -17 -40 -52l-112 21c0 80 60 134 152 134c91 0 151 -50 151 -133c0 -51 -25 -81 -78 -125z" />
    <glyph glyph-name="three.dnom" horiz-adv-x="354" 
d="M280 197c35 -18 52 -44 52 -79c0 -36 -15 -66 -45 -91s-68 -37 -113 -37c-87 0 -149 50 -157 126l110 21c7 -31 24 -47 49 -47c26 0 39 10 39 31c0 19 -18 32 -43 32h-44v84h40c29 0 44 10 44 30c0 19 -15 31 -39 31c-25 0 -40 -15 -43 -46l-110 21c7 68 69 121 152 121
c89 0 153 -52 153 -124c0 -31 -15 -55 -45 -73z" />
    <glyph glyph-name="four.dnom" horiz-adv-x="389" 
d="M374 158v-99h-47v-59h-114v59h-196v110l167 218h143v-229h47zM133 158h80v108z" />
    <glyph glyph-name="five.dnom" horiz-adv-x="357" 
d="M146 280l-1 -28h53c89 0 141 -48 141 -125c0 -83 -61 -137 -156 -137c-91 0 -156 53 -164 125l114 19c6 -29 22 -43 49 -43c24 0 41 14 41 35c0 23 -15 34 -44 34h-147l11 225h276v-105h-173z" />
    <glyph glyph-name="six.dnom" horiz-adv-x="368" 
d="M214 252c80 0 134 -52 134 -128c0 -79 -64 -134 -153 -134c-108 0 -175 72 -175 193c0 72 19 127 57 165c31 31 70 46 119 46c80 0 135 -41 147 -110l-113 -18c-4 20 -17 30 -39 30c-27 0 -46 -23 -53 -66c23 15 49 22 76 22zM158 96c17 -16 49 -16 66 0
c17 17 17 47 0 63c-17 17 -49 17 -66 0c-17 -16 -17 -46 0 -63z" />
    <glyph glyph-name="seven.dnom" horiz-adv-x="314" 
d="M8 386h298v-93l-130 -294h-131l131 282h-168v105z" />
    <glyph glyph-name="eight.dnom" horiz-adv-x="381" 
d="M292 201c43 -17 65 -49 65 -94c0 -68 -67 -117 -167 -117c-99 0 -166 49 -166 117c0 45 21 76 64 94c-33 17 -49 45 -49 82c0 31 15 57 44 78c29 22 65 33 108 33s78 -11 107 -33c29 -21 44 -47 44 -78c0 -37 -17 -65 -50 -82zM191 306c-57 5 -55 -75 0 -71
c23 0 43 16 43 36c0 21 -19 35 -43 35zM191 83c25 0 44 16 44 37c0 49 -89 49 -89 0c0 -21 18 -37 45 -37z" />
    <glyph glyph-name="nine.dnom" horiz-adv-x="368" 
d="M173 394c108 0 175 -72 175 -193c0 -72 -19 -127 -57 -164c-31 -31 -71 -47 -118 -47c-81 0 -135 40 -148 111l114 18c4 -21 17 -31 38 -31c13 0 24 6 34 17c11 11 17 28 19 51c-22 -15 -47 -23 -76 -23c-80 0 -134 51 -134 128c0 79 65 133 153 133zM177 212
c27 0 46 19 46 44c0 27 -19 45 -46 45c-25 0 -45 -18 -45 -45c0 -25 20 -44 45 -44z" />
    <glyph glyph-name="zero.numr" horiz-adv-x="412" 
d="M207 680c54 0 97 -19 130 -56s50 -85 50 -146s-17 -110 -50 -147s-76 -55 -130 -55c-109 0 -181 81 -181 202s72 202 181 202zM207 381c35 0 53 32 53 97c0 64 -18 96 -53 96c-36 0 -54 -32 -54 -96c0 -65 18 -97 54 -97z" />
    <glyph glyph-name="one.numr" horiz-adv-x="263" 
d="M219 670v-387h-122v237l-83 -45v119l124 76h81z" />
    <glyph glyph-name="two.numr" horiz-adv-x="362" 
d="M254 422l-42 -35h118v-103h-300v75l138 125l25 24c9 9 20 25 20 38c0 19 -13 31 -32 31c-26 0 -39 -17 -40 -52l-112 21c0 80 60 134 152 134c91 0 151 -50 151 -133c0 -51 -25 -81 -78 -125z" />
    <glyph glyph-name="three.numr" horiz-adv-x="354" 
d="M280 483c35 -18 52 -44 52 -79c0 -36 -15 -66 -45 -91s-68 -37 -113 -37c-87 0 -149 50 -157 126l110 21c7 -31 24 -47 49 -47c26 0 39 10 39 31c0 19 -18 32 -43 32h-44v84h40c29 0 44 10 44 30c0 19 -15 31 -39 31c-25 0 -40 -15 -43 -46l-110 21c7 68 69 121 152 121
c89 0 153 -52 153 -124c0 -31 -15 -55 -45 -73z" />
    <glyph glyph-name="four.numr" horiz-adv-x="389" 
d="M374 441v-99h-47v-59h-114v59h-196v110l167 218h143v-229h47zM133 441h80v108z" />
    <glyph glyph-name="five.numr" horiz-adv-x="357" 
d="M146 565l-1 -28h53c89 0 141 -48 141 -125c0 -83 -61 -137 -156 -137c-91 0 -156 53 -164 125l114 19c6 -29 22 -43 49 -43c24 0 41 14 41 35c0 23 -15 34 -44 34h-147l11 225h276v-105h-173z" />
    <glyph glyph-name="six.numr" horiz-adv-x="368" 
d="M214 538c80 0 134 -52 134 -128c0 -79 -64 -134 -153 -134c-108 0 -175 72 -175 193c0 72 19 127 57 165c31 31 70 46 119 46c80 0 135 -41 147 -110l-113 -18c-4 20 -17 30 -39 30c-27 0 -46 -23 -53 -66c23 15 49 22 76 22zM158 382c17 -16 49 -16 66 0
c17 17 17 47 0 63c-17 17 -49 17 -66 0c-17 -16 -17 -46 0 -63z" />
    <glyph glyph-name="seven.numr" horiz-adv-x="314" 
d="M8 670h298v-93l-130 -294h-131l131 282h-168v105z" />
    <glyph glyph-name="eight.numr" horiz-adv-x="381" 
d="M292 487c43 -17 65 -49 65 -94c0 -68 -67 -117 -167 -117c-99 0 -166 49 -166 117c0 45 21 76 64 94c-33 17 -49 45 -49 82c0 31 15 57 44 78c29 22 65 33 108 33s78 -11 107 -33c29 -21 44 -47 44 -78c0 -37 -17 -65 -50 -82zM191 592c-57 5 -55 -75 0 -71
c23 0 43 16 43 36c0 21 -19 35 -43 35zM191 369c25 0 44 16 44 37c0 49 -89 49 -89 0c0 -21 18 -37 45 -37z" />
    <glyph glyph-name="nine.numr" horiz-adv-x="368" 
d="M173 680c108 0 175 -72 175 -193c0 -72 -19 -127 -57 -164c-31 -31 -71 -47 -118 -47c-81 0 -135 40 -148 111l114 18c4 -21 17 -31 38 -31c13 0 24 6 34 17c11 11 17 28 19 51c-22 -15 -47 -23 -76 -23c-80 0 -134 51 -134 128c0 79 65 133 153 133zM177 498
c27 0 46 19 46 44c0 27 -19 45 -46 45c-25 0 -45 -18 -45 -45c0 -25 20 -44 45 -44z" />
    <glyph glyph-name="backslash.case" horiz-adv-x="451" 
d="M192 670l238 -670h-170l-238 670h170z" />
    <glyph glyph-name="periodcentered.case" horiz-adv-x="255" 
d="M231 328c0 -59 -44 -102 -104 -102s-104 43 -104 102c0 56 44 104 104 104s104 -48 104 -104z" />
    <glyph glyph-name="bullet.case" horiz-adv-x="407" 
d="M204 502c51 0 93 -18 128 -54c35 -35 52 -77 52 -125c0 -51 -17 -93 -51 -127s-77 -51 -129 -51s-95 17 -129 51s-51 76 -51 127c0 48 17 90 51 125c35 36 78 54 129 54z" />
    <glyph glyph-name="colon.case" horiz-adv-x="255" 
d="M231 467c0 -60 -44 -103 -104 -103s-104 43 -104 103c0 56 44 103 104 103s104 -47 104 -103zM231 167c0 -59 -44 -102 -104 -102s-104 43 -104 102c0 56 44 104 104 104s104 -48 104 -104z" />
    <glyph glyph-name="exclamdown.case" horiz-adv-x="306" 
d="M157 475c-59 0 -103 46 -103 101c0 56 43 99 103 99s105 -43 105 -99c0 -55 -45 -101 -105 -101zM47 0v31l15 400h182l15 -400v-31h-212z" />
    <glyph glyph-name="questiondown.case" horiz-adv-x="551" 
d="M178 582c0 57 43 99 104 99s104 -42 104 -99c0 -55 -44 -100 -104 -100s-104 45 -104 100zM342 227l186 -37c-23 -116 -117 -199 -270 -199c-71 0 -128 20 -173 61s-67 93 -67 154c0 93 64 162 169 187v46h184l-1 -166h-84c-48 0 -80 -22 -80 -57c0 -37 26 -62 63 -62
c40 0 66 29 73 73z" />
    <glyph glyph-name="semicolon.case" horiz-adv-x="290" 
d="M162 570c60 0 105 -47 105 -103c0 -59 -44 -103 -105 -103c-60 0 -103 44 -103 103c0 56 44 103 103 103zM257 172l-117 -304h-143l58 308h202v-4z" />
    <glyph glyph-name="slash.case" horiz-adv-x="485" 
d="M445 670l-253 -670h-153l253 670h153z" />
    <glyph glyph-name="braceleft.case" horiz-adv-x="417" 
d="M276 496v-60c0 -52 -19 -87 -56 -105c37 -18 56 -53 56 -105v-52c0 -17 8 -26 24 -26h84v-148h-144c-80 0 -133 52 -133 132v69c0 25 -17 42 -51 51l-36 10v139l36 10c33 11 51 23 51 51v76c0 79 53 132 133 132h144v-148h-84c-13 0 -24 -11 -24 -26z" />
    <glyph glyph-name="braceright.case" horiz-adv-x="417" 
d="M361 411l36 -10v-139l-36 -10c-33 -9 -50 -26 -50 -51v-69c0 -80 -54 -132 -134 -132h-144v148h85c15 0 23 9 23 26v52c0 52 19 87 57 105c-38 18 -57 53 -57 105v60c0 17 -8 26 -23 26h-85v148h144c80 0 134 -53 134 -132v-76c0 -28 17 -40 50 -51z" />
    <glyph glyph-name="bracketleft.case" horiz-adv-x="415" 
d="M382 522h-166v-374h166v-148h-335v670h335v-148z" />
    <glyph glyph-name="bracketright.case" horiz-adv-x="415" 
d="M33 670h335v-670h-335v148h166v374h-166v148z" />
    <glyph glyph-name="parenleft.case" horiz-adv-x="363" 
d="M225 335c0 -50 9 -92 26 -125s45 -72 82 -116l-121 -111c-115 104 -182 211 -182 352s67 248 182 352l116 -111c-25 -31 -43 -55 -54 -72c-23 -33 -49 -100 -49 -169z" />
    <glyph glyph-name="parenright.case" horiz-adv-x="363" 
d="M35 576l117 111c113 -105 181 -211 181 -352c0 -140 -68 -248 -181 -352l-122 111c37 44 65 83 82 116s26 75 26 125c0 35 -5 67 -16 98s-22 54 -33 71s-29 41 -54 72z" />
    <glyph glyph-name="emdash.case" horiz-adv-x="1040" 
d="M980 400v-147h-920v147h920z" />
    <glyph glyph-name="endash.case" horiz-adv-x="620" 
d="M560 400v-147h-500v147h500z" />
    <glyph glyph-name="hyphen.case" horiz-adv-x="455" 
d="M395 404v-155h-335v155h335z" />
    <glyph glyph-name="guillemotleft.case" horiz-adv-x="539" 
d="M124 144l-99 178l99 178h170l-99 -178l99 -178h-170zM344 144l-99 178l99 178h170l-99 -178l99 -178h-170z" />
    <glyph glyph-name="guillemotright.case" horiz-adv-x="539" 
d="M195 144h-170l99 178l-99 178h170l99 -178zM415 144h-170l99 178l-99 178h170l99 -178z" />
    <glyph glyph-name="guilsinglleft.case" horiz-adv-x="319" 
d="M124 144l-99 178l99 178h170l-99 -178l99 -178h-170z" />
    <glyph glyph-name="guilsinglright.case" horiz-adv-x="319" 
d="M195 144h-170l99 178l-99 178h170l99 -178z" />
    <glyph glyph-name="cent.tf" 
d="M398 223l172 -33c-17 -97 -89 -170 -186 -195v-125h-154v125c-59 15 -108 45 -146 91c-38 47 -57 102 -57 166c0 65 19 120 57 166c38 47 87 77 146 92v120h154v-120c96 -25 168 -96 185 -192l-172 -36c-11 52 -45 80 -90 80c-59 0 -100 -47 -100 -110s41 -109 100 -109
c45 0 79 28 91 80z" />
    <glyph glyph-name="dollar.tf" 
d="M577 217c0 -113 -81 -182 -193 -203v-114h-155v117c-54 13 -100 36 -137 71s-60 76 -67 123l178 34c13 -61 49 -92 110 -92c43 0 74 20 74 48c0 22 -14 36 -43 43l-128 32c-117 27 -175 88 -175 181c0 108 75 179 188 200v113h155v-116c105 -23 175 -92 188 -188
l-172 -30c-10 58 -43 87 -99 87c-40 0 -66 -19 -66 -50c0 -21 12 -35 36 -40l127 -30c119 -29 179 -87 179 -186z" />
    <glyph glyph-name="Euro.tf" 
d="M403 277l188 -34c-10 -76 -39 -138 -88 -186c-48 -48 -108 -72 -180 -72c-133 0 -232 87 -265 235h-46v96h34v19v19h-34v95h46c32 148 130 236 265 236c72 0 132 -24 181 -73c49 -48 77 -110 86 -187l-184 -33c-13 87 -40 131 -83 131c-37 0 -62 -25 -75 -74h116l-18 -95
h-110v-19v-19h107l-18 -96h-77c14 -49 39 -73 75 -73c41 0 68 43 80 130z" />
    <glyph glyph-name="florin.tf" 
d="M487 528c-35 0 -62 -22 -67 -59l-13 -69h121v-146h-147l-42 -231c-21 -115 -104 -188 -216 -188c-40 0 -79 12 -118 37l52 136c63 -25 87 -8 97 28l40 218h-88v146h114l15 82c11 61 38 110 82 147s97 56 158 56c48 0 92 -11 132 -34l-57 -142c-23 13 -44 19 -63 19z" />
    <glyph glyph-name="sterling.tf" 
d="M286 162h288v-162h-537v122l62 20v85h-62v152h62v86c0 66 22 119 65 159c43 41 101 61 172 61c67 0 121 -19 164 -58s67 -89 71 -152l-176 -33c-8 59 -27 76 -59 76c-31 0 -50 -21 -50 -53v-86h157v-152h-157v-65z" />
    <glyph glyph-name="yen.tf" 
d="M600 670l-160 -345h94v-107h-137v-37h137v-106h-137v-75h-193v75h-128v106h128v37h-128v107h86l-153 345h201l91 -261l90 261h209z" />
    <glyph glyph-name="approxequal.tf" 
d="M547 464v-133c-31 -15 -67 -22 -109 -22c-37 0 -80 8 -128 25s-89 26 -123 26c-55 0 -96 -10 -124 -29v129c29 22 71 33 124 33c35 0 78 -9 127 -26s91 -25 126 -25c44 0 80 7 107 22zM547 295v-133c-31 -15 -67 -22 -109 -22c-37 0 -80 8 -128 25s-89 26 -123 26
c-55 0 -96 -10 -124 -29v130c29 21 70 32 124 32c35 0 78 -9 127 -26s91 -25 126 -25c44 0 80 7 107 22z" />
    <glyph glyph-name="divide.tf" 
d="M304 570c47 0 83 -38 83 -83c0 -47 -35 -82 -83 -82s-83 35 -83 82c0 45 35 83 83 83zM548 374v-145h-486v145h486zM304 197c47 0 83 -37 83 -82c0 -47 -35 -83 -83 -83s-83 35 -83 83c0 45 35 82 83 82z" />
    <glyph glyph-name="equal.tf" 
d="M548 478v-138h-486v138h486zM548 280v-138h-486v138h486z" />
    <glyph glyph-name="greater.tf" 
d="M110 265l230 61l-230 60v168l415 -143v-170l-415 -143v167z" />
    <glyph glyph-name="greaterequal.tf" 
d="M101 369l247 44l-247 42v152l415 -108v-172l-415 -106v148zM516 203v-145h-415v145h415z" />
    <glyph glyph-name="less.tf" 
d="M500 265v-167l-415 143v170l415 143v-168l-230 -60z" />
    <glyph glyph-name="lessequal.tf" 
d="M510 369v-148l-415 106v172l415 108v-152l-247 -42zM94 203h416v-145h-416v145z" />
    <glyph glyph-name="minus.tf" 
d="M548 374v-145h-486v145h486z" />
    <glyph glyph-name="multiply.tf" 
d="M537 431l-130 -129l130 -130l-102 -102l-130 130l-131 -130l-101 102l130 130l-130 129l101 102l131 -130l130 130z" />
    <glyph glyph-name="notequal.tf" 
d="M548 340h-159l-32 -60h191v-138h-266l-47 -87h-129l47 87h-91v138h166l32 60h-198v138h273l41 76h129l-41 -76h84v-138z" />
    <glyph glyph-name="plus.tf" 
d="M548 374v-145h-170v-172h-146v172h-170v145h170v172h146v-172h170z" />
    <glyph glyph-name="plusminus.tf" 
d="M378 482h170v-145h-170v-135h-146v135h-170v145h170v156h146v-156zM62 0v145h486v-145h-486z" />
    <glyph glyph-name="bar.case" horiz-adv-x="263" 
d="M216 711v-752h-169v752h169z" />
    <glyph glyph-name="at.case" horiz-adv-x="928" 
d="M543 506h136v-275c0 -25 18 -39 43 -39c23 0 40 15 53 46s19 68 19 110c0 87 -31 158 -92 212s-136 81 -227 81c-97 0 -178 -31 -243 -94c-65 -62 -97 -141 -97 -236s32 -172 95 -233c64 -60 145 -90 242 -90c84 0 163 28 237 84l45 -72c-75 -64 -169 -96 -281 -96
c-125 0 -228 38 -309 114s-121 173 -121 290c0 120 41 219 124 298s186 119 308 119c115 0 212 -35 291 -106c79 -70 119 -160 119 -269c0 -59 -13 -110 -42 -161c-28 -49 -84 -81 -159 -81c-62 0 -104 20 -126 61c-30 -40 -74 -60 -132 -60c-55 0 -101 18 -138 55
c-36 37 -54 86 -54 148s18 111 55 148s82 55 137 55c49 0 88 -15 117 -44v35zM543 314c0 48 -34 80 -77 80s-78 -32 -78 -80c0 -49 35 -82 78 -82s77 33 77 82z" />
    <glyph glyph-name="caron.alt" horiz-adv-x="600" 
d="M393 650l-41 -200h-127v200h168z" />
    </font>
</defs>
</svg>
